<?xml version="1.0" encoding="utf-8"?>
<!-- Generator: Avocode 2.5.4 - http://avocode.com -->
<svg height="15" width="20" xmlns:xlink="http://www.w3.org/1999/xlink" xmlns="http://www.w3.org/2000/svg" viewBox="0 0 20 15">
    <path fill="#cdcdcd" fill-rule="evenodd" d="M 18.33 15 L 1.67 15 C 0.75 15 0 14.25 0 13.33 L 0 1.67 C 0 0.75 0.75 0 1.67 0 L 18.33 0 C 19.25 0 20 0.75 20 1.67 L 20 13.33 C 20 14.25 19.25 15 18.33 15 L 18.33 15 Z M 4.49 1.67 L 10 7.17 L 15.51 1.67 L 4.49 1.67 L 4.49 1.67 Z M 18.33 1.67 L 17.83 1.67 L 10.66 8.83 C 10.64 8.87 10.62 8.9 10.59 8.93 C 10.26 9.24 9.74 9.24 9.41 8.93 C 9.38 8.9 9.36 8.87 9.34 8.83 L 2.18 1.67 L 1.67 1.67 L 1.67 13.33 L 18.33 13.33 L 18.33 1.67 L 18.33 1.67 Z M 18.33 1.67" />
</svg>