<?xml version="1.0" encoding="utf-8"?>
<!-- Generator: Avocode 2.5.4 - http://avocode.com -->
<svg height="35" width="35" xmlns:xlink="http://www.w3.org/1999/xlink" xmlns="http://www.w3.org/2000/svg" viewBox="0 0 35 35">
    <path stroke-linejoin="miter" stroke-linecap="butt" stroke-width="1" stroke="#1d1d1f" fill="none" fill-rule="evenodd" d="M 0 17.5 C 0 7.84 7.83 0 17.5 0 L 17.5 0 C 27.16 0 35 7.83 35 17.5 L 35 17.5 C 35 27.16 27.17 35 17.5 35 L 17.5 35 C 7.84 35 0 27.17 0 17.5 L 0 17.5 Z M 0 17.5" />
    <path fill="#000000" fill-rule="evenodd" d="M 22.03 11.73 L 14.08 22.01 L 13.05 22.48 L 13.29 21.4 L 21.29 11.15 L 20.48 10.52 L 12.48 20.76 L 12 23.82 L 14.84 22.61 L 22.85 12.37 L 22.03 11.73 Z M 22.86 9.11 C 22.46 8.79 21.46 9.28 21.46 9.28 L 20.84 10.07 L 23.21 11.91 L 23.82 11.12 C 23.82 11.12 24.05 10.04 23.65 9.72 L 22.86 9.11 Z M 22.86 9.11" />
</svg>