<?xml version="1.0" encoding="utf-8"?>
<!-- Generator: Avocode 2.5.4 - http://avocode.com -->
<svg height="32" width="30" xmlns:xlink="http://www.w3.org/1999/xlink" xmlns="http://www.w3.org/2000/svg" viewBox="0 0 30 32">
    <path fill="#000000" fill-rule="evenodd" d="M 10.73 18.72 L 14 14.77 L 14 27 C 14 27.55 14.45 28 15 28 C 15.55 28 16 27.55 16 27 L 16 14.73 L 19.3 18.72 C 19.69 19.11 20.33 19.11 20.72 18.72 C 21.11 18.32 21.11 17.69 20.72 17.29 L 15.78 11.31 C 15.57 11.1 15.29 11.02 15.02 11.03 C 14.74 11.02 14.47 11.1 14.26 11.31 L 9.31 17.29 C 8.92 17.69 8.92 18.32 9.31 18.72 C 9.71 19.11 10.34 19.11 10.73 18.72 L 10.73 18.72 Z M 28 6 L 2 6 L 2 4 C 2 2.9 2.9 2 4 2 L 26 2 C 27.1 2 28 2.9 28 4 L 28 6 L 28 6 Z M 28 28 C 28 29.1 27.1 30 26 30 L 4 30 C 2.9 30 2 29.1 2 28 L 2 8 L 28 8 L 28 28 L 28 28 Z M 26 0 L 4 0 C 1.79 0 0 1.79 0 4 L 0 28 C 0 30.21 1.79 32 4 32 L 26 32 C 28.21 32 30 30.21 30 28 L 30 4 C 30 1.79 28.21 0 26 0 L 26 0 Z M 26 0" />
</svg>