<?xml version="1.0" encoding="utf-8"?>
<!-- Generator: Avocode 2.5.4 - http://avocode.com -->
<svg height="32" width="32" xmlns:xlink="http://www.w3.org/1999/xlink" xmlns="http://www.w3.org/2000/svg" viewBox="0 0 32 32">
    <path fill="#000000" fill-rule="evenodd" d="M 9 4 C 8.45 4 8 4.45 8 5 C 8 5.55 8.45 6 9 6 C 9.55 6 10 5.55 10 5 C 10 4.45 9.55 4 9 4 L 9 4 Z M 13 4 C 12.45 4 12 4.45 12 5 C 12 5.55 12.45 6 13 6 C 13.55 6 14 5.55 14 5 C 14 4.45 13.55 4 13 4 L 13 4 Z M 30 8 L 2 8 L 2 4 C 2 2.9 2.9 2 4 2 L 28 2 C 29.1 2 30 2.9 30 4 L 30 8 L 30 8 Z M 30 28 C 30 29.1 29.1 30 28 30 L 4 30 C 2.9 30 2 29.1 2 28 L 2 10 L 30 10 L 30 28 L 30 28 Z M 28 0 L 4 0 C 1.79 0 0 1.79 0 4 L 0 28 C 0 30.21 1.79 32 4 32 L 28 32 C 30.21 32 32 30.21 32 28 L 32 4 C 32 1.79 30.21 0 28 0 L 28 0 Z M 5 4 C 4.45 4 4 4.45 4 5 C 4 5.55 4.45 6 5 6 C 5.55 6 6 5.55 6 5 C 6 4.45 5.55 4 5 4 L 5 4 Z M 5 4" />
    <path fill="#000000" fill-rule="evenodd" d="M 15.65 21.5 C 15.61 21.6 15.55 21.7 15.48 21.78 C 15.33 21.93 15.12 22 14.91 21.98 C 14.57 22.01 14.27 21.79 14.17 21.47 L 11.17 18.47 C 10.92 18.19 10.94 17.76 11.2 17.5 C 11.46 17.24 11.89 17.22 12.17 17.47 L 14.72 20.02 L 20.53 11.4 C 20.63 11.22 20.8 11.08 21 11.02 C 21.21 10.97 21.43 11 21.61 11.1 C 21.99 11.34 22.11 11.83 21.89 12.21 L 15.65 21.5 Z M 15.65 21.5" />
</svg>