<?xml version="1.0" encoding="UTF-8" standalone="no"?>
<svg width="26px" height="27px" viewBox="0 0 26 27" version="1.1" xmlns="http://www.w3.org/2000/svg" xmlns:xlink="http://www.w3.org/1999/xlink">
    <!-- Generator: Sketch 41.2 (35397) - http://www.bohemiancoding.com/sketch -->
    <title>scorecard</title>
    <desc>Created with Sketch.</desc>
    <defs></defs>
    <g id="Main-Screens" stroke="none" stroke-width="1" fill="none" fill-rule="evenodd" opacity="0.900000036">
        <g id="scorecard" fill="#000000">
            <path d="M6.54688525,22.9842027 L1.63672131,22.9842027 C1.48577923,22.9842027 1.36393443,22.8634196 1.36393443,22.7137928 L1.36393443,12.4382167 C1.36393443,12.2888904 1.48577923,12.1681073 1.63672131,12.1681073 L6.54688525,12.1681073 C6.69782732,12.1681073 6.81967213,12.2888904 6.81967213,12.4382167 L6.81967213,22.7137928 C6.81967213,22.8634196 6.69782732,22.9842027 6.54688525,22.9842027 L6.54688525,22.9842027 Z" id="Shape"></path>
            <path d="M14.7304918,22.9842027 L9.82032787,22.9842027 C9.66938579,22.9842027 9.54754098,22.8558742 9.54754098,22.6969001 L9.54754098,0.287302534 C9.54754098,0.12864769 9.66938579,1.77635684e-15 9.82032787,1.77635684e-15 L14.7304918,1.77635684e-15 C14.8814339,1.77635684e-15 15.0032787,0.12864769 15.0032787,0.287302534 L15.0032787,22.6969001 C15.0032787,22.8558742 14.8814339,22.9842027 14.7304918,22.9842027 L14.7304918,22.9842027 Z" id="Shape"></path>
            <path d="M24.2780328,22.9842027 L19.3678689,22.9842027 C19.2169268,22.9842027 19.095082,22.8634207 19.095082,22.7137953 L19.095082,7.03016655 C19.095082,6.88084158 19.2169268,6.76005961 19.3678689,6.76005961 L24.2780328,6.76005961 C24.4289749,6.76005961 24.5508197,6.88084158 24.5508197,7.03016655 L24.5508197,22.7137953 C24.5508197,22.8634207 24.4289749,22.9842027 24.2780328,22.9842027 L24.2780328,22.9842027 Z" id="Shape"></path>
            <path d="M0,26.6680375 L0,25.1219721 C0,24.9796768 0.116110935,24.8642946 0.259949855,24.8642946 L25.7350357,24.8642946 C25.8788746,24.8642946 25.9949855,24.9796768 25.9949855,25.1219721 L25.9949855,26.6680375 C25.9949855,26.8103328 25.8788746,26.9254288 25.7350357,26.9254288 L0.259949855,26.9254288 C0.116110935,26.9257151 0,26.8103328 0,26.6680375 L0,26.6680375 Z" id="Shape"></path>
        </g>
    </g>
</svg>