<?xml version="1.0" encoding="utf-8"?>
<!-- Generator: Avocode 2.5.4 - http://avocode.com -->
<svg height="16" width="16" xmlns:xlink="http://www.w3.org/1999/xlink" xmlns="http://www.w3.org/2000/svg" viewBox="0 0 16 16">
    <path fill="#000000" fill-rule="evenodd" d="M 15.94 5.97 C 15.8 5.55 15.45 5.25 15.02 5.19 L 10.85 4.55 L 9.05 0.67 C 8.86 0.26 8.45 0 8 0 C 7.55 0 7.14 0.26 6.95 0.67 L 5.15 4.55 L 0.98 5.18 C 0.55 5.25 0.2 5.55 0.06 5.97 C -0.08 6.38 0.03 6.83 0.33 7.14 L 3.38 10.29 L 2.67 14.65 C 2.6 15.09 2.78 15.53 3.14 15.79 C 3.51 16.04 3.99 16.07 4.37 15.85 L 8 13.84 L 11.63 15.85 C 11.8 15.95 11.99 16 12.19 16 C 12.53 16 12.85 15.85 13.07 15.59 C 13.29 15.33 13.38 14.98 13.33 14.65 L 12.62 10.29 L 15.67 7.14 C 15.97 6.83 16.08 6.38 15.94 5.97 L 15.94 5.97 Z M 11.69 9.44 C 11.44 9.7 11.33 10.06 11.39 10.42 L 12.07 14.67 L 8.55 12.7 C 8.21 12.52 7.79 12.52 7.45 12.7 L 3.93 14.67 L 4.61 10.42 C 4.67 10.06 4.56 9.7 4.31 9.44 L 1.34 6.38 L 5.39 5.75 C 5.76 5.69 6.08 5.45 6.24 5.11 L 8 1.33 L 9.76 5.11 C 9.92 5.45 10.24 5.69 10.61 5.75 L 14.66 6.38 L 11.69 9.44 Z M 11.69 9.44" />
</svg>