<?xml version="1.0" encoding="utf-8"?>
<!-- Generator: Avocode 2.5.4 - http://avocode.com -->
<svg height="32" width="32" xmlns:xlink="http://www.w3.org/1999/xlink" xmlns="http://www.w3.org/2000/svg" viewBox="0 0 32 32">
    <path stroke-linejoin="miter" stroke-linecap="butt" stroke-width="0.5" stroke="#ffffff" fill="#000000" fill-rule="evenodd" d="M 30.9 17.74 C 30.8 18.66 30.02 19.36 29.09 19.36 L 28.98 19.36 L 28.84 19.36 C 28.01 19.37 27.26 19.88 26.97 20.66 C 26.67 21.44 26.88 22.32 27.5 22.88 C 28.22 23.53 28.3 24.63 27.7 25.39 C 26.99 26.28 26.17 27.09 25.26 27.79 C 24.94 28.04 24.55 28.18 24.14 28.18 C 23.62 28.18 23.13 27.96 22.78 27.58 C 22.37 27.16 21.8 26.93 21.21 26.93 C 20.98 26.93 20.74 26.98 20.51 27.06 C 19.73 27.39 19.24 28.17 19.27 29.01 C 19.3 29.98 18.58 30.8 17.63 30.91 C 16.51 31.03 15.37 31.03 14.25 30.9 C 13.29 30.79 12.58 29.94 12.64 28.96 C 12.68 28.11 12.19 27.32 11.4 26.98 C 11.18 26.89 10.93 26.85 10.69 26.85 C 10.1 26.84 9.54 27.08 9.13 27.5 C 8.47 28.22 7.37 28.31 6.6 27.7 C 5.73 26.99 4.93 26.18 4.24 25.29 C 3.64 24.54 3.73 23.45 4.44 22.81 C 5.06 22.23 5.27 21.33 4.95 20.55 C 4.65 19.8 3.94 19.31 3.14 19.3 L 3.07 19.3 C 2.1 19.31 1.27 18.62 1.1 17.66 C 0.97 16.53 0.97 15.39 1.1 14.25 C 1.2 13.3 2.02 12.59 2.98 12.63 C 3.84 12.66 4.64 12.18 5.02 11.4 C 5.34 10.6 5.14 9.69 4.5 9.12 C 3.79 8.46 3.7 7.37 4.3 6.6 C 5.02 5.71 5.83 4.91 6.73 4.2 C 7.05 3.95 7.45 3.82 7.87 3.81 C 8.38 3.81 8.88 4.03 9.23 4.41 C 9.64 4.83 10.2 5.07 10.79 5.06 C 11.03 5.06 11.27 5.02 11.49 4.93 C 12.27 4.61 12.77 3.83 12.74 2.98 C 12.71 2.02 13.42 1.2 14.38 1.09 C 15.5 0.97 16.63 0.97 17.75 1.1 C 18.72 1.21 19.43 2.06 19.37 3.03 C 19.32 3.89 19.81 4.68 20.6 5.02 C 20.83 5.11 21.07 5.15 21.31 5.15 C 21.9 5.16 22.47 4.92 22.88 4.5 C 23.53 3.78 24.63 3.69 25.39 4.3 C 26.27 5.01 27.07 5.81 27.76 6.7 C 28.37 7.46 28.28 8.55 27.56 9.2 C 26.94 9.76 26.73 10.65 27.04 11.44 C 27.35 12.22 28.11 12.72 28.95 12.71 C 29.91 12.7 30.74 13.39 30.9 14.33 C 31.03 15.46 31.03 16.61 30.9 17.74 L 30.9 17.74 Z M 28.43 14.83 C 26.83 14.8 25.41 13.82 24.8 12.34 C 24.2 10.87 24.52 9.17 25.63 8.02 C 25.14 7.43 24.6 6.88 24 6.38 C 23.23 7.1 22.2 7.51 21.14 7.51 C 20.63 7.51 20.12 7.41 19.65 7.21 C 18.17 6.59 17.2 5.14 17.19 3.53 C 16.42 3.46 15.65 3.46 14.88 3.53 C 14.79 5.08 13.76 6.42 12.29 6.91 C 11.87 7.17 11.4 7.35 10.92 7.43 C 9.86 7.43 8.84 7.03 8.07 6.31 C 7.46 6.81 6.89 7.36 6.39 7.96 C 7.51 9.12 7.83 10.83 7.22 12.31 C 6.57 13.78 5.14 14.73 3.54 14.77 C 3.47 15.55 3.46 16.34 3.53 17.12 C 5.13 17.15 6.55 18.13 7.16 19.61 C 7.77 21.09 7.44 22.79 6.33 23.93 C 6.82 24.53 7.37 25.08 7.95 25.58 C 8.73 24.86 9.75 24.46 10.82 24.45 C 11.33 24.45 11.84 24.55 12.32 24.75 C 13.8 25.37 14.77 26.82 14.78 28.43 C 15.55 28.5 16.32 28.5 17.09 28.43 C 17.14 26.84 18.11 25.42 19.58 24.81 C 20.04 24.62 20.54 24.53 21.04 24.53 C 22.1 24.53 23.12 24.93 23.9 25.65 C 24.51 25.15 25.07 24.6 25.58 24 C 24.45 22.85 24.13 21.13 24.75 19.64 C 25.38 18.17 26.82 17.2 28.43 17.18 C 28.5 16.4 28.5 15.61 28.43 14.83 L 28.43 14.83 Z M 16 20.99 C 13.98 20.99 12.14 19.78 11.36 17.91 C 10.58 16.04 11 13.88 12.43 12.45 C 13.87 11.01 16.02 10.58 17.89 11.35 C 19.77 12.12 20.99 13.95 20.99 15.98 C 20.99 18.74 18.76 20.98 16 20.99 L 16 20.99 Z M 16 13.5 C 14.62 13.5 13.51 14.63 13.52 16 C 13.52 17.38 14.64 18.5 16.02 18.5 C 17.4 18.49 18.52 17.38 18.52 16 C 18.52 15.33 18.25 14.69 17.78 14.22 C 17.31 13.75 16.67 13.49 16 13.5 L 16 13.5 Z M 16 13.5" />
</svg>