<?xml version="1.0" encoding="UTF-8" standalone="no"?>
<svg width="20px" height="20px" viewBox="0 0 20 20" version="1.1" xmlns="http://www.w3.org/2000/svg" xmlns:xlink="http://www.w3.org/1999/xlink">
    <!-- Generator: Sketch 3.8.3 (29802) - http://www.bohemiancoding.com/sketch -->
    <title>Ad Tech</title>
    <desc>Created with Sketch.</desc>
    <defs></defs>
    <g id="Icons" stroke="none" stroke-width="1" fill="none" fill-rule="evenodd">
        <g id="Artboard-1" transform="translate(-1119.000000, -155.000000)" fill="#101010">
            <path d="M1138.16667,165.834012 L1132.21667,165.834012 C1131.84237,167.305018 1130.51788,168.33469 1129,168.33469 C1127.48212,168.33469 1126.15763,167.305018 1125.78333,165.834012 L1119.83333,165.834012 C1119.3731,165.834012 1119,165.460916 1119,165.000678 C1119,164.540441 1119.3731,164.167345 1119.83333,164.167345 L1125.78333,164.167345 C1126.15763,162.696339 1127.48212,161.666667 1129,161.666667 C1130.51788,161.666667 1131.84237,162.696339 1132.21667,164.167345 L1138.16667,164.167345 C1138.6269,164.167345 1139,164.540441 1139,165.000678 C1139,165.460916 1138.6269,165.834012 1138.16667,165.834012 L1138.16667,165.834012 Z M1129,163.334012 C1128.07953,163.334012 1127.33333,164.080204 1127.33333,165.000678 C1127.33333,165.921153 1128.07953,166.667345 1129,166.667345 C1129.92047,166.667345 1130.66667,165.921153 1130.66667,165.000678 C1130.66667,164.080204 1129.92047,163.334012 1129,163.334012 L1129,163.334012 Z M1138.16667,159.167345 L1137.21667,159.167345 C1136.84237,160.638351 1135.51788,161.668024 1134,161.668024 C1132.48212,161.668024 1131.15763,160.638351 1130.78333,159.167345 L1119.83333,159.167345 C1119.3731,159.167345 1119,158.794249 1119,158.334012 C1119,157.873775 1119.3731,157.500678 1119.83333,157.500678 L1130.78333,157.500678 C1131.15763,156.029672 1132.48212,155 1134,155 C1135.51788,155 1136.84237,156.029672 1137.21667,157.500678 L1138.16667,157.500678 C1138.6269,157.500678 1139,157.873775 1139,158.334012 C1139,158.794249 1138.6269,159.167345 1138.16667,159.167345 L1138.16667,159.167345 Z M1134,156.667345 C1133.07953,156.667345 1132.33333,157.413537 1132.33333,158.334012 C1132.33333,159.254486 1133.07953,160.000678 1134,160.000678 C1134.92047,160.000678 1135.66667,159.254486 1135.66667,158.334012 C1135.66667,157.413537 1134.92047,156.667345 1134,156.667345 L1134,156.667345 Z M1119.83333,170.834012 L1120.78333,170.834012 C1121.15763,169.363006 1122.48212,168.333333 1124,168.333333 C1125.51788,168.333333 1126.84237,169.363006 1127.21667,170.834012 L1138.16667,170.834012 C1138.6269,170.834012 1139,171.207108 1139,171.667345 C1139,172.127582 1138.6269,172.500678 1138.16667,172.500678 L1127.21667,172.500678 C1126.84237,173.971685 1125.51788,175.001357 1124,175.001357 C1122.48212,175.001357 1121.15763,173.971685 1120.78333,172.500678 L1119.83333,172.500678 C1119.3731,172.500678 1119,172.127582 1119,171.667345 C1119,171.207108 1119.3731,170.834012 1119.83333,170.834012 L1119.83333,170.834012 Z M1124,173.334012 C1124.92047,173.334012 1125.66667,172.58782 1125.66667,171.667345 C1125.66667,170.746871 1124.92047,170.000678 1124,170.000678 C1123.07953,170.000678 1122.33333,170.746871 1122.33333,171.667345 C1122.33333,172.58782 1123.07953,173.334012 1124,173.334012 L1124,173.334012 Z" id="Ad-Tech"></path>
        </g>
    </g>
</svg>