<?xml version="1.0" encoding="UTF-8" standalone="no"?>
<svg width="14px" height="20px" viewBox="0 0 14 20" version="1.1" xmlns="http://www.w3.org/2000/svg" xmlns:xlink="http://www.w3.org/1999/xlink">
    <!-- Generator: Sketch 3.8.3 (29802) - http://www.bohemiancoding.com/sketch -->
    <title>Alcohol</title>
    <desc>Created with Sketch.</desc>
    <defs></defs>
    <g id="Icons" stroke="none" stroke-width="1" fill="none" fill-rule="evenodd">
        <g id="Artboard-1" transform="translate(-130.000000, -156.000000)" fill="#000000">
            <path d="M137.483333,168.428333 C137.492798,168.451141 137.49843,168.475356 137.5,168.5 L137.5,174.333333 L140,174.333333 C140.460237,174.333333 140.833333,174.706429 140.833333,175.166667 C140.833333,175.626904 140.460237,176 140,176 L133.333333,176 C132.873096,176 132.5,175.626904 132.5,175.166667 C132.5,174.706429 132.873096,174.333333 133.333333,174.333333 L135.833333,174.333333 L135.833333,168.5 C135.834904,168.475356 135.840535,168.451141 135.85,168.428333 C132.191667,167.818333 130,163.194167 130,159.333333 L130,156 L143.333333,156 L143.333333,159.333333 C143.333333,163.194167 141.141667,167.818333 137.483333,168.428333 L137.483333,168.428333 Z M131.666667,157.666667 L131.666667,159.333333 C131.666667,162.555 133.441667,166.833333 136.666667,166.833333 C139.891667,166.833333 141.666667,162.555 141.666667,159.333333 L141.666667,157.666667 L131.666667,157.666667 L131.666667,157.666667 Z" id="Alcohol"></path>
        </g>
    </g>
</svg>