<?xml version="1.0" encoding="UTF-8" standalone="no"?>
<svg width="20px" height="20px" viewBox="0 0 20 20" version="1.1" xmlns="http://www.w3.org/2000/svg" xmlns:xlink="http://www.w3.org/1999/xlink">
    <!-- Generator: Sketch 3.8.3 (29802) - http://www.bohemiancoding.com/sketch -->
    <title>Alter</title>
    <desc>Created with Sketch.</desc>
    <defs></defs>
    <g id="Icons" stroke="none" stroke-width="1" fill="none" fill-rule="evenodd">
        <g id="Artboard-1" transform="translate(-1218.000000, -856.000000)" fill="#000000">
            <path d="M1228,868.5 C1229.37875,868.5 1230.5,867.378125 1230.5,866 C1230.5,864.621875 1229.37875,863.5 1228,863.5 C1226.62188,863.5 1225.5,864.621875 1225.5,866 C1225.5,867.378125 1226.62188,868.5 1228,868.5 L1228,868.5 Z M1228,864.75 C1228.68937,864.75 1229.25,865.3125 1229.25,866 C1229.25,866.6875 1228.68937,867.25 1228,867.25 C1227.31094,867.25 1226.75,866.6875 1226.75,866 C1226.75,865.3125 1227.31094,864.75 1228,864.75 L1228,864.75 Z M1219.25,864.75 L1221.125,864.75 C1221.39406,864.75 1221.63281,864.578125 1221.71844,864.321875 L1222.34344,862.446875 C1222.41781,862.221875 1222.35938,861.975 1222.19187,861.809375 L1220.75906,860.375 L1222.375,858.759375 L1223.80813,860.190625 C1223.97531,860.359375 1224.22312,860.41875 1224.44781,860.34375 L1226.32281,859.71875 C1226.57781,859.63125 1226.75,859.39375 1226.75,859.125 L1226.75,857.25 L1229.25,857.25 L1229.25,859.125 C1229.25,859.39375 1229.42219,859.63125 1229.6775,859.71875 L1231.5525,860.34375 C1231.7775,860.41875 1232.02469,860.359375 1232.19187,860.190625 L1233.625,858.759375 L1235.24125,860.375 L1233.80813,861.809375 C1233.64094,861.975 1233.58219,862.221875 1233.65719,862.446875 L1234.28219,864.321875 C1234.36719,864.578125 1234.60594,864.75 1234.875,864.75 L1236.75,864.75 L1236.75,867.25 L1234.875,867.25 C1234.60594,867.25 1234.36719,867.421875 1234.28219,867.678125 L1233.65719,869.553125 C1233.58219,869.778125 1233.64094,870.025 1233.80813,870.190625 L1235.24125,871.625 L1233.625,873.240625 L1232.19187,871.809375 C1232.02469,871.640625 1231.77688,871.58125 1231.5525,871.65625 L1229.6775,872.28125 C1229.42219,872.36875 1229.25,872.60625 1229.25,872.875 L1229.25,874.75 L1226.75,874.75 L1226.75,872.875 C1226.75,872.60625 1226.57781,872.36875 1226.32281,872.28125 L1224.44781,871.65625 C1224.22375,871.58125 1223.97563,871.640625 1223.80813,871.809375 L1222.375,873.240625 L1220.75906,871.625 L1222.19187,870.190625 C1222.35938,870.025 1222.41781,869.778125 1222.34344,869.553125 L1221.71844,867.678125 C1221.63281,867.421875 1221.39406,867.25 1221.125,867.25 L1219.25,867.25 L1219.25,864.75 L1219.25,864.75 Z M1218.625,868.5 L1220.67469,868.5 L1221.03531,869.58125 L1219.43313,871.184375 C1219.18906,871.428125 1219.18906,871.821875 1219.43313,872.065625 L1221.93313,874.565625 C1222.17719,874.809375 1222.57344,874.809375 1222.81687,874.565625 L1224.41906,872.965625 L1225.5,873.325 L1225.5,875.375 C1225.5,875.721875 1225.78031,876 1226.125,876 L1229.875,876 C1230.22031,876 1230.5,875.721875 1230.5,875.375 L1230.5,873.325 L1231.58156,872.965625 L1233.18313,874.565625 C1233.42719,874.809375 1233.82344,874.809375 1234.06687,874.565625 L1236.56687,872.065625 C1236.81094,871.821875 1236.81094,871.428125 1236.56687,871.184375 L1234.96531,869.58125 L1235.32531,868.5 L1237.375,868.5 C1237.72031,868.5 1238,868.221875 1238,867.875 L1238,864.125 C1238,863.78125 1237.72031,863.5 1237.375,863.5 L1235.32531,863.5 L1234.96531,862.41875 L1236.56687,860.815625 C1236.81094,860.571875 1236.81094,860.178125 1236.56687,859.934375 L1234.06687,857.434375 C1233.82344,857.190625 1233.42719,857.190625 1233.18313,857.434375 L1231.58156,859.034375 L1230.5,858.675 L1230.5,856.625 C1230.5,856.28125 1230.22031,856 1229.875,856 L1226.125,856 C1225.78031,856 1225.5,856.28125 1225.5,856.625 L1225.5,858.675 L1224.41906,859.034375 L1222.81687,857.434375 C1222.57344,857.190625 1222.17719,857.190625 1221.93313,857.434375 L1219.43313,859.934375 C1219.18906,860.178125 1219.18906,860.571875 1219.43313,860.815625 L1221.03531,862.41875 L1220.67469,863.5 L1218.625,863.5 C1218.28031,863.5 1218,863.78125 1218,864.125 L1218,867.875 C1218,868.221875 1218.28031,868.5 1218.625,868.5 L1218.625,868.5 Z" id="Alter"></path>
        </g>
    </g>
</svg>