<?xml version="1.0" encoding="UTF-8" standalone="no"?>
<svg width="20px" height="20px" viewBox="0 0 20 20" version="1.1" xmlns="http://www.w3.org/2000/svg" xmlns:xlink="http://www.w3.org/1999/xlink">
    <!-- Generator: Sketch 3.8.3 (29802) - http://www.bohemiancoding.com/sketch -->
    <title>Analytics</title>
    <desc>Created with Sketch.</desc>
    <defs></defs>
    <g id="Icons" stroke="none" stroke-width="1" fill="none" fill-rule="evenodd">
        <g id="Artboard-1" transform="translate(-1219.000000, -155.000000)" fill="#000000">
            <path d="M1229,175 C1223.47715,175 1219,170.522847 1219,165 C1219,159.477153 1223.47715,155 1229,155 C1234.52285,155 1239,159.477153 1239,165 C1239,170.522847 1234.52285,175 1229,175 L1229,175 Z M1220.66667,165 C1220.66611,169.440619 1224.14776,173.101619 1228.58281,173.323927 C1233.01786,173.546235 1236.84816,170.251749 1237.29167,165.833333 L1229,165.833333 C1228.53976,165.833333 1228.16667,165.460237 1228.16667,165 L1228.16667,165 L1228.16667,156.709167 C1223.90873,157.137106 1220.66704,160.720608 1220.66667,165 L1220.66667,165 Z M1229.83333,156.709167 L1229.83333,164.166667 L1237.29167,164.166667 C1236.89285,160.224676 1233.77537,157.107546 1229.83333,156.709167 L1229.83333,156.709167 Z" id="Analytics"></path>
        </g>
    </g>
</svg>