<?xml version="1.0" encoding="UTF-8" standalone="no"?>
<svg width="20px" height="19px" viewBox="0 0 20 19" version="1.1" xmlns="http://www.w3.org/2000/svg" xmlns:xlink="http://www.w3.org/1999/xlink">
    <!-- Generator: Sketch 3.8.3 (29802) - http://www.bohemiancoding.com/sketch -->
    <title>Artificial </title>
    <desc>Created with Sketch.</desc>
    <defs></defs>
    <g id="Icons" stroke="none" stroke-width="1" fill="none" fill-rule="evenodd">
        <g id="Artboard-1" transform="translate(-1321.000000, -155.000000)" fill="#000000">
            <path d="M1321.57188,165.648567 L1330.0575,169.462317 C1330.80687,169.816067 1331.13063,169.816067 1331.94313,169.462317 L1340.42812,165.648567 C1340.84687,165.452942 1341,164.534817 1341,164.040442 C1340.45438,164.313567 1339.68187,164.702942 1339.66687,164.706692 L1331,168.701692 L1322.33313,164.706692 C1322.36313,164.724817 1321.56625,164.364192 1321,164.040442 C1321,164.524192 1321.12125,165.409192 1321.57188,165.648567 L1321.57188,165.648567 Z M1331,172.697317 L1322.33313,168.701692 C1322.36313,168.720442 1321.56625,168.359817 1321,168.036067 C1321,168.519192 1321.12125,169.404192 1321.57188,169.643567 L1330.0575,173.457942 C1330.80687,173.811692 1331.13063,173.811692 1331.94313,173.457942 L1340.42812,169.643567 C1340.84687,169.448567 1341,168.530442 1341,168.036067 C1340.45438,168.308567 1339.68187,168.698567 1339.66687,168.701692 L1331,172.697317 L1331,172.697317 Z M1331,156.049192 L1339.66687,160.710442 L1331,164.362942 L1322.33313,160.710442 L1331,156.049192 L1331,156.049192 Z M1321.57188,161.652317 L1330.0575,165.467317 C1330.80687,165.820442 1331.13063,165.820442 1331.94313,165.467317 L1340.42812,161.652317 C1341.05312,161.361067 1341.07375,160.122942 1340.42812,159.768567 L1331.94313,155.288567 C1331.27625,154.893567 1330.80687,154.914192 1330.0575,155.288567 L1321.57188,159.768567 C1320.92625,160.184817 1320.90563,161.299192 1321.57188,161.652317 L1321.57188,161.652317 Z M1331,156.049192 C1331.0625,156.122317 1331.04625,156.064817 1331,156.049192 L1331,156.049192 Z" id="Artificial-"></path>
        </g>
    </g>
</svg>