<?xml version="1.0" encoding="utf-8"?>
<!-- Generator: Adobe Illustrator 16.0.0, SVG Export Plug-In . SVG Version: 6.00 Build 0)  -->
<!DOCTYPE svg PUBLIC "-//W3C//DTD SVG 1.1//EN" "http://www.w3.org/Graphics/SVG/1.1/DTD/svg11.dtd">
<svg version="1.1" id="Layer_1" xmlns="http://www.w3.org/2000/svg" xmlns:xlink="http://www.w3.org/1999/xlink" x="0px" y="0px"
	 width="20px" height="18.75px" viewBox="0 0 20 18.75" enable-background="new 0 0 20 18.75" xml:space="preserve">
<title>Art</title>
<desc>Created with Sketch.</desc>
<g id="Icons">
	<g id="Artboard-1" transform="translate(-229.000000, -159.000000)">
		<path id="Art" fill="#1D1D1B" d="M240.25,159c-7.5,0-11.25,7.5-11.25,12.5c0,1.25,2.5,3.75,3.75,0
			c0.559-1.678,3.75-1.25,3.75,1.25c0,2.795,1.25,5,3.75,5c7.5,0,8.75-6.25,8.75-10S247.75,159,240.25,159L240.25,159z M234,168.063
			c-0.861,0-1.563-0.701-1.563-1.563s0.701-1.563,1.563-1.563c0.862,0,1.563,0.701,1.563,1.563S234.862,168.063,234,168.063
			L234,168.063z M236.813,163.375c0-0.862,0.701-1.563,1.563-1.563c0.862,0,1.563,0.7,1.563,1.563c0,0.861-0.7,1.563-1.563,1.563
			C237.514,164.938,236.813,164.236,236.813,163.375L236.813,163.375z M240.875,174.313c-1.206,0-2.188-0.981-2.188-2.188
			s0.981-2.188,2.188-2.188s2.188,0.981,2.188,2.188S242.081,174.313,240.875,174.313L240.875,174.313z M244.625,170.563
			c-0.518,0-0.938-0.42-0.938-0.938s0.42-0.938,0.938-0.938s0.938,0.42,0.938,0.938S245.143,170.563,244.625,170.563
			L244.625,170.563z M243.375,166.813c-1.206,0-2.188-0.981-2.188-2.188s0.981-2.188,2.188-2.188s2.188,0.981,2.188,2.188
			S244.581,166.813,243.375,166.813L243.375,166.813z"/>
	</g>
</g>
</svg>
