<?xml version="1.0" encoding="UTF-8" standalone="no"?>
<svg width="20px" height="17px" viewBox="0 0 20 17" version="1.1" xmlns="http://www.w3.org/2000/svg" xmlns:xlink="http://www.w3.org/1999/xlink">
    <!-- Generator: Sketch 3.8.3 (29802) - http://www.bohemiancoding.com/sketch -->
    <title>Augmented </title>
    <desc>Created with Sketch.</desc>
    <defs></defs>
    <g id="Icons" stroke="none" stroke-width="1" fill="none" fill-rule="evenodd">
        <g id="Artboard-1" transform="translate(-1420.000000, -160.000000)" fill="#000000">
            <path d="M1438.56505,174.782383 C1438.62768,174.351274 1438.66416,173.866295 1438.72301,173.349171 C1438.7276,173.311661 1440,173.349171 1440,173.349171 L1440,172.849046 L1440,162.267233 L1438.50588,160 L1437.55022,160 L1439.17313,162.504793 L1439.17313,172.507293 C1439.17313,172.507293 1438.72551,172.515629 1438.72468,172.507293 C1438.52634,170.69655 1438.58985,169.276454 1436.86813,169.174787 C1436.86667,169.172838 1436.86521,169.170895 1436.86375,169.168959 C1436.64565,168.879442 1423.63931,169.168959 1423.32708,169.168959 C1421.39618,169.168959 1421.47328,170.627657 1421.26615,172.503126 C1421.26448,172.519797 1420.82562,172.503126 1420.82562,172.503126 L1420.82562,162.513128 L1422.37434,160 L1421.51329,160 L1420,162.279737 L1420,173.340835 C1420,173.340835 1421.26323,173.311661 1421.26615,173.340835 C1421.47495,175.216304 1421.39743,176.670834 1423.32708,176.670834 C1423.43732,176.670834 1437.14228,176.714454 1437.31003,176.670834 C1438.14446,176.453866 1438.50194,175.720684 1438.56505,174.782383 Z" id="Augmented-"></path>
        </g>
    </g>
</svg>