<?xml version="1.0" encoding="UTF-8" standalone="no"?>
<svg width="20px" height="20px" viewBox="0 0 20 20" version="1.1" xmlns="http://www.w3.org/2000/svg" xmlns:xlink="http://www.w3.org/1999/xlink">
    <!-- Generator: Sketch 3.8.3 (29802) - http://www.bohemiancoding.com/sketch -->
    <title>Big Data</title>
    <desc>Created with Sketch.</desc>
    <defs></defs>
    <g id="Icons" stroke="none" stroke-width="1" fill="none" fill-rule="evenodd">
        <g id="Artboard-1" transform="translate(-1519.000000, -156.000000)" fill="#000000">
            <path d="M1538.16667,176 L1519.83333,176 C1519.3731,176 1519,175.626904 1519,175.166667 L1519,156.833333 C1519,156.373096 1519.3731,156 1519.83333,156 C1520.29357,156 1520.66667,156.373096 1520.66667,156.833333 L1520.66667,174.333333 L1538.16667,174.333333 C1538.6269,174.333333 1539,174.706429 1539,175.166667 C1539,175.626904 1538.6269,176 1538.16667,176 L1538.16667,176 Z M1534,172.666667 C1533.53976,172.666667 1533.16667,172.293571 1533.16667,171.833333 L1533.16667,162.666667 C1533.16667,162.206429 1533.53976,161.833333 1534,161.833333 C1534.46024,161.833333 1534.83333,162.206429 1534.83333,162.666667 L1534.83333,171.833333 C1534.83333,172.293571 1534.46024,172.666667 1534,172.666667 L1534,172.666667 Z M1530.66667,172.666667 L1530.66667,172.666667 C1530.20643,172.666667 1529.83333,172.293571 1529.83333,171.833333 L1529.83333,166 C1529.83333,165.539763 1530.20643,165.166667 1530.66667,165.166667 L1530.66667,165.166667 C1531.1269,165.166667 1531.5,165.539763 1531.5,166 L1531.5,171.833333 C1531.5,172.293571 1531.1269,172.666667 1530.66667,172.666667 L1530.66667,172.666667 Z M1527.33333,172.666667 C1526.8731,172.666667 1526.5,172.293571 1526.5,171.833333 L1526.5,158.5 C1526.5,158.039763 1526.8731,157.666667 1527.33333,157.666667 C1527.79357,157.666667 1528.16667,158.039763 1528.16667,158.5 L1528.16667,171.833333 C1528.16667,172.293571 1527.79357,172.666667 1527.33333,172.666667 L1527.33333,172.666667 Z M1524,172.666667 C1523.53976,172.666667 1523.16667,172.293571 1523.16667,171.833333 L1523.16667,163.5 C1523.16667,163.039763 1523.53976,162.666667 1524,162.666667 C1524.46024,162.666667 1524.83333,163.039763 1524.83333,163.5 L1524.83333,171.833333 C1524.83333,172.293571 1524.46024,172.666667 1524,172.666667 L1524,172.666667 Z" id="Big-Data"></path>
        </g>
    </g>
</svg>