<?xml version="1.0" encoding="UTF-8" standalone="no"?>
<svg width="20px" height="20px" viewBox="0 0 20 20" version="1.1" xmlns="http://www.w3.org/2000/svg" xmlns:xlink="http://www.w3.org/1999/xlink">
    <!-- Generator: Sketch 3.8.3 (29802) - http://www.bohemiancoding.com/sketch -->
    <title>Biometrics</title>
    <desc>Created with Sketch.</desc>
    <defs></defs>
    <g id="Icons" stroke="none" stroke-width="1" fill="none" fill-rule="evenodd">
        <g id="Artboard-1" transform="translate(-1628.000000, -156.000000)" fill="#000000">
            <path d="M1648,172.666667 C1648,174.507616 1646.50762,176 1644.66667,176 C1642.82572,176 1641.33333,174.507616 1641.33333,172.666667 C1641.33333,170.825718 1642.82572,169.333333 1644.66667,169.333333 C1646.50762,169.333333 1648,170.825718 1648,172.666667 L1648,172.666667 Z M1644.66667,171 C1643.74619,171 1643,171.746192 1643,172.666667 C1643,173.587141 1643.74619,174.333333 1644.66667,174.333333 C1645.58714,174.333333 1646.33333,173.587141 1646.33333,172.666667 C1646.33333,171.746192 1645.58714,171 1644.66667,171 L1644.66667,171 Z M1643.83333,166 C1643.83333,162.778333 1641.225,157.666667 1638,157.666667 C1634.775,157.666667 1632.16667,162.778333 1632.16667,166 L1632.16667,169.333333 L1630.5,169.333333 L1630.5,166 C1630.5,161.8575 1633.85833,156 1638,156 C1642.14167,156 1645.5,161.8575 1645.5,166 L1645.5,169.333333 L1643.83333,169.333333 L1643.83333,166 L1643.83333,166 Z M1634.66667,172.666667 C1634.66667,174.507616 1633.17428,176 1631.33333,176 C1629.49238,176 1628,174.507616 1628,172.666667 C1628,170.825718 1629.49238,169.333333 1631.33333,169.333333 C1633.17428,169.333333 1634.66667,170.825718 1634.66667,172.666667 L1634.66667,172.666667 Z M1631.33333,171 C1630.41286,171 1629.66667,171.746192 1629.66667,172.666667 C1629.66667,173.587141 1630.41286,174.333333 1631.33333,174.333333 C1632.25381,174.333333 1633,173.587141 1633,172.666667 C1633,171.746192 1632.25381,171 1631.33333,171 L1631.33333,171 Z" id="Biometrics"></path>
        </g>
    </g>
</svg>