<?xml version="1.0" encoding="utf-8"?>
<!-- Generator: Avocode 2.5.4 - http://avocode.com -->
<svg height="15" width="20" xmlns:xlink="http://www.w3.org/1999/xlink" xmlns="http://www.w3.org/2000/svg" viewBox="0 0 20 15">
    <path fill="#000000" fill-rule="evenodd" d="M 12.5 15 L 5 15 C 2.24 15 0 12.76 0 10 C 0 7.24 2.24 5 5 5 C 5.14 5 5.28 5.03 5.42 5.04 C 6.67 1.43 10.43 -0.66 14.16 0.18 C 17.88 1.03 20.38 4.54 19.95 8.33 C 19.53 12.13 16.32 15 12.5 15 L 12.5 15 Z M 12.5 1.67 C 9.6 1.67 7.14 3.8 6.73 6.67 L 5 6.67 C 3.16 6.67 1.67 8.16 1.67 10 C 1.67 11.84 3.16 13.33 5 13.33 L 11.66 13.33 L 11.66 13.27 C 13.83 13.59 16 12.68 17.28 10.89 C 18.56 9.11 18.73 6.76 17.72 4.82 C 16.71 2.87 14.69 1.65 12.5 1.67 L 12.5 1.67 Z M 12.5 1.67" />
</svg>