<?xml version="1.0" encoding="utf-8"?>
<!-- Generator: Avocode 2.5.4 - http://avocode.com -->
<svg height="22" width="20" xmlns:xlink="http://www.w3.org/1999/xlink" xmlns="http://www.w3.org/2000/svg" viewBox="0 0 20 22">
    <path fill="#000000" fill-rule="evenodd" d="M 18.67 12.1 L 15.33 12.1 C 14.97 12.1 14.67 12.39 14.67 12.76 L 14.67 15.43 C 14.67 15.8 14.97 16.1 15.33 16.1 L 18.67 16.1 L 18.67 19.43 C 18.67 19.8 18.37 20.1 18 20.1 L 2 20.1 C 1.63 20.1 1.33 19.8 1.33 19.43 L 1.33 6.76 L 18 6.76 C 18.37 6.76 18.67 7.06 18.67 7.43 L 18.67 12.1 L 18.67 12.1 Z M 18.67 14.1 L 18.67 14.76 L 16 14.76 L 16 14.1 L 16 13.43 L 18.67 13.43 L 18.67 14.1 L 18.67 14.1 Z M 17.33 1.43 L 17.33 5.43 L 4.33 5.43 L 17.33 1.43 L 17.33 1.43 Z M 18.67 5.43 L 18.67 0.76 C 18.67 0.39 18.51 0.19 18.17 0.05 C 17.9 -0.05 17.65 0.01 17.33 0.1 L 0 5.43 L 0 20.1 C 0 20.83 0.6 21.43 1.33 21.43 L 18.67 21.43 C 19.4 21.43 20 20.83 20 20.1 L 20 6.76 C 20 6.03 19.4 5.43 18.67 5.43 L 18.67 5.43 Z M 18.67 5.43" />
</svg>