<?xml version="1.0" encoding="utf-8"?>
<!-- Generator: Avocode 2.5.4 - http://avocode.com -->
<svg height="20" width="16" xmlns:xlink="http://www.w3.org/1999/xlink" xmlns="http://www.w3.org/2000/svg" viewBox="0 0 16 20">
    <path fill="#000000" fill-rule="evenodd" d="M 15.71 7.14 L 15.71 18.57 C 15.71 19.36 15.07 20 14.29 20 L 1.43 20 C 0.64 20 0 19.36 0 18.57 L 0 2.14 C 0 1.35 0.64 0.71 1.43 0.71 L 10.67 0.71 C 10.89 0.69 11.11 0.77 11.26 0.92 L 15.49 5.14 C 15.63 5.29 15.71 5.5 15.69 5.71 L 15.71 5.71 L 15.71 7.14 L 10 7.14 C 9.61 7.14 9.29 6.82 9.29 6.43 L 9.29 2.14 L 1.43 2.14 L 1.43 18.57 L 14.29 18.57 L 14.29 7.14 L 15.71 7.14 L 15.71 7.14 Z M 10.71 2.48 L 10.71 5.71 L 13.94 5.71 L 10.71 2.48 Z M 10.71 2.48" />
</svg>