<?xml version="1.0" encoding="utf-8"?>
<!-- Generator: Avocode 2.5.4 - http://avocode.com -->
<svg height="17" width="20" xmlns:xlink="http://www.w3.org/1999/xlink" xmlns="http://www.w3.org/2000/svg" viewBox="0 0 20 17">
    <path fill="#000000" fill-rule="evenodd" d="M 1.25 12.5 C 1.25 7.67 5.17 3.75 10 3.75 C 14.83 3.75 18.75 7.67 18.75 12.5 L 1.25 12.5 L 1.25 12.5 Z M 10.63 2.5 L 10.63 1.25 L 11.88 1.25 C 12.22 1.25 12.5 0.97 12.5 0.63 C 12.5 0.28 12.22 0 11.88 0 L 8.13 0 C 7.78 0 7.5 0.28 7.5 0.63 C 7.5 0.97 7.78 1.25 8.13 1.25 L 9.38 1.25 C 9.38 1.25 9.37 2.55 9.38 2.5 C 4.14 2.82 0 7.19 0 12.5 L 0 13.13 C 0 13.47 0.28 13.75 0.63 13.75 L 19.38 13.75 C 19.72 13.75 20 13.47 20 13.13 L 20 12.5 C 20 7.19 15.86 2.82 10.63 2.5 L 10.63 2.5 Z M 19.38 15 L 0.63 15 C 0.28 15 0 15.28 0 15.63 C 0 15.97 0.28 16.25 0.63 16.25 L 19.38 16.25 C 19.72 16.25 20 15.97 20 15.63 C 20 15.28 19.72 15 19.38 15 L 19.38 15 Z M 19.38 15" />
</svg>