<?xml version="1.0" encoding="UTF-8" standalone="no"?>
<svg width="20px" height="23px" viewBox="0 0 20 23" version="1.1" xmlns="http://www.w3.org/2000/svg" xmlns:xlink="http://www.w3.org/1999/xlink">
    <!-- Generator: Sketch 3.8.3 (29802) - http://www.bohemiancoding.com/sketch -->
    <title>Cooking</title>
    <desc>Created with Sketch.</desc>
    <defs></defs>
    <g id="Icons" stroke="none" stroke-width="1" fill="none" fill-rule="evenodd">
        <g id="Artboard-1" transform="translate(-429.000000, -154.000000)" fill="#000000">
            <path d="M436.69209,165.161341 L448.545009,165.161341 L444.21377,176.521966 L433.856667,176.521966 L429.610634,165.161341 L429.875715,165.161341 C429.695838,165.14288 429.596433,165.131046 429.596433,165.131046 C429.596433,165.131046 429,164.392605 429,163.418432 C429,162.444731 429.279282,162.379881 429.596433,162.042849 C429.90885,161.705817 431.23899,161.387246 432.88628,161.571857 C434.533571,161.755993 437.728747,162.511948 440.947591,161.336597 C444.166434,160.161246 444.346311,158.448631 444.346311,158.448631 C444.346311,158.448631 445.572312,158.280589 446.343888,158.717026 C447.115463,159.153937 446.765177,161.336597 442.140456,163.720908 C440.559436,164.53556 438.594995,164.957796 436.69209,165.161341 L436.69209,165.161341 Z M439.077821,175.575247 L434.344227,175.575247 L430.945507,166.089599 L447.214869,166.089599 L443.579469,175.575247 L439.077821,175.575247 C439.338169,175.574774 439.551181,175.359395 439.551181,175.105675 L439.551181,166.577632 C439.551181,166.318231 439.342902,166.10806 439.077821,166.10806 C438.817474,166.10806 438.604462,166.323438 438.604462,166.577632 L438.604462,175.105675 C438.604462,175.364602 438.81274,175.574774 439.077821,175.575247 L439.077821,175.575247 Z M442.022117,166.143088 C441.761769,166.111373 441.525089,166.29977 441.496688,166.552071 L440.455297,175.01621 C440.422162,175.273717 440.606772,175.50803 440.86712,175.540219 C441.127467,175.571934 441.364147,175.383537 441.392549,175.131709 L442.433939,166.667097 C442.467074,166.409589 442.282464,166.175277 442.022117,166.143088 L442.022117,166.143088 Z M444.956945,166.248647 C444.701331,166.185217 444.445717,166.343319 444.38418,166.589939 L442.320333,174.864735 C442.258796,175.116089 442.410271,175.370756 442.665885,175.434659 C442.921499,175.49809 443.177113,175.339988 443.23865,175.093841 L445.302497,166.819045 C445.364034,166.567218 445.212559,166.312551 444.956945,166.248647 L444.956945,166.248647 Z M433.378574,166.22924 C433.12296,166.288409 432.966752,166.545917 433.023555,166.793484 L434.94066,175.103308 C435.002197,175.355608 435.253077,175.513237 435.508691,175.454067 C435.764306,175.394897 435.920514,175.13739 435.863711,174.889823 L433.946606,166.580472 C433.889802,166.327698 433.634188,166.17007 433.378574,166.22924 L433.378574,166.22924 Z M436.318136,166.134094 C436.057788,166.161076 435.868445,166.397755 435.896846,166.650529 L436.786762,175.132183 C436.815163,175.390164 437.042376,175.577141 437.307457,175.549212 C437.567805,175.522231 437.752415,175.285551 437.728747,175.033251 L436.834098,166.551597 C436.81043,166.293616 436.578484,166.106639 436.318136,166.134094 L436.318136,166.134094 Z M447.016058,161.075303 C447.016058,161.075303 446.594768,162.257754 444.166434,163.665052 C441.733367,165.072349 440.909722,165.146193 440.909722,165.146193 L448.488206,165.146193 C448.488206,165.146193 449.236113,163.021756 448.923696,162.063204 C448.611279,161.105124 447.016058,161.075303 447.016058,161.075303 L447.016058,161.075303 Z M440.947591,158.290529 C439.513312,159.264703 435.877912,158.636555 435.002197,158.454312 C434.060212,158.257394 433.979741,158.290529 433.979741,158.290529 C433.979741,158.290529 432.247245,158.156095 432.247245,159.058792 C432.247245,159.961015 433.373841,160.499224 433.373841,160.499224 C433.373841,160.499224 438.320446,161.454937 440.947591,160.244084 C443.579469,159.03323 443.797214,157.091983 443.432727,156.453895 C443.068241,155.815807 441.936912,155.81202 441.936912,155.81202 C441.936912,155.81202 442.386603,157.316829 440.947591,158.290529 L440.947591,158.290529 Z M439.465976,155.935093 C438.287311,156.445848 436.308669,155.735335 435.660166,156.112603 C435.016398,156.48987 435.357216,157.548302 435.357216,157.548302 C435.357216,157.548302 437.941759,158.093612 439.465976,157.765574 C440.985459,157.437536 440.990193,156.640399 440.990193,155.935093 C440.990193,155.551672 440.852919,155.128962 440.441096,154.717139 C440.095544,154.371587 439.465976,154 439.465976,154 C439.465976,154 440.644641,155.424812 439.465976,155.935093 L439.465976,155.935093 Z" id="Cooking"></path>
        </g>
    </g>
</svg>