<?xml version="1.0" encoding="UTF-8" standalone="no"?>
<svg width="20px" height="20px" viewBox="0 0 20 20" version="1.1" xmlns="http://www.w3.org/2000/svg" xmlns:xlink="http://www.w3.org/1999/xlink">
    <!-- Generator: Sketch 3.8.3 (29802) - http://www.bohemiancoding.com/sketch -->
    <title>CPG</title>
    <desc>Created with Sketch.</desc>
    <defs></defs>
    <g id="Icons" stroke="none" stroke-width="1" fill="none" fill-rule="evenodd">
        <g id="Artboard-1" transform="translate(-533.000000, -156.000000)" fill="#000000">
            <path d="M551.333333,161 L551.333333,161 L551.333333,174.333333 C551.333333,175.253808 550.587141,176 549.666667,176 L536.333333,176 C535.412859,176 534.666667,175.253808 534.666667,174.333333 L534.666667,161 C533.746192,161 533,160.253808 533,159.333333 L533,157.666667 C533,156.746192 533.746192,156 534.666667,156 L551.333333,156 C552.253808,156 553,156.746192 553,157.666667 L553,159.333333 C553,160.253808 552.253808,161 551.333333,161 L551.333333,161 Z M536.333333,174.333333 L549.666667,174.333333 L549.666667,161 L536.333333,161 L536.333333,174.333333 L536.333333,174.333333 Z M551.333333,157.666667 L534.666667,157.666667 L534.666667,159.333333 L551.333333,159.333333 L551.333333,157.666667 L551.333333,157.666667 Z M544.666667,167.666667 L541.333333,167.666667 C539.952621,167.666667 538.833333,166.547379 538.833333,165.166667 C538.833333,163.785955 539.952621,162.666667 541.333333,162.666667 L544.666667,162.666667 C546.047379,162.666667 547.166667,163.785955 547.166667,165.166667 C547.166667,166.547379 546.047379,167.666667 544.666667,167.666667 L544.666667,167.666667 Z M544.666667,164.333333 L541.333333,164.333333 C540.873096,164.333333 540.5,164.706429 540.5,165.166667 C540.5,165.626904 540.873096,166 541.333333,166 L544.666667,166 C545.126904,166 545.5,165.626904 545.5,165.166667 C545.5,164.706429 545.126904,164.333333 544.666667,164.333333 L544.666667,164.333333 Z" id="CPG"></path>
        </g>
    </g>
</svg>