<?xml version="1.0" encoding="utf-8"?>
<!-- Generator: Avocode 2.5.4 - http://avocode.com -->
<svg height="19" width="20" xmlns:xlink="http://www.w3.org/1999/xlink" xmlns="http://www.w3.org/2000/svg" viewBox="0 0 20 19">
    <path fill="#000000" fill-rule="evenodd" d="M 18.33 18.33 L 1.67 18.33 C 0.75 18.33 0 17.59 0 16.67 L 0 16.67 L 0 15.83 L 0 15.83 L 0 1.67 C 0 0.75 0.75 0 1.67 0 L 8.33 0 C 9.25 0 10 0.75 10 1.67 L 18.33 1.67 C 19.25 1.67 20 2.41 20 3.33 L 20 16.67 C 20 17.59 19.25 18.33 18.33 18.33 L 18.33 18.33 Z M 18.33 3.33 L 8.33 3.33 L 8.33 1.67 L 1.67 1.67 L 1.67 5 L 18.33 5 L 18.33 3.33 L 18.33 3.33 Z M 18.33 6.67 L 1.67 6.67 L 1.67 15.83 L 1.67 15.83 L 1.67 16.67 L 18.33 16.67 L 18.33 15.83 L 18.33 15.83 L 18.33 6.67 L 18.33 6.67 Z M 18.33 6.67" />
</svg>