<?xml version="1.0" encoding="UTF-8" standalone="no"?>
<svg width="20px" height="17px" viewBox="0 0 20 17" version="1.1" xmlns="http://www.w3.org/2000/svg" xmlns:xlink="http://www.w3.org/1999/xlink">
    <!-- Generator: Sketch 3.8.3 (29802) - http://www.bohemiancoding.com/sketch -->
    <title>Dating</title>
    <desc>Created with Sketch.</desc>
    <defs></defs>
    <g id="Icons" stroke="none" stroke-width="1" fill="none" fill-rule="evenodd">
        <g id="Artboard-1" transform="translate(-629.000000, -156.000000)" fill="#182A34">
            <path d="M639,172.666667 C636.008333,172.666667 629,165.241667 629,162.25 C629,159.258333 631.425,156 634.416667,156 C636.358333,156 639,158.5575 639,158.5575 C639,158.5575 642.441667,156 643.583333,156 C646.575,156 649,159.258333 649,162.25 C649,165.241667 641.991667,172.666667 639,172.666667 Z M630.780029,162.875 C630.780029,159.677246 632.302246,158 635.225,158 C636.7395,158 638.8,159.99485 638.8,159.99485 C638.8,159.99485 641.4845,158 642.375,158 C645.935059,158 647.041503,159.563232 647.041504,162.875 C647.041504,166.186768 641.1335,171 638.8,171 C636.4665,171 630.780029,166.072754 630.780029,162.875 Z" id="Dating"></path>
        </g>
    </g>
</svg>