<?xml version="1.0" encoding="UTF-8" standalone="no"?>
<svg width="21px" height="12px" viewBox="0 0 21 12" version="1.1" xmlns="http://www.w3.org/2000/svg" xmlns:xlink="http://www.w3.org/1999/xlink">
    <!-- Generator: Sketch 3.8.3 (29802) - http://www.bohemiancoding.com/sketch -->
    <title></title>
    <desc>Created with Sketch.</desc>
    <defs></defs>
    <g id="Icons" stroke="none" stroke-width="1" fill="none" fill-rule="evenodd">
        <g id="Artboard-1" transform="translate(-528.000000, -1061.000000)" fill="#000000">
            <path d="M534.945312,1069.16665 C534.671875,1070.49738 533.496094,1071.49999 532.083333,1071.49999 C530.479167,1071.49999 529.166667,1070.18749 529.166667,1068.58332 C529.166667,1066.97915 530.479167,1065.66665 532.083333,1065.66665 C532.529948,1065.66665 532.949219,1065.76692 533.332031,1065.94921 L531.61849,1068.23697 C531.326823,1068.61978 531.60026,1069.16665 532.083333,1069.16665 L534.945312,1069.16665 Z M533.25,1067.99999 L534.261719,1066.65103 C534.598958,1067.02473 534.835938,1067.48957 534.945312,1067.99999 L533.25,1067.99999 Z M537.625,1067.99999 L536.121094,1067.99999 C535.99349,1067.10676 535.583333,1066.30468 534.972656,1065.70311 L535.875,1064.49999 L540.25,1064.49999 L537.625,1067.99999 Z M547.833333,1068.58332 C547.833333,1070.18749 546.520833,1071.49999 544.916667,1071.49999 C543.3125,1071.49999 542,1070.18749 542,1068.58332 C542,1067.78124 542.328125,1067.06119 542.847656,1066.53254 L544.433594,1068.90233 C544.542969,1069.07551 544.72526,1069.16665 544.916667,1069.16665 C545.026042,1069.16665 545.144531,1069.13931 545.244792,1069.06639 C545.509115,1068.89322 545.582031,1068.52863 545.39974,1068.2552 L543.813802,1065.8854 C544.160156,1065.74869 544.52474,1065.66665 544.916667,1065.66665 C546.520833,1065.66665 547.833333,1066.97915 547.833333,1068.58332 L547.833333,1068.58332 Z M549,1068.58332 C549,1066.33202 547.167969,1064.49999 544.916667,1064.49999 C544.28776,1064.49999 543.695312,1064.64582 543.166667,1064.90103 L540.733073,1061.2552 C540.623698,1061.10025 540.441406,1060.99999 540.25,1060.99999 L537.916667,1060.99999 C537.597656,1060.99999 537.333333,1061.26431 537.333333,1061.58332 C537.333333,1061.90233 537.597656,1062.16665 537.916667,1062.16665 L539.940104,1062.16665 L540.714844,1063.33332 L536.75,1063.33332 L536.75,1062.16665 L533.25,1062.16665 C532.93099,1062.16665 532.666667,1062.43098 532.666667,1062.74999 C532.666667,1063.069 532.93099,1063.33332 533.25,1063.33332 L535.291667,1063.33332 L534.042969,1065.00129 C533.459635,1064.68228 532.794271,1064.49999 532.083333,1064.49999 C529.832031,1064.49999 528,1066.33202 528,1068.58332 C528,1070.83462 529.832031,1072.66665 532.083333,1072.66665 C534.143229,1072.66665 535.838542,1071.14452 536.121094,1069.16665 L537.916667,1069.16665 C538.098958,1069.16665 538.272135,1069.08462 538.38151,1068.92968 L541.598958,1064.65494 L542.191406,1065.54817 C541.361979,1066.29556 540.833333,1067.3802 540.833333,1068.58332 C540.833333,1070.83462 542.665365,1072.66665 544.916667,1072.66665 C547.167969,1072.66665 549,1070.83462 549,1068.58332 L549,1068.58332 Z" id=""></path>
        </g>
    </g>
</svg>