<?xml version="1.0" encoding="utf-8"?>
<!-- Generator: Avocode 2.5.4 - http://avocode.com -->
<svg height="19" width="20" xmlns:xlink="http://www.w3.org/1999/xlink" xmlns="http://www.w3.org/2000/svg" viewBox="0 0 20 19">
    <path fill="#000000" fill-rule="evenodd" d="M 15 16.25 C 14.31 16.25 13.75 16.81 13.75 17.5 C 13.75 18.19 14.31 18.75 15 18.75 C 15.69 18.75 16.25 18.19 16.25 17.5 C 16.25 16.81 15.69 16.25 15 16.25 L 15 16.25 Z M 8.75 16.25 C 8.06 16.25 7.5 16.81 7.5 17.5 C 7.5 18.19 8.06 18.75 8.75 18.75 C 9.44 18.75 10 18.19 10 17.5 C 10 16.81 9.44 16.25 8.75 16.25 L 8.75 16.25 Z M 16.88 12.5 C 16.88 13.19 16.32 13.75 15.63 13.75 L 8.75 13.75 C 8.06 13.75 7.5 13.19 7.5 12.5 L 6.46 6.25 L 18.44 6.25 L 16.88 12.5 L 16.88 12.5 Z M 6.23 5 L 4.67 0 L 0.63 0 C 0.28 0 0 0.28 0 0.63 C 0 0.97 0.28 1.25 0.63 1.25 L 3.75 1.25 L 5.01 5 L 5 5 L 6.25 12.5 C 6.25 13.88 7.37 15 8.75 15 L 15.63 15 C 17.01 15 18.13 13.88 18.13 12.5 L 20 5 L 6.23 5 L 6.23 5 Z M 6.23 5" />
</svg>