<?xml version="1.0" encoding="UTF-8" standalone="no"?>
<svg width="20px" height="18px" viewBox="0 0 20 18" version="1.1" xmlns="http://www.w3.org/2000/svg" xmlns:xlink="http://www.w3.org/1999/xlink">
    <!-- Generator: Sketch 3.8.3 (29802) - http://www.bohemiancoding.com/sketch -->
    <title>Engaged</title>
    <desc>Created with Sketch.</desc>
    <defs></defs>
    <g id="Icons" stroke="none" stroke-width="1" fill="none" fill-rule="evenodd">
        <g id="Artboard-1" transform="translate(-532.000000, -859.000000)" fill="#000000">
            <path d="M539.630469,859.681481 L540.030839,859.681481 L539.213062,862.407407 L537.449728,862.407407 L539.630469,859.681481 Z M551.9996,876.6 C551.9996,871.088 547.5136,866.6 541.9996,866.6 C536.4856,866.6 532,871.088 532,876.6 L551.9996,876.6 Z M533.6,876.6 C533.6,871.968 537.368,868.2 541.9996,868.2 C546.6316,868.2 550.3996,871.968 550.3996,876.6 M548.7996,876.6 C548.7996,872.852 545.7492,869.8 541.9996,869.8 C538.25,869.8 535.2,872.852 535.2,876.6 M536.8,876.6 C536.8,873.732 539.1324,871.4 541.9996,871.4 C544.8672,871.4 547.1996,873.732 547.1996,876.6 L536.8,876.6 Z M541.511017,862.407407 L539.924528,862.407407 L540.742306,859.681481 L541.511017,859.681481 L541.511017,862.407407 Z M542.96121,859.681481 L543.778987,862.407407 L542.192499,862.407407 L542.192499,859.681481 L542.96121,859.681481 Z M544.444113,863.088889 L546.14015,863.088889 L542.617402,866.612148 L544.444113,863.088889 Z M542.192499,863.088889 L543.676424,863.088889 L542.192499,865.951111 L542.192499,863.088889 Z M540.027091,863.088889 L541.511017,863.088889 L541.511017,865.951111 L540.027091,863.088889 Z M539.259402,863.088889 L541.086113,866.612148 L537.563365,863.088889 L539.259402,863.088889 Z M546.253787,862.407407 L544.490454,862.407407 L543.672676,859.681481 L544.073217,859.681481 L546.253787,862.407407 L546.253787,862.407407 Z M544.502891,859.127778 C544.438321,859.047704 544.340358,859 544.236943,859 L539.466573,859 C539.363158,859 539.265195,859.047704 539.200624,859.127778 L536.474699,862.535185 C536.366173,862.671481 536.377076,862.865704 536.499743,862.98837 L541.610854,868.099481 C541.677299,868.165926 541.764528,868.2 541.851758,868.2 C541.938987,868.2 542.026217,868.165926 542.092662,868.099481 L547.203773,862.98837 C547.32661,862.865704 547.337343,862.671481 547.228817,862.535185 L544.502891,859.127778 L544.502891,859.127778 Z" id="Engaged"></path>
        </g>
    </g>
</svg>