<?xml version="1.0" encoding="UTF-8" standalone="no"?>
<svg width="20px" height="20px" viewBox="0 0 20 20" version="1.1" xmlns="http://www.w3.org/2000/svg" xmlns:xlink="http://www.w3.org/1999/xlink">
    <!-- Generator: Sketch 3.8.3 (29802) - http://www.bohemiancoding.com/sketch -->
    <title>Enterprise</title>
    <desc>Created with Sketch.</desc>
    <defs></defs>
    <g id="Icons" stroke="none" stroke-width="1" fill="none" fill-rule="evenodd">
        <g id="Artboard-1" transform="translate(-129.000000, -256.000000)" fill="#000000">
            <path d="M146.265164,265.526607 C144.731862,267.056575 142.426905,267.312015 140.610818,266.335609 L132.707539,274.224216 C132.17265,274.757771 131.305623,274.757771 130.770068,274.224216 C130.235846,273.689995 130.235846,272.825636 130.770068,272.291414 L138.674681,264.402807 C137.697609,262.591389 137.953716,260.292435 139.486352,258.762467 C140.4054,257.84542 141.604564,257.409239 142.808397,257.394566 C141.547207,258.733788 141.56388,260.835994 142.875758,262.145204 C144.186969,263.453747 146.293176,263.47042 147.635066,262.211898 C147.620394,263.413063 147.184213,264.60956 146.265164,265.526607 L146.265164,265.526607 Z M148.449404,259.583474 C148.111931,259.962298 147.551698,260.444498 146.748698,261.178803 C145.898346,262.027155 144.694513,262.027155 143.84416,261.178803 C142.99314,260.329117 142.99314,259.128619 143.84416,258.2796 C144.627818,257.497275 145.470168,256.570891 145.456829,256.566889 C143.179217,255.517787 140.394728,255.923289 138.51795,257.796066 C136.80724,259.502774 136.319704,261.961128 137.039336,264.102683 L129.802333,271.32568 C128.732556,272.39279 128.732556,274.123508 129.802333,275.190617 C130.87211,276.257727 132.606163,276.257727 133.67594,275.190617 L140.912277,267.968287 C143.059834,268.687919 145.522856,268.199716 147.233566,266.493008 C149.107677,264.622232 149.497172,261.854417 148.449404,259.583474 L148.449404,259.583474 Z" id="Enterprise"></path>
        </g>
    </g>
</svg>