<?xml version="1.0" encoding="UTF-8" standalone="no"?>
<svg width="20px" height="20px" viewBox="0 0 20 20" version="1.1" xmlns="http://www.w3.org/2000/svg" xmlns:xlink="http://www.w3.org/1999/xlink">
    <!-- Generator: Sketch 3.8.3 (29802) - http://www.bohemiancoding.com/sketch -->
    <title>Enterprise</title>
    <desc>Created with Sketch.</desc>
    <defs></defs>
    <g id="Icons" stroke="none" stroke-width="1" fill="none" fill-rule="evenodd">
        <g id="Artboard-1" transform="translate(-130.000000, -1057.000000)" fill="#000000">
            <path d="M140,1069.5 C141.37875,1069.5 142.5,1068.37812 142.5,1067 C142.5,1065.62188 141.37875,1064.5 140,1064.5 C138.621875,1064.5 137.5,1065.62188 137.5,1067 C137.5,1068.37812 138.621875,1069.5 140,1069.5 L140,1069.5 Z M140,1065.75 C140.689375,1065.75 141.25,1066.3125 141.25,1067 C141.25,1067.6875 140.689375,1068.25 140,1068.25 C139.310937,1068.25 138.75,1067.6875 138.75,1067 C138.75,1066.3125 139.310937,1065.75 140,1065.75 L140,1065.75 Z M131.25,1065.75 L133.125,1065.75 C133.394063,1065.75 133.632812,1065.57812 133.718437,1065.32188 L134.343437,1063.44688 C134.417812,1063.22187 134.359375,1062.975 134.191875,1062.80938 L132.759062,1061.375 L134.375,1059.75938 L135.808125,1061.19062 C135.975313,1061.35938 136.223125,1061.41875 136.447812,1061.34375 L138.322812,1060.71875 C138.577812,1060.63125 138.75,1060.39375 138.75,1060.125 L138.75,1058.25 L141.25,1058.25 L141.25,1060.125 C141.25,1060.39375 141.422188,1060.63125 141.6775,1060.71875 L143.5525,1061.34375 C143.7775,1061.41875 144.024687,1061.35938 144.191875,1061.19062 L145.625,1059.75938 L147.24125,1061.375 L145.808125,1062.80938 C145.640938,1062.975 145.582188,1063.22187 145.657187,1063.44688 L146.282187,1065.32188 C146.367188,1065.57812 146.605938,1065.75 146.875,1065.75 L148.75,1065.75 L148.75,1068.25 L146.875,1068.25 C146.605938,1068.25 146.367188,1068.42188 146.282187,1068.67812 L145.657187,1070.55312 C145.582188,1070.77813 145.640938,1071.025 145.808125,1071.19062 L147.24125,1072.625 L145.625,1074.24062 L144.191875,1072.80938 C144.024687,1072.64062 143.776875,1072.58125 143.5525,1072.65625 L141.6775,1073.28125 C141.422188,1073.36875 141.25,1073.60625 141.25,1073.875 L141.25,1075.75 L138.75,1075.75 L138.75,1073.875 C138.75,1073.60625 138.577812,1073.36875 138.322812,1073.28125 L136.447812,1072.65625 C136.22375,1072.58125 135.975625,1072.64062 135.808125,1072.80938 L134.375,1074.24062 L132.759062,1072.625 L134.191875,1071.19062 C134.359375,1071.025 134.417812,1070.77813 134.343437,1070.55312 L133.718437,1068.67812 C133.632812,1068.42188 133.394063,1068.25 133.125,1068.25 L131.25,1068.25 L131.25,1065.75 L131.25,1065.75 Z M130.625,1069.5 L132.674688,1069.5 L133.035313,1070.58125 L131.433125,1072.18438 C131.189063,1072.42812 131.189063,1072.82188 131.433125,1073.06562 L133.933125,1075.56562 C134.177188,1075.80938 134.573438,1075.80938 134.816875,1075.56562 L136.419063,1073.96563 L137.5,1074.325 L137.5,1076.375 C137.5,1076.72187 137.780313,1077 138.125,1077 L141.875,1077 C142.220313,1077 142.5,1076.72187 142.5,1076.375 L142.5,1074.325 L143.581563,1073.96563 L145.183125,1075.56562 C145.427188,1075.80938 145.823438,1075.80938 146.066875,1075.56562 L148.566875,1073.06562 C148.810938,1072.82188 148.810938,1072.42812 148.566875,1072.18438 L146.965313,1070.58125 L147.325312,1069.5 L149.375,1069.5 C149.720313,1069.5 150,1069.22187 150,1068.875 L150,1065.125 C150,1064.78125 149.720313,1064.5 149.375,1064.5 L147.325312,1064.5 L146.965313,1063.41875 L148.566875,1061.81562 C148.810938,1061.57188 148.810938,1061.17812 148.566875,1060.93438 L146.066875,1058.43438 C145.823438,1058.19062 145.427188,1058.19062 145.183125,1058.43438 L143.581563,1060.03437 L142.5,1059.675 L142.5,1057.625 C142.5,1057.28125 142.220313,1057 141.875,1057 L138.125,1057 C137.780313,1057 137.5,1057.28125 137.5,1057.625 L137.5,1059.675 L136.419063,1060.03437 L134.816875,1058.43438 C134.573438,1058.19062 134.177188,1058.19062 133.933125,1058.43438 L131.433125,1060.93438 C131.189063,1061.17812 131.189063,1061.57188 131.433125,1061.81562 L133.035313,1063.41875 L132.674688,1064.5 L130.625,1064.5 C130.280313,1064.5 130,1064.78125 130,1065.125 L130,1068.875 C130,1069.22187 130.280313,1069.5 130.625,1069.5 L130.625,1069.5 Z" id="Enterprise"></path>
        </g>
    </g>
</svg>