<?xml version="1.0" encoding="UTF-8" standalone="no"?>
<svg width="20px" height="20px" viewBox="0 0 20 20" version="1.1" xmlns="http://www.w3.org/2000/svg" xmlns:xlink="http://www.w3.org/1999/xlink">
    <!-- Generator: Sketch 3.8.3 (29802) - http://www.bohemiancoding.com/sketch -->
    <title>Entertaiment</title>
    <desc>Created with Sketch.</desc>
    <defs></defs>
    <g id="Icons" stroke="none" stroke-width="1" fill="none" fill-rule="evenodd">
        <g id="Artboard-1" transform="translate(-230.000000, -256.000000)" fill="#000000">
            <path d="M249.128607,263.159189 C248.963715,262.665883 248.538242,262.305156 248.024607,262.223189 L243.024607,261.456789 L240.856607,256.801589 C240.629611,256.312733 240.139593,256 239.600607,256 C239.06162,256 238.571602,256.312733 238.344607,256.801589 L236.176607,261.455189 L231.176607,262.221589 C230.662347,262.303954 230.236545,262.665435 230.071799,263.159506 C229.907053,263.653576 230.030695,264.198267 230.392607,264.572789 L234.056607,268.345589 L233.208607,273.579989 C233.118671,274.105767 233.338355,274.636514 233.773574,274.944922 C234.208792,275.253329 234.782351,275.284697 235.248607,275.025589 L239.600607,272.604789 L243.952607,275.025589 C244.158825,275.13818 244.389662,275.198088 244.624607,275.199989 C245.033015,275.199294 245.420439,275.018971 245.683937,274.706934 C245.947434,274.394898 246.060323,273.982745 245.992607,273.579989 L245.144607,268.345589 L248.808607,264.572789 C249.170686,264.198212 249.294065,263.653186 249.128607,263.159189 L249.128607,263.159189 Z M244.032607,267.331989 C243.729157,267.639434 243.5922,268.074123 243.664607,268.499989 L244.488607,273.606389 L240.256607,271.246389 C239.848778,271.019204 239.352436,271.019204 238.944607,271.246389 L234.712607,273.606389 L235.536607,268.499989 C235.609013,268.074123 235.472056,267.639434 235.168607,267.331989 L231.608607,263.651989 L236.472607,262.903189 C236.917284,262.831714 237.297735,262.544728 237.488607,262.136789 L239.600607,257.597589 L241.712607,262.137589 C241.903683,262.545219 242.284099,262.831879 242.728607,262.903189 L247.592607,263.652789 L244.032607,267.331989 Z" id="Entertaiment"></path>
        </g>
    </g>
</svg>