<?xml version="1.0" encoding="UTF-8" standalone="no"?>
<svg width="15px" height="20px" viewBox="0 0 15 20" version="1.1" xmlns="http://www.w3.org/2000/svg" xmlns:xlink="http://www.w3.org/1999/xlink">
    <!-- Generator: Sketch 3.8.3 (29802) - http://www.bohemiancoding.com/sketch -->
    <title>Evenrs</title>
    <desc>Created with Sketch.</desc>
    <defs></defs>
    <g id="Icons" stroke="none" stroke-width="1" fill="none" fill-rule="evenodd">
        <g id="Artboard-1" transform="translate(-332.000000, -256.000000)" fill="#000000">
            <path d="M340.333333,273.5 L340.333333,275.166667 C340.333333,275.626904 339.960237,276 339.5,276 C339.039763,276 338.666667,275.626904 338.666667,275.166667 L338.666667,273.5 C334.984768,273.5 332,270.515232 332,266.833333 L333.666667,266.833333 C333.666667,270.055 336.278333,271.833333 339.5,271.833333 C342.721667,271.833333 345.333333,270.055 345.333333,266.833333 L347,266.833333 C347,270.515232 344.015232,273.5 340.333333,273.5 L340.333333,273.5 Z M339.5,270.166667 C337.659051,270.166667 336.166667,268.674282 336.166667,266.833333 L336.166667,259.333333 C336.166667,257.492384 337.659051,256 339.5,256 C341.340949,256 342.833333,257.492384 342.833333,259.333333 L342.833333,266.833333 C342.833333,268.674282 341.340949,270.166667 339.5,270.166667 L339.5,270.166667 Z M341.166667,259.333333 C341.166667,258.412859 340.420475,257.666667 339.5,257.666667 C338.579525,257.666667 337.833333,258.412859 337.833333,259.333333 L337.833333,266.833333 C337.833333,267.753808 338.579525,268.5 339.5,268.5 C340.420475,268.5 341.166667,267.753808 341.166667,266.833333 L341.166667,259.333333 L341.166667,259.333333 Z" id="Evenrs"></path>
        </g>
    </g>
</svg>