<?xml version="1.0" encoding="UTF-8" standalone="no"?>
<svg width="20px" height="23px" viewBox="0 0 20 23" version="1.1" xmlns="http://www.w3.org/2000/svg" xmlns:xlink="http://www.w3.org/1999/xlink">
    <!-- Generator: Sketch 3.8.3 (29802) - http://www.bohemiancoding.com/sketch -->
    <title>Expecting</title>
    <desc>Created with Sketch.</desc>
    <defs></defs>
    <g id="Icons" stroke="none" stroke-width="1" fill="none" fill-rule="evenodd">
        <g id="Artboard-1" transform="translate(-229.000000, -854.000000)" fill="#000000">
            <path d="M237.673675,865.066682 C237.609978,863.936437 237.403697,862.805345 236.946726,861.764365 C236.508062,860.765301 235.803029,859.846236 234.851359,859.290245 C234.42392,859.040579 233.784855,858.818753 233.329666,858.822762 C232.874477,858.826771 232.481782,858.925212 232.051314,859.150022 C231.624143,859.373051 231.208552,859.625033 230.815501,859.903786 C230.367973,860.221247 229.93853,860.582494 229.603697,861.020178 C229.34922,861.352918 229.146682,861.739376 229.073007,862.154967 C228.997238,862.582183 229.062049,863.043163 229.277996,863.422762 C229.594566,864.027216 230.19314,864.448775 230.78343,864.758441 L229.601247,870.149933 C229.579822,870.259688 229.608151,870.372205 229.679154,870.458441 C229.75029,870.544811 229.855145,870.594343 229.966993,870.594343 L231.174031,870.594343 L231.405835,875.384187 C231.427394,875.800134 231.776971,876.14196 232.193853,876.15069 C232.604053,876.159332 232.964588,875.844588 233.010869,875.436837 C233.012695,875.420267 233.014076,875.403608 233.014967,875.386993 L233.263163,870.594343 L233.392606,870.594343 L233.624365,875.384187 C233.645924,875.800134 233.995501,876.14196 234.412383,876.15069 C234.822584,876.159332 235.183118,875.844588 235.229399,875.436837 C235.231225,875.420267 235.232606,875.403608 235.233497,875.386993 L235.481693,870.594343 L236.6498,870.594343 C236.761336,870.594343 236.866102,870.545033 236.937194,870.458886 C237.008241,870.372739 237.036837,870.260535 237.015189,870.14882 L235.640134,863.660356 L235.640134,863.136303 C236.057372,864.126192 236.218664,865.19078 236.306904,866.254298 C236.30882,866.277773 236.310735,866.301247 236.31265,866.324766 C236.343964,866.688597 236.666548,866.970334 237.030913,866.954699 C237.39265,866.939154 237.687394,866.633853 237.691225,866.271982 C237.691269,865.349176 237.68343,865.239644 237.673675,865.066682 Z M247.90735,871.564232 C248.467439,870.912116 248.821782,870.140624 248.932294,869.33314 C249.039555,868.549666 248.918218,867.752383 248.581425,867.027483 C248.264944,866.346013 247.758842,865.731002 247.117996,865.248775 C246.472918,864.763296 245.695813,864.416392 244.871091,864.245702 C244.544499,864.178085 244.207394,864.137327 243.868953,864.124543 C243.790067,864.12196 243.713853,864.15078 243.657194,864.205301 C243.60049,864.259866 243.568463,864.335189 243.568463,864.413853 L243.568463,868.708552 L239.457773,868.708552 L239.457773,866.615457 C239.457773,866.483252 239.36833,866.367884 239.240356,866.335011 L238.182494,866.063118 C238.027661,866.023296 237.8698,866.11657 237.830022,866.271448 L237.687082,866.827528 C237.667929,866.901871 237.679154,866.980757 237.718218,867.046904 C237.757283,867.113051 237.821024,867.160891 237.895412,867.18 L238.304543,867.285078 L238.304543,868.566815 C238.304543,868.681158 238.305345,868.816481 238.31118,868.953942 C238.391448,870.808151 239.72049,872.44098 241.697105,873.113675 C241.701782,873.115323 241.706949,873.115991 241.711715,873.117372 L240.440846,874.259733 C240.401604,874.254788 240.361826,874.251359 240.321114,874.251359 C239.796615,874.251359 239.371448,874.676526 239.371448,875.201069 C239.371448,875.725568 239.796615,876.150735 240.321114,876.150735 C240.810379,876.150735 241.212918,875.780624 241.2649,875.305212 L243.221069,873.128864 L244.306815,873.128641 L246.243831,875.283697 C246.285746,875.769443 246.69265,876.15078 247.189354,876.15078 C247.713853,876.15078 248.139109,875.725568 248.139109,875.201114 C248.139109,874.676615 247.713853,874.251403 247.189354,874.251403 C247.153942,874.251403 247.119065,874.253675 247.084588,874.257461 L245.812739,873.114298 C245.819109,873.112249 245.825434,873.110245 245.831715,873.107795 C246.566949,872.814878 247.304098,872.266682 247.90735,871.564232 Z M233.026102,858.631849 C233.124677,858.644454 233.224098,858.65069 233.323474,858.65069 C234.126459,858.65069 234.887439,858.223608 235.307127,857.539198 C235.732829,856.845078 235.759955,855.952339 235.377149,855.23363 C235.001559,854.528552 234.270958,854.055323 233.473363,854.004588 C232.668285,853.953363 231.879287,854.332695 231.416704,854.993764 C230.950111,855.660713 230.868775,856.549265 231.206949,857.289978 C231.53755,858.01412 232.236169,858.531091 233.026102,858.631849 Z" id="Expecting"></path>
        </g>
    </g>
</svg>