<?xml version="1.0" encoding="UTF-8" standalone="no"?>
<svg width="20px" height="18px" viewBox="0 0 20 18" version="1.1" xmlns="http://www.w3.org/2000/svg" xmlns:xlink="http://www.w3.org/1999/xlink">
    <!-- Generator: Sketch 3.8.3 (29802) - http://www.bohemiancoding.com/sketch -->
    <title>Families</title>
    <desc>Created with Sketch.</desc>
    <defs></defs>
    <g id="Icons" stroke="none" stroke-width="1" fill="none" fill-rule="evenodd">
        <g id="Artboard-1" transform="translate(-330.000000, -858.000000)" fill="#010002">
            <path d="M335.543306,859.470502 C335.543306,860.279681 334.884497,860.935976 334.074061,860.935976 C333.262871,860.935976 332.604565,860.279681 332.604565,859.470502 C332.604565,858.661072 333.261362,858.003772 334.074061,858.003772 C334.884497,858.003772 335.543306,858.660066 335.543306,859.470502 L335.543306,859.470502 Z M334.228202,869.514073 L334.54604,874.926618 C334.54604,875.11546 334.698924,875.271613 334.88852,875.271613 C335.079122,875.271613 335.233515,875.11546 335.233515,874.926618 L335.526962,869.514073 L336.483995,869.514073 L335.495027,863.446491 L337.487045,867.413931 C337.559966,867.58844 337.76113,867.671671 337.93765,867.598749 C338.112159,867.523313 338.194887,867.32391 338.121212,867.146132 C338.121212,867.146132 336.661522,863.198306 336.300434,862.462804 C335.939095,861.726295 335.584293,861.278456 334.21387,861.278456 L333.934001,861.278456 C332.566595,861.278456 332.208022,861.725038 331.849952,862.462804 C331.48987,863.198306 330.02842,867.146132 330.02842,867.146132 C329.952229,867.32391 330.034957,867.523313 330.208209,867.598749 C330.38473,867.672928 330.585641,867.58844 330.662083,867.413931 L332.654101,863.446491 L331.663373,869.514073 L332.619149,869.514073 L332.916619,874.926618 C332.916619,875.11546 333.071515,875.271613 333.259099,875.271613 C333.453724,875.271613 333.607363,875.11546 333.607363,874.926618 L333.902821,869.514073 L334.228202,869.514073 L334.228202,869.514073 Z M345.925334,858 C345.114144,858 344.454078,858.656043 344.454078,859.466731 C344.454078,860.277166 345.112635,860.933461 345.925334,860.933461 C346.732753,860.933461 347.390053,860.277166 347.390053,859.466731 C347.390053,858.656043 346.733759,858 345.925334,858 L345.925334,858 Z M347.445876,866.633166 L347.543692,863.442719 L349.3353,867.411416 C349.410988,867.585925 349.612906,867.669156 349.787163,867.59372 C349.965444,867.518032 350.046161,867.318881 349.973239,867.141103 C349.973239,867.141103 348.711443,863.193277 348.35111,862.458277 C347.989268,861.722523 347.433052,861.275941 346.064388,861.275941 L345.783263,861.275941 C344.416108,861.275941 343.858886,861.722523 343.496793,862.458277 C343.138722,863.193277 341.877933,867.141103 341.877933,867.141103 C341.802999,867.318881 341.884219,867.518032 342.059482,867.59372 C342.235249,867.670665 342.438423,867.585925 342.50883,867.411416 L344.304463,863.442719 L344.400769,866.633166 L344.118387,874.654545 C344.098773,874.970874 344.3369,875.246719 344.652223,875.268847 C344.667813,875.271613 344.681895,875.271613 344.693713,875.271613 C344.994452,875.271613 345.24842,875.039773 345.271806,874.73501 L345.921563,868.129568 L346.579114,874.73501 C346.597219,875.04103 346.852445,875.271613 347.150669,875.271613 C347.165002,875.271613 347.177826,875.271613 347.192159,875.268847 C347.509997,875.246719 347.746866,874.970623 347.725996,874.654545 L347.442104,866.633166 L347.445876,866.633166 L347.445876,866.633166 Z M339.999069,866.917058 C339.500436,866.917058 339.096098,867.318881 339.096098,867.814748 C339.096098,868.312375 339.500436,868.71445 339.999069,868.71445 C340.496445,868.71445 340.900028,868.312124 340.900028,867.814748 C340.900028,867.31863 340.496445,866.917058 339.999069,866.917058 L339.999069,866.917058 Z M339.999069,872.217203 C339.999069,872.217203 340.404664,875.03072 340.404664,875.033235 C340.460738,875.172792 340.589483,875.271613 340.747144,875.271613 C340.908578,875.271613 341.044614,875.163488 341.093396,875.017645 C341.096162,875.008592 341.105718,874.841878 341.096162,874.81447 L340.929449,871.356225 L340.982757,870.167351 C341.029779,869.763767 341.038831,869.884716 341.497734,869.609877 C341.968456,869.328752 342.764056,868.090342 342.803031,868.030496 C342.840749,867.968135 342.913671,867.861267 342.928004,867.791111 C342.950132,867.666139 342.869415,867.548961 342.746957,867.52281 C342.653165,867.50722 342.573957,867.556505 342.512602,867.621883 C342.451247,867.689524 341.533189,868.910836 340.845211,869.028013 C340.69107,869.005885 340.524356,868.923911 340.085569,868.923911 L339.912318,868.923911 C339.476045,868.923911 339.309583,869.007142 339.153681,869.028013 C338.464195,868.910836 337.545634,867.689524 337.481261,867.621883 C337.422673,867.556505 337.346482,867.50722 337.250678,867.52281 C337.12822,867.548961 337.045743,867.666139 337.07114,867.791111 C337.084216,867.861267 337.156383,867.968135 337.196113,868.030496 C337.235842,868.090342 338.03446,869.328752 338.50141,869.609877 C338.961822,869.884716 338.972131,869.763516 339.016387,870.167351 L339.067935,871.356225 L338.90273,874.81447 C338.893426,874.842884 338.90273,875.009598 338.909771,875.017645 C338.957296,875.163488 339.090818,875.271613 339.253508,875.271613 C339.408404,875.271613 339.541172,875.17254 339.593223,875.033235 C339.591965,875.03072 339.999069,872.217203 339.999069,872.217203 L339.999069,872.217203 Z" id="Families"></path>
        </g>
    </g>
</svg>