<?xml version="1.0" encoding="UTF-8" standalone="no"?>
<svg width="22px" height="20px" viewBox="0 0 22 20" version="1.1" xmlns="http://www.w3.org/2000/svg" xmlns:xlink="http://www.w3.org/1999/xlink">
    <!-- Generator: Sketch 3.8.3 (29802) - http://www.bohemiancoding.com/sketch -->
    <title>Fashion</title>
    <desc>Created with Sketch.</desc>
    <defs></defs>
    <g id="Icons" stroke="none" stroke-width="1" fill="none" fill-rule="evenodd">
        <g id="Artboard-1" transform="translate(-431.000000, -255.000000)" fill="#000000">
            <path d="M441.982,275 L452.9645,262.445 L449.0905,255 L434.919,255 L431,262.445 L441.982,275 L441.982,275 Z M441.9485,272.495 L445.4485,263 L438.4485,263 L441.9485,272.495 L441.9485,272.495 Z M446.382,263.01 L451.153,263.01 L442.9975,272.35 L446.382,263.01 L446.382,263.01 Z M437.3935,262.995 L440.879,272.32 L432.791,262.995 L437.3935,262.995 L437.3935,262.995 Z M441.9485,256.5 L444.9485,262 L438.9485,262 L441.9485,256.5 L441.9485,256.5 Z M448.8365,256.635 L451.6415,262 L446.661,262 L448.8365,256.635 L448.8365,256.635 Z M445.7945,261.49 L448.0525,256 L442.8075,256 L445.7945,261.49 L445.7945,261.49 Z M437.885,261.86 L441.153,256 L436.4325,256 L437.885,261.86 L437.885,261.86 Z M435.447,256.025 L436.9485,262 L432.3605,262 L435.447,256.025 L435.447,256.025 Z" id="Fashion"></path>
        </g>
    </g>
</svg>