<?xml version="1.0" encoding="UTF-8" standalone="no"?>
<svg width="20px" height="23px" viewBox="0 0 20 23" version="1.1" xmlns="http://www.w3.org/2000/svg" xmlns:xlink="http://www.w3.org/1999/xlink">
    <!-- Generator: Sketch 3.8.3 (29802) - http://www.bohemiancoding.com/sketch -->
    <title>Fill 496</title>
    <desc>Created with Sketch.</desc>
    <defs></defs>
    <g id="Icons" stroke="none" stroke-width="1" fill="none" fill-rule="evenodd">
        <g id="Artboard-1" transform="translate(-630.000000, -551.000000)" fill="#000000">
            <path d="M632.987906,554.319896 L632.987906,558.114062 L647.235001,558.114062 C647.235001,558.114062 650,556.767133 650,556.202751 C650,555.638369 647.235001,554.319896 647.235001,554.319896 L632.987906,554.319896 L632.987906,554.319896 Z M640.125682,551 C639.603984,551 639.17714,551.426844 639.17714,551.948542 L639.17714,553.845625 L641.074223,553.845625 L641.074223,551.948542 C641.074223,551.426844 640.652122,551 640.125682,551 L640.125682,551 Z M632.987906,560.006403 C632.987906,560.006403 630,561.405502 630,561.894 C630,562.382499 632.987906,563.824283 632.987906,563.824283 L647.235001,563.824283 L647.235001,560.006403 L632.987906,560.006403 L632.987906,560.006403 Z M639.17714,559.536875 L641.074223,559.536875 L641.074223,558.588333 L639.17714,558.588333 L639.17714,559.536875 Z M639.17714,564.279583 L639.17714,572.8212 C639.17714,573.342898 639.599241,573.764999 640.125682,573.764999 C640.652122,573.764999 641.074223,573.338155 641.074223,572.8212 L641.074223,564.279583 L639.17714,564.279583 L639.17714,564.279583 Z" id="Fill-496"></path>
        </g>
    </g>
</svg>