<?xml version="1.0" encoding="UTF-8" standalone="no"?>
<svg width="20px" height="20px" viewBox="0 0 20 20" version="1.1" xmlns="http://www.w3.org/2000/svg" xmlns:xlink="http://www.w3.org/1999/xlink">
    <!-- Generator: Sketch 3.8.3 (29802) - http://www.bohemiancoding.com/sketch -->
    <title>Fill 9</title>
    <desc>Created with Sketch.</desc>
    <defs></defs>
    <g id="Icons" stroke="none" stroke-width="1" fill="none" fill-rule="evenodd">
        <g id="Artboard-1" transform="translate(-1220.000000, -953.000000)" fill="#0A0B09">
            <path d="M1230,972 C1225.03732,972 1221,967.962682 1221,963 C1221,958.037727 1225.03732,954 1230,954 C1234.96268,954 1239,958.037727 1239,963 C1239,967.962682 1234.96268,972 1230,972 L1230,972 Z M1230,953 C1224.48625,953 1220,957.48625 1220,963 C1220,968.514167 1224.48625,973 1230,973 C1235.51375,973 1240,968.514167 1240,963 C1240,957.48625 1235.51375,953 1230,953 L1230,953 Z M1230.6375,962.86125 L1229.73292,962.413333 C1228.04583,961.581667 1227.55958,961.290833 1227.55958,960.1525 C1227.55958,958.69 1228.81958,958.169167 1229.99917,958.169167 C1231.16042,958.169167 1232.40167,958.69 1232.40167,960.1525 C1232.40167,960.3825 1232.58792,960.569167 1232.81833,960.569167 C1233.04833,960.569167 1233.235,960.3825 1233.235,960.1525 C1233.235,958.592083 1232.11833,957.507917 1230.41667,957.35625 L1230.41667,956.333333 C1230.41667,956.103333 1230.23042,955.916667 1230,955.916667 C1229.76958,955.916667 1229.58333,956.103333 1229.58333,956.333333 L1229.58333,957.355417 C1227.85792,957.505417 1226.72625,958.590417 1226.72625,960.1525 C1226.72625,961.86 1227.71917,962.349583 1229.365,963.160833 L1230.26917,963.60875 C1231.95458,964.439583 1232.44042,964.73 1232.44042,965.867083 C1232.44042,967.315417 1231.17958,967.83125 1229.99917,967.83125 C1228.81958,967.83125 1227.55958,967.315417 1227.55958,965.867083 C1227.55958,965.637083 1227.37292,965.450417 1227.14292,965.450417 C1226.9125,965.450417 1226.72625,965.637083 1226.72625,965.867083 C1226.72625,967.418333 1227.85792,968.49625 1229.58333,968.645417 L1229.58333,969.666667 C1229.58333,969.897083 1229.76958,970.083333 1230,970.083333 C1230.23042,970.083333 1230.41667,969.897083 1230.41667,969.666667 L1230.41667,968.645 C1232.14208,968.495833 1233.27375,967.418333 1233.27375,965.867083 C1233.27375,964.160833 1232.28167,963.671667 1230.6375,962.86125 L1230.6375,962.86125 Z" id="Fill-9"></path>
        </g>
    </g>
</svg>