<?xml version="1.0" encoding="UTF-8" standalone="no"?>
<svg width="20px" height="19px" viewBox="0 0 20 19" version="1.1" xmlns="http://www.w3.org/2000/svg" xmlns:xlink="http://www.w3.org/1999/xlink">
    <!-- Generator: Sketch 3.8.3 (29802) - http://www.bohemiancoding.com/sketch -->
    <title>Finance</title>
    <desc>Created with Sketch.</desc>
    <defs></defs>
    <g id="Icons" stroke="none" stroke-width="1" fill="none" fill-rule="evenodd">
        <g id="Artboard-1" transform="translate(-534.000000, -254.000000)" fill="#000000">
            <path d="M552.333333,272.333333 L535.666667,272.333333 C534.746192,272.333333 534,271.587141 534,270.666667 L534,255.666667 C534,254.746192 534.746192,254 535.666667,254 L549,254 C549.920475,254 550.666667,254.746192 550.666667,255.666667 L550.666667,257.333333 L552.333333,257.333333 C553.253808,257.333333 554,258.079525 554,259 L554,270.666667 C554,271.587141 553.253808,272.333333 552.333333,272.333333 L552.333333,272.333333 Z M549,255.666667 L535.666667,255.666667 L535.666667,257.333333 L549,257.333333 L549,255.666667 L549,255.666667 Z M552.333333,259 L535.666667,259 L535.666667,270.666667 L552.333333,270.666667 L552.333333,259 L552.333333,259 Z M548.166667,262.333333 C549.547379,262.333333 550.666667,263.452621 550.666667,264.833333 C550.666667,266.214045 549.547379,267.333333 548.166667,267.333333 C546.785955,267.333333 545.666667,266.214045 545.666667,264.833333 C545.666667,263.452621 546.785955,262.333333 548.166667,262.333333 L548.166667,262.333333 Z M548.166667,265.666667 C548.626904,265.666667 549,265.293571 549,264.833333 C549,264.373096 548.626904,264 548.166667,264 C547.706429,264 547.333333,264.373096 547.333333,264.833333 C547.333333,265.293571 547.706429,265.666667 548.166667,265.666667 L548.166667,265.666667 Z" id="Finance"></path>
        </g>
    </g>
</svg>