<?xml version="1.0" encoding="UTF-8" standalone="no"?>
<svg width="22px" height="13px" viewBox="0 0 22 13" version="1.1" xmlns="http://www.w3.org/2000/svg" xmlns:xlink="http://www.w3.org/1999/xlink">
    <!-- Generator: Sketch 3.8.3 (29802) - http://www.bohemiancoding.com/sketch -->
    <title>Gaming</title>
    <desc>Created with Sketch.</desc>
    <defs></defs>
    <g id="Icons" stroke="none" stroke-width="1" fill="none" fill-rule="evenodd">
        <g id="Artboard-1" transform="translate(-628.000000, -258.000000)" fill="#000000">
            <path d="M644.15625,260.75 C643.587,260.75 643.125,261.212 643.125,261.78125 C643.125,262.3505 643.587,262.8125 644.15625,262.8125 C644.7255,262.8125 645.1875,262.3505 645.1875,261.78125 C645.1875,261.212 644.7255,260.75 644.15625,260.75 L644.15625,260.75 Z M646.21875,263.5 C645.6495,263.5 645.1875,263.962 645.1875,264.53125 C645.1875,265.1005 645.6495,265.5625 646.21875,265.5625 C646.788,265.5625 647.25,265.1005 647.25,264.53125 C647.25,263.962 646.788,263.5 646.21875,263.5 L646.21875,263.5 Z M648.625,266.25 C648.625,267.768687 647.393688,269 645.875,269 L632.125,269 C630.606312,269 629.375,267.768687 629.375,266.25 L629.375,262.125 C629.375,260.606312 630.606312,259.375 632.125,259.375 L645.875,259.375 C647.393688,259.375 648.625,260.606312 648.625,262.125 L648.625,266.25 L648.625,266.25 Z M645.875,258 L632.125,258 C629.847313,258 628,259.847312 628,262.125 L628,266.25 C628,268.527688 629.847313,270.375 632.125,270.375 L645.875,270.375 C648.152687,270.375 650,268.527688 650,266.25 L650,262.125 C650,259.847312 648.152687,258 645.875,258 L645.875,258 Z M643.46875,265.5625 C642.8995,265.5625 642.4375,266.0245 642.4375,266.59375 C642.4375,267.163 642.8995,267.625 643.46875,267.625 C644.038,267.625 644.5,267.163 644.5,266.59375 C644.5,266.0245 644.038,265.5625 643.46875,265.5625 L643.46875,265.5625 Z M636.9375,263.5 L634.875,263.5 L634.875,261.4375 C634.875,261.058 634.567688,260.75 634.1875,260.75 C633.807312,260.75 633.5,261.058 633.5,261.4375 L633.5,263.5 L631.4375,263.5 C631.057312,263.5 630.75,263.808 630.75,264.1875 C630.75,264.567687 631.057312,264.875 631.4375,264.875 L633.5,264.875 L633.5,266.9375 C633.5,267.317687 633.807312,267.625 634.1875,267.625 C634.567688,267.625 634.875,267.317687 634.875,266.9375 L634.875,264.875 L636.9375,264.875 C637.317688,264.875 637.625,264.567687 637.625,264.1875 C637.625,263.808 637.317688,263.5 636.9375,263.5 L636.9375,263.5 Z M641.40625,262.8125 C640.837,262.8125 640.375,263.2745 640.375,263.84375 C640.375,264.413 640.837,264.875 641.40625,264.875 C641.9755,264.875 642.4375,264.413 642.4375,263.84375 C642.4375,263.2745 641.9755,262.8125 641.40625,262.8125 L641.40625,262.8125 Z" id="Gaming"></path>
        </g>
    </g>
</svg>