<?xml version="1.0" encoding="UTF-8" standalone="no"?>
<svg width="19px" height="22px" viewBox="0 0 19 22" version="1.1" xmlns="http://www.w3.org/2000/svg" xmlns:xlink="http://www.w3.org/1999/xlink">
    <!-- Generator: Sketch 3.8.3 (29802) - http://www.bohemiancoding.com/sketch -->
    <title>Geo-location </title>
    <desc>Created with Sketch.</desc>
    <defs></defs>
    <g id="Icons" stroke="none" stroke-width="1" fill="none" fill-rule="evenodd">
        <g id="Artboard-1" transform="translate(-1630.000000, -255.000000)" fill="#000000">
            <path d="M1639.5,255 C1634.25329,255 1630,259.147257 1630,264.263158 C1630,269.378737 1639.5,277 1639.5,277 C1639.5,277 1649,269.378737 1649,264.263158 C1649,259.147257 1644.74671,255 1639.5,255 Z M1639.37977,257 C1635.30404,257 1632,260.221665 1632,264.19579 C1632,268.169664 1639.37977,274.09 1639.37977,274.09 C1639.37977,274.09 1646.75955,268.169664 1646.75955,264.19579 C1646.75955,260.221665 1643.45551,257 1639.37977,257 Z M1639.5,267.736842 C1637.53249,267.736842 1635.9375,266.181621 1635.9375,264.263158 C1635.9375,262.344695 1637.53249,260.789474 1639.5,260.789474 C1641.46751,260.789474 1643.0625,262.344695 1643.0625,264.263158 C1643.0625,266.181621 1641.46751,267.736842 1639.5,267.736842 Z M1639.5,266.578947 C1638.18832,266.578947 1637.125,265.542133 1637.125,264.263158 C1637.125,262.984183 1638.18832,261.947368 1639.5,261.947368 C1640.81168,261.947368 1641.875,262.984183 1641.875,264.263158 C1641.875,265.542133 1640.81168,266.578947 1639.5,266.578947 Z" id="Geo-location-"></path>
        </g>
    </g>
</svg>