<?xml version="1.0" encoding="UTF-8" standalone="no"?>
<svg width="19px" height="18px" viewBox="0 0 19 18" version="1.1" xmlns="http://www.w3.org/2000/svg" xmlns:xlink="http://www.w3.org/1999/xlink">
    <!-- Generator: Sketch 3.8.3 (29802) - http://www.bohemiancoding.com/sketch -->
    <title>Government</title>
    <desc>Created with Sketch.</desc>
    <defs></defs>
    <g id="Icons" stroke="none" stroke-width="1" fill="none" fill-rule="evenodd">
        <g id="Artboard-1" transform="translate(-332.000000, -1058.000000)" fill="#000000">
            <path d="M341.375011,1057.99999 L332,1061.74999 L332,1062.99999 L333.250001,1062.99999 C333.250001,1063.34179 333.552736,1063.62499 333.92383,1063.62499 L348.826192,1063.62499 C349.197286,1063.62499 349.500021,1063.34179 349.500021,1062.99999 L350.750022,1062.99999 L350.750022,1061.74999 L341.375011,1057.99999 Z M334.500003,1064.24999 L334.500003,1071.75 L333.92383,1071.75 C333.552736,1071.75 333.250001,1072.03321 333.250001,1072.375 L333.250001,1073 L349.500021,1073 L349.500021,1072.375 C349.500021,1072.03321 349.197286,1071.75 348.826192,1071.75 L348.250019,1071.75 L348.250019,1064.24999 L345.750016,1064.24999 L345.750016,1071.75 L344.500015,1071.75 L344.500015,1064.24999 L342.000012,1064.24999 L342.000012,1071.75 L340.75001,1071.75 L340.75001,1064.24999 L338.250007,1064.24999 L338.250007,1071.75 L337.000006,1071.75 L337.000006,1064.24999 L334.500003,1064.24999 Z M350.076193,1073.625 L332.673829,1073.625 C332.302735,1073.625 332,1073.90821 332,1074.25001 L332,1075.50001 L350.750022,1075.50001 L350.750022,1074.25001 C350.750022,1073.90821 350.447288,1073.625 350.076193,1073.625 L350.076193,1073.625 Z" id="Government"></path>
        </g>
    </g>
</svg>