<?xml version="1.0" encoding="UTF-8" standalone="no"?>
<svg width="20px" height="21px" viewBox="0 0 20 21" version="1.1" xmlns="http://www.w3.org/2000/svg" xmlns:xlink="http://www.w3.org/1999/xlink">
    <!-- Generator: Sketch 3.8.3 (29802) - http://www.bohemiancoding.com/sketch -->
    <title>Grandparents</title>
    <desc>Created with Sketch.</desc>
    <defs></defs>
    <g id="Icons" stroke="none" stroke-width="1" fill="none" fill-rule="evenodd">
        <g id="Artboard-1" transform="translate(-230.000000, -952.000000)" fill="#000000">
            <path d="M234.503319,956.754017 C235.290262,956.754017 236.039956,956.353144 236.478428,955.699869 C236.923144,955.037293 237.003362,954.171004 236.687948,953.43786 C236.380655,952.723624 235.724017,952.191965 234.96048,952.043188 C234.179563,951.891048 233.357773,952.146725 232.802052,952.715895 C232.245983,953.285459 232.010087,954.114629 232.181878,954.892009 C232.349651,955.651048 232.896987,956.294323 233.618166,956.583799 C233.898996,956.696507 234.200786,956.754017 234.503319,956.754017 Z M238.920087,961.892052 C238.958341,961.536987 238.9669,961.180611 238.972271,960.823843 C238.962227,960.505371 238.95738,960.182751 238.906812,959.867424 C238.845284,959.376245 238.729476,958.884716 238.543581,958.425284 L238.469476,958.242795 C238.383319,958.061965 238.292489,957.886463 238.194672,957.711703 C237.987948,957.375284 237.748297,957.066026 237.465764,956.789738 C237.372838,956.704192 237.282533,956.618996 237.187205,956.544541 C237.094716,956.466419 236.997773,956.399476 236.90524,956.332533 C236.785197,956.254323 236.665197,956.176943 236.539345,956.108253 C235.913974,956.792576 234.965109,957.119782 234.050786,956.963406 C233.449432,956.860568 232.892489,956.552183 232.482751,956.100611 C232.449258,956.11869 232.41559,956.137293 232.381878,956.157511 C232.28917,956.208952 232.197293,956.270568 232.101834,956.332664 C232.009214,956.399607 231.912314,956.466463 231.819694,956.544541 C231.724279,956.618952 231.633974,956.704105 231.540961,956.789607 C231.258079,957.065808 231.018166,957.375109 230.811441,957.711659 C230.713493,957.886376 230.622795,958.062009 230.53655,958.242838 L230.462445,958.425371 C230.27655,958.884934 230.161048,959.376419 230.099389,959.867642 C230.048821,960.182969 230.044498,960.50559 230.034148,960.824017 C230.038646,961.104891 230.04821,961.383886 230.066114,961.664236 C230.078996,961.866201 230.10559,962.06738 230.127686,962.268559 C230.169301,962.636725 230.502009,962.918384 230.872183,962.896245 C231.242227,962.874017 231.538341,962.555983 231.535066,962.185546 L231.534803,962.151703 C231.533362,961.983624 231.526638,961.814803 231.532838,961.646856 C231.541921,961.39917 231.556943,961.15345 231.577511,960.906463 C231.611135,960.654061 231.637991,960.39524 231.70607,960.14917 C231.785066,959.802052 231.90048,959.454803 232.068821,959.140262 L232.12952,959.02476 L232.196856,958.915983 C232.238821,958.841485 232.290873,958.777074 232.337205,958.709258 C232.341092,958.704279 232.345022,958.69952 232.348908,958.694541 L231.799825,962.532009 C231.707948,963.197991 231.85917,963.884105 232.23345,964.443668 L232.597249,972.114978 C232.617686,972.518908 232.942271,972.859782 233.345721,972.89607 C233.743188,972.93179 234.119563,972.666419 234.217817,972.279301 C234.231616,972.224847 234.239825,972.168996 234.242358,972.112838 L234.503799,966.282271 L234.775459,972.114279 C234.79559,972.51821 235.119869,972.859345 235.523275,972.895939 C235.920699,972.932009 236.29738,972.667031 236.395852,972.279956 C236.409694,972.225502 236.417948,972.169651 236.42048,972.113493 L236.769127,964.480786 C237.014061,964.1269 237.176201,963.715284 237.233624,963.276419 C237.344978,963.43476 237.56786,963.479083 237.730873,963.37441 C237.804148,963.327336 237.859301,963.254323 237.884236,963.170786 C237.897729,963.125459 237.897642,963.081004 237.900349,963.034367 C237.90393,962.973231 237.918035,962.912795 237.942009,962.856419 C238.228035,962.957424 238.552052,962.861179 238.736856,962.620699 C238.879738,962.717336 238.973886,962.880873 238.973886,963.066026 L238.973886,972.28262 C238.973886,972.482271 239.140524,972.648952 239.340175,972.648952 C239.539825,972.648952 239.706463,972.482314 239.706463,972.28262 L239.706463,963.065939 C239.706332,962.5369 239.381092,962.08262 238.920087,961.892052 Z M237.245135,963.063053 C238.400422,962.06726 237.165953,962.826411 237.245135,963.063053 Z M247.853758,963.588999 C247.805758,963.459098 246.941758,962.531999 247.853758,963.588999 Z M249.006987,961.864454 C249.044323,961.518777 249.051004,961.171179 249.056201,960.823843 C249.046201,960.505371 249.041266,960.182751 248.990786,959.867424 C248.929214,959.376288 248.813406,958.884716 248.627555,958.425284 L248.55345,958.242795 C248.467118,958.062009 248.37655,957.886463 248.278646,957.711703 C248.071921,957.375328 247.832227,957.066026 247.549782,956.789738 C247.456812,956.704192 247.366507,956.618996 247.271223,956.544541 C247.17869,956.466419 247.08179,956.399476 246.989258,956.332533 C246.86917,956.254323 246.74917,956.176943 246.623362,956.108253 C245.997948,956.792576 245.049083,957.119782 244.134803,956.963406 C243.53345,956.860568 242.976507,956.552183 242.566769,956.100611 C242.533231,956.11869 242.499651,956.137293 242.465852,956.157511 C242.373144,956.208952 242.281266,956.270568 242.185852,956.332664 C242.093231,956.399607 241.996332,956.466463 241.903712,956.544541 C241.808253,956.618952 241.717948,956.704105 241.624978,956.789607 C241.342009,957.065633 241.10214,957.375153 240.895415,957.711659 C240.797424,957.886376 240.706856,958.062052 240.620524,958.242838 L240.546419,958.425371 C240.360568,958.884934 240.244934,959.376419 240.183406,959.867642 C240.132882,960.182969 240.128515,960.50559 240.11821,960.824017 C240.122707,961.104891 240.132271,961.383843 240.150087,961.664236 C240.162969,961.866201 240.189651,962.067424 240.211703,962.268559 C240.253275,962.636725 240.585983,962.918384 240.956157,962.896245 C241.326245,962.874017 241.622358,962.555983 241.619127,962.185546 L241.618777,962.151703 C241.617424,961.983624 241.610568,961.814803 241.616812,961.646856 C241.625939,961.39917 241.641048,961.15345 241.661485,960.906463 C241.695109,960.654061 241.722009,960.39524 241.790087,960.14917 C241.869083,959.802052 241.984454,959.454803 242.152838,959.140262 L242.213493,959.02476 L242.280873,958.915983 C242.322838,958.841485 242.374847,958.777074 242.421179,958.709258 C242.425109,958.704279 242.429039,958.69952 242.432969,958.694541 L241.88393,962.53214 C241.869258,962.638472 241.860786,962.748908 241.85821,962.860699 C241.56393,963.781834 241.317293,964.718865 241.131179,965.667817 C240.918603,966.751397 240.783712,967.853231 240.769869,968.95821 C240.768166,969.099563 240.765022,969.232533 240.855066,969.350524 C240.934105,969.454061 241.059607,969.516157 241.189825,969.516157 L242.586507,969.516157 L242.709738,972.115066 C242.730131,972.518996 243.054803,972.859869 243.458253,972.896157 C243.855633,972.931878 244.232096,972.666507 244.330349,972.279389 C244.344061,972.224934 244.352358,972.169083 244.354847,972.112926 L244.471354,969.516157 L244.766987,969.516157 L244.887991,972.114367 C244.908122,972.518297 245.232402,972.859432 245.635808,972.89607 C246.033275,972.932096 246.409913,972.667118 246.508384,972.280044 C246.522183,972.22559 246.53048,972.169738 246.532926,972.113581 L246.651659,969.516201 L248.033668,969.516201 C248.149476,969.516201 248.262576,969.467074 248.341572,969.382358 C248.425764,969.292271 248.455284,969.180393 248.454585,969.059869 C248.452969,968.777467 248.443144,968.495066 248.426288,968.213144 C248.392751,967.657817 248.331179,967.104323 248.247249,966.55441 C248.092969,965.544236 247.863886,964.545895 247.579607,963.564585 C247.550524,963.464105 247.520742,963.363799 247.49048,963.263668 C247.580131,963.444716 247.807336,963.520218 247.987031,963.427118 C248.067642,963.385328 248.131092,963.313493 248.162489,963.228297 C248.179651,963.18179 248.183799,963.13524 248.185197,963.086114 C248.187162,963.02083 248.201048,962.956026 248.226201,962.895808 C248.482052,962.908777 248.716114,962.783013 248.85,962.58048 C249.084629,962.638079 249.259389,962.849607 249.259389,963.101747 L249.259389,972.318341 C249.259389,972.517948 249.426026,972.684629 249.625721,972.684629 C249.825415,972.684629 249.992052,972.518035 249.992052,972.318341 L249.992052,963.101747 C249.991747,962.499476 249.570306,961.994192 249.006987,961.864454 Z M244.587293,956.754017 C245.374236,956.754017 246.12393,956.353144 246.562402,955.699869 C247.007118,955.037293 247.087336,954.171004 246.771878,953.43786 C246.464585,952.723624 245.807948,952.191965 245.04441,952.043188 C244.263493,951.891048 243.441659,952.146725 242.885983,952.715895 C242.329825,953.285459 242.093974,954.114629 242.265852,954.892009 C242.433624,955.651048 242.980917,956.294323 243.70214,956.583799 C243.982926,956.696507 244.28476,956.754017 244.587293,956.754017 Z" id="Grandparents"></path>
        </g>
    </g>
</svg>