<?xml version="1.0" encoding="UTF-8" standalone="no"?>
<svg width="20px" height="20px" viewBox="0 0 20 20" version="1.1" xmlns="http://www.w3.org/2000/svg" xmlns:xlink="http://www.w3.org/1999/xlink">
    <!-- Generator: Sketch 3.8.3 (29802) - http://www.bohemiancoding.com/sketch -->
    <title>Hardware</title>
    <desc>Created with Sketch.</desc>
    <defs></defs>
    <g id="Icons" stroke="none" stroke-width="1" fill="none" fill-rule="evenodd">
        <g id="Artboard-1" transform="translate(-1021.000000, -354.000000)" fill="#000000">
            <path d="M1040.93226,365.168022 C1040.86181,365.782935 1040.34289,366.24817 1039.72397,366.25132 L1039.64897,366.25132 L1039.5573,366.25132 C1039.00172,366.254018 1038.50505,366.598265 1038.30752,367.117557 C1038.11,367.636849 1038.25233,368.224155 1038.66567,368.595409 C1039.14094,369.03346 1039.19902,369.763497 1038.799,370.271187 C1038.32095,370.86522 1037.77567,371.401838 1037.17405,371.870301 C1036.95992,372.038046 1036.69608,372.129804 1036.42407,372.131126 C1036.07931,372.130206 1035.75039,371.986264 1035.51577,371.733639 C1035.24259,371.45249 1034.86613,371.29558 1034.47414,371.299487 C1034.31444,371.298735 1034.15606,371.328431 1034.00749,371.386984 C1033.48712,371.605693 1033.15565,372.122786 1033.17418,372.686941 C1033.19472,373.327713 1032.71962,373.876793 1032.08255,373.948566 C1031.33476,374.031583 1030.57997,374.029626 1029.83262,373.942733 C1029.18844,373.867376 1028.71603,373.300848 1028.75766,372.653609 C1028.78592,372.08415 1028.45682,371.557255 1027.93269,371.332819 C1027.78178,371.271911 1027.62043,371.241057 1027.4577,371.241989 C1027.06597,371.238545 1026.68978,371.39504 1026.41607,371.675308 C1025.97833,372.157507 1025.24098,372.215911 1024.73279,371.808637 C1024.14857,371.336132 1023.62017,370.798505 1023.15785,370.20619 C1022.75795,369.704785 1022.81631,368.978984 1023.29117,368.547911 C1023.70579,368.164402 1023.84158,367.565252 1023.63283,367.040461 C1023.43296,366.546043 1022.95771,366.218281 1022.42454,366.207155 L1022.37454,366.207155 C1021.73037,366.215686 1021.17561,365.754567 1021.06625,365.119691 C1020.97458,364.364431 1020.97458,363.600858 1021.06625,362.845599 C1021.1325,362.211622 1021.67925,361.737777 1022.31621,361.762302 C1022.89251,361.784594 1023.42671,361.461457 1023.67449,360.940662 C1023.8925,360.41292 1023.7558,359.805132 1023.33284,359.421545 C1022.85768,358.983781 1022.79959,358.254023 1023.19951,357.746601 C1023.67592,357.153668 1024.21829,356.616896 1024.81612,356.146653 C1025.03357,355.979119 1025.29994,355.887498 1025.57443,355.885829 C1025.91968,355.88689 1026.24886,356.031848 1026.48274,356.285816 C1026.75698,356.565002 1027.13304,356.720541 1027.52437,356.716635 C1027.68376,356.718313 1027.84206,356.690046 1027.99102,356.633304 C1028.51194,356.413886 1028.84343,355.89577 1028.82432,355.330847 C1028.80427,354.690562 1029.27934,354.142235 1029.91596,354.070889 C1030.66377,353.988257 1031.41851,353.990213 1032.16588,354.076722 C1032.80951,354.152464 1033.28159,354.718226 1033.24085,355.365013 C1033.20888,355.935838 1033.53909,356.465167 1034.06582,356.687469 C1034.21691,356.747645 1034.37817,356.778199 1034.5408,356.777466 C1034.93236,356.780838 1035.30842,356.624697 1035.58244,356.34498 C1036.01742,355.864578 1036.75107,355.805448 1037.25738,356.209985 C1037.84495,356.680906 1038.37623,357.218051 1038.84066,357.810765 C1039.2433,358.314346 1039.18491,359.044213 1038.70733,359.477377 C1038.29222,359.853025 1038.15362,360.446738 1038.35949,360.967356 C1038.56537,361.487974 1039.07254,361.826319 1039.6323,361.816466 C1040.27225,361.811012 1040.82222,362.269318 1040.93226,362.899764 C1041.01924,363.653348 1041.01924,364.414438 1040.93226,365.168022 L1040.93226,365.168022 Z M1039.28231,363.232253 C1038.21906,363.207299 1037.27118,362.555955 1036.86668,361.572334 C1036.46218,360.588712 1036.67761,359.458969 1037.41571,358.693236 C1037.09064,358.294029 1036.72786,357.927069 1036.33241,357.597439 C1035.81439,358.080291 1035.1323,358.34836 1034.42414,358.347414 C1034.08396,358.349468 1033.7468,358.283453 1033.43251,358.153254 C1032.44444,357.735408 1031.79926,356.770257 1031.79089,355.697502 C1031.27812,355.650009 1030.76205,355.650009 1030.24928,355.697502 C1030.1914,356.730731 1029.50711,357.623281 1028.52433,357.947427 C1028.24557,358.124326 1027.93368,358.242562 1027.6077,358.294916 C1026.90343,358.295792 1026.22483,358.030601 1025.70776,357.55244 C1025.30092,357.881267 1024.92695,358.248812 1024.59113,358.649904 C1025.33757,359.421092 1025.55378,360.562376 1025.14111,361.553142 C1024.71076,362.527693 1023.75623,363.165993 1022.69119,363.191421 C1022.64257,363.712376 1022.63978,364.236594 1022.68286,364.758036 C1023.74872,364.77862 1024.70067,365.429938 1025.10599,366.415932 C1025.51132,367.401926 1025.29268,368.534454 1024.54947,369.29872 C1024.87869,369.694435 1025.2411,370.061311 1025.63276,370.39535 C1026.1523,369.914912 1026.8334,369.647231 1027.54103,369.645375 C1027.88405,369.642786 1028.22409,369.709094 1028.541,369.840368 C1029.52953,370.256741 1030.17512,371.221836 1030.18261,372.294454 C1030.69537,372.342383 1031.21147,372.342383 1031.72423,372.294454 C1031.75734,371.235515 1032.40544,370.293326 1033.38251,369.8837 C1033.69237,369.759035 1034.02348,369.695645 1034.35748,369.69704 C1035.06462,369.694864 1035.74639,369.960424 1036.26575,370.440349 C1036.66988,370.108488 1037.04357,369.741209 1037.38238,369.342885 C1036.63205,368.573714 1036.41538,367.429956 1036.83239,366.439647 C1037.25306,365.456071 1038.21269,364.811748 1039.28231,364.794701 C1039.33258,364.273984 1039.33258,363.749637 1039.28231,363.22892 L1039.28231,363.232253 Z M1030.99925,367.334618 C1029.64787,367.340015 1028.42654,366.530114 1027.90565,365.283143 C1027.38475,364.036171 1027.66705,362.598161 1028.62072,361.640669 C1029.57439,360.683177 1031.01126,360.395121 1032.2603,360.911023 C1033.50935,361.426926 1034.32413,362.644998 1034.32414,363.996394 C1034.32691,365.835985 1032.83884,367.330021 1030.99925,367.334618 L1030.99925,367.334618 Z M1030.99925,362.341449 C1030.07991,362.346046 1029.33792,363.094237 1029.34098,364.013588 C1029.34404,364.93294 1030.09099,365.676174 1031.01035,365.674649 C1031.92971,365.673125 1032.67419,364.927418 1032.6742,364.008061 C1032.67443,363.564456 1032.49779,363.139064 1032.18341,362.826093 C1031.86903,362.513121 1031.44285,362.338398 1030.99925,362.340616 L1030.99925,362.341449 Z" id="Hardware"></path>
        </g>
    </g>
</svg>