<?xml version="1.0" encoding="utf-8"?>
<!-- Generator: Avocode 2.5.4 - http://avocode.com -->
<svg height="20" width="20" xmlns:xlink="http://www.w3.org/1999/xlink" xmlns="http://www.w3.org/2000/svg" viewBox="0 0 20 20">
    <path fill="#101010" fill-rule="evenodd" d="M 20 10 C 20 10.22 19.92 10.44 19.76 10.59 C 19.71 10.64 19.66 10.67 19.6 10.7 C 19.35 11.2 18.88 11.55 18.33 11.66 L 17.5 11.66 L 17.5 18.33 C 17.5 19.25 16.75 20 15.83 20 L 4.17 20 C 3.25 20 2.5 19.25 2.5 18.33 L 2.5 11.66 L 1.67 11.66 C 0.77 11.66 0.03 10.94 0.01 10.05 C 0.01 10.03 0 10.02 0 10.01 L 0 10 L 0 10 C 0.01 9.79 0.09 9.59 0.24 9.44 L 9.32 0.35 C 9.35 0.31 9.37 0.27 9.41 0.23 C 9.74 -0.08 10.26 -0.08 10.59 0.23 C 10.63 0.27 10.65 0.31 10.67 0.35 L 19.76 9.44 C 19.91 9.59 19.99 9.79 20 10 L 20 10 L 20 10 L 20 10 Z M 9.17 18.33 L 10.83 18.33 L 10.83 14.17 L 9.17 14.17 L 9.17 18.33 L 9.17 18.33 Z M 10 1.99 L 1.98 10 L 4.17 10 L 4.17 18.33 L 7.5 18.33 L 7.5 13.33 C 7.5 12.87 7.87 12.5 8.33 12.5 L 11.67 12.5 C 12.13 12.5 12.5 12.87 12.5 13.33 L 12.5 18.33 L 15.83 18.33 L 15.83 10 L 18.02 10 L 10 1.99 Z M 10 1.99" />
</svg>