<?xml version="1.0" encoding="utf-8"?>
<!-- Generator: Avocode 2.5.4 - http://avocode.com -->
<svg height="15" width="20" xmlns:xlink="http://www.w3.org/1999/xlink" xmlns="http://www.w3.org/2000/svg" viewBox="0 0 20 15">
    <path fill="#000000" fill-rule="evenodd" d="M 0.8 13.6 L 19.2 13.6 L 19.2 14.4 C 19.2 14.62 19.38 14.8 19.6 14.8 C 19.82 14.8 20 14.62 20 14.4 L 20 5.6 C 20 5.38 19.82 5.2 19.6 5.2 C 19.38 5.2 19.2 5.38 19.2 5.6 L 19.2 6.94 C 18.91 6.61 18.48 6.4 18 6.4 L 2 6.4 C 1.52 6.4 1.09 6.61 0.8 6.94 L 0.8 5.6 C 0.8 5.38 0.62 5.2 0.4 5.2 C 0.18 5.2 0 5.38 0 5.6 L 0 14.4 C 0 14.62 0.18 14.8 0.4 14.8 C 0.62 14.8 0.8 14.62 0.8 14.4 L 0.8 13.6 L 0.8 13.6 Z M 2 7.2 C 1.34 7.2 0.8 7.74 0.8 8.4 L 0.8 12.8 L 19.2 12.8 L 19.2 8.4 C 19.2 7.74 18.66 7.2 18 7.2 L 2 7.2 L 2 7.2 Z M 17.6 0 C 17.38 0 17.2 0.18 17.2 0.4 L 17.2 6.4 L 18 6.4 L 18 0.4 C 18 0.18 17.82 0 17.6 0 L 17.6 0 Z M 2.4 0 C 2.18 0 2 0.18 2 0.4 L 2 6.4 L 2.8 6.4 L 2.8 0.4 C 2.8 0.18 2.62 0 2.4 0 L 2.4 0 Z M 2.8 6.4 L 17.2 6.4 L 17.2 1.2 L 2.8 1.2 L 2.8 6.4 Z M 16.24 4.23 C 15.61 3.68 14.84 3.62 13.6 3.62 C 12.22 3.62 11.48 3.8 10.95 4.23 C 10.07 4.92 10.4 6 10.4 6 L 16.8 6 C 16.8 6 16.98 4.87 16.24 4.23 L 16.24 4.23 Z M 9.04 4.23 C 8.41 3.68 7.64 3.62 6.4 3.62 C 5.02 3.62 4.28 3.8 3.75 4.23 C 2.87 4.92 3.2 6 3.2 6 L 9.6 6 C 9.6 6 9.78 4.87 9.04 4.23 L 9.04 4.23 Z M 9.04 4.23" />
</svg>