<?xml version="1.0" encoding="UTF-8" standalone="no"?>
<svg width="20px" height="16px" viewBox="0 0 20 16" version="1.1" xmlns="http://www.w3.org/2000/svg" xmlns:xlink="http://www.w3.org/1999/xlink">
    <!-- Generator: Sketch 3.8.3 (29802) - http://www.bohemiancoding.com/sketch -->
    <title>Influencers</title>
    <desc>Created with Sketch.</desc>
    <defs></defs>
    <g id="Icons" stroke="none" stroke-width="1" fill="none" fill-rule="evenodd">
        <g id="Artboard-1" transform="translate(-1118.000000, -360.000000)" fill="#000000">
            <path d="M1133.36129,369.032258 C1131.57973,369.032258 1130.13548,367.588015 1130.13548,365.806452 C1130.13548,364.024888 1131.57973,362.580645 1133.36129,362.580645 C1135.14285,362.580645 1136.5871,364.024888 1136.5871,365.806452 C1136.5871,367.588015 1135.14285,369.032258 1133.36129,369.032258 L1133.36129,369.032258 Z M1133.36129,363.870968 C1132.29235,363.870968 1131.42581,364.737513 1131.42581,365.806452 C1131.42581,366.87539 1132.29235,367.741935 1133.36129,367.741935 C1134.43023,367.741935 1135.29677,366.87539 1135.29677,365.806452 C1135.29677,364.737513 1134.43023,363.870968 1133.36129,363.870968 L1133.36129,363.870968 Z M1127.87097,372.464516 C1127.22401,371.107279 1125.83148,370.26517 1124.32903,370.322581 C1121.41935,370.322581 1120.25161,372.679355 1119.92258,375.483871 L1118.63871,375.483871 C1119.05806,371.983871 1120.70968,369.032258 1124.32903,369.032258 C1126.09944,368.972933 1127.7642,369.873135 1128.68387,371.387097 C1128.3614,371.704308 1128.08748,372.067356 1127.87097,372.464516 L1127.87097,372.464516 Z M1124.32903,367.741935 C1122.19116,367.741935 1120.45806,366.008844 1120.45806,363.870968 C1120.45806,361.733091 1122.19116,360 1124.32903,360 C1126.46691,360 1128.2,361.733091 1128.2,363.870968 C1128.2,366.008844 1126.46691,367.741935 1124.32903,367.741935 L1124.32903,367.741935 Z M1124.32903,361.290323 C1122.90378,361.290323 1121.74839,362.445717 1121.74839,363.870968 C1121.74839,365.296219 1122.90378,366.451613 1124.32903,366.451613 C1125.75428,366.451613 1126.90968,365.296219 1126.90968,363.870968 C1126.90968,362.445717 1125.75428,361.290323 1124.32903,361.290323 L1124.32903,361.290323 Z M1133.36129,370.322581 C1136.2,370.322581 1137.47742,372.689032 1137.79355,375.483871 L1136.51613,375.483871 C1136.28387,373.38 1135.44516,371.612903 1133.36129,371.612903 C1131.27742,371.612903 1130.43871,373.38129 1130.20645,375.483871 L1128.92903,375.483871 C1129.24516,372.689677 1130.52258,370.322581 1133.36129,370.322581 L1133.36129,370.322581 Z" id="Influencers"></path>
        </g>
    </g>
</svg>