<?xml version="1.0" encoding="UTF-8" standalone="no"?>
<svg width="20px" height="20px" viewBox="0 0 20 20" version="1.1" xmlns="http://www.w3.org/2000/svg" xmlns:xlink="http://www.w3.org/1999/xlink">
    <!-- Generator: Sketch 3.8.3 (29802) - http://www.bohemiancoding.com/sketch -->
    <title>Internet of things</title>
    <desc>Created with Sketch.</desc>
    <defs></defs>
    <g id="Icons" stroke="none" stroke-width="1" fill="none" fill-rule="evenodd">
        <g id="Artboard-1" transform="translate(-1221.000000, -352.000000)" fill="#101010">
            <path d="M1231,372 C1225.47715,372 1221,367.522847 1221,362 C1221,356.477153 1225.47715,352 1231,352 C1236.52285,352 1241,356.477153 1241,362 C1241,367.522847 1236.52285,372 1231,372 L1231,372 Z M1231,353.666667 C1226.39763,353.666667 1222.66667,357.397627 1222.66667,362 C1222.66667,366.602373 1226.39763,370.333333 1231,370.333333 C1235.60237,370.333333 1239.33333,366.602373 1239.33333,362 C1239.33333,357.397627 1235.60237,353.666667 1231,353.666667 L1231,353.666667 Z M1234.33333,366.166667 C1234.11315,366.166454 1233.90216,366.07832 1233.74725,365.921844 C1233.59234,365.765369 1233.50633,365.55351 1233.50833,365.333333 L1233.50833,361.175 C1233.50833,360.719365 1233.8777,360.35 1234.33333,360.35 C1234.78897,360.35 1235.15833,360.719365 1235.15833,361.175 L1235.15833,365.333333 C1235.16033,365.55351 1235.07432,365.765369 1234.91941,365.921844 C1234.7645,366.07832 1234.55352,366.166454 1234.33333,366.166667 L1234.33333,366.166667 Z M1231,366.166667 C1230.53976,366.166667 1230.16667,365.793571 1230.16667,365.333333 L1230.16667,358.666667 C1230.16667,358.206429 1230.53976,357.833333 1231,357.833333 C1231.46024,357.833333 1231.83333,358.206429 1231.83333,358.666667 L1231.83333,365.333333 C1231.83333,365.793571 1231.46024,366.166667 1231,366.166667 L1231,366.166667 Z M1227.66667,366.166667 C1227.44648,366.166454 1227.2355,366.07832 1227.08059,365.921844 C1226.92568,365.765369 1226.83967,365.55351 1226.84167,365.333333 L1226.84167,362.8425 C1226.84167,362.386865 1227.21103,362.0175 1227.66667,362.0175 C1228.1223,362.0175 1228.49167,362.386865 1228.49167,362.8425 L1228.49167,365.333333 C1228.49367,365.55351 1228.40766,365.765369 1228.25275,365.921844 C1228.09784,366.07832 1227.88685,366.166454 1227.66667,366.166667 L1227.66667,366.166667 Z" id="Internet-of-things"></path>
        </g>
    </g>
</svg>