<?xml version="1.0" encoding="utf-8"?>
<!-- Generator: Adobe Illustrator 16.0.0, SVG Export Plug-In . SVG Version: 6.00 Build 0)  -->
<!DOCTYPE svg PUBLIC "-//W3C//DTD SVG 1.1//EN" "http://www.w3.org/Graphics/SVG/1.1/DTD/svg11.dtd">
<svg version="1.1" id="Layer_1" xmlns="http://www.w3.org/2000/svg" xmlns:xlink="http://www.w3.org/1999/xlink" x="0px" y="0px"
	 width="22.1px" height="22.1px" viewBox="-0.55 -0.55 22.1 22.1" enable-background="new -0.55 -0.55 22.1 22.1"
	 xml:space="preserve">
<g>
	<path d="M10.5,21.55c-6.093,0-11.05-4.957-11.05-11.05S4.407-0.55,10.5-0.55S21.55,4.407,21.55,10.5S16.593,21.55,10.5,21.55z
		 M10.5,0.55c-5.486,0-9.95,4.464-9.95,9.95s4.464,9.95,9.95,9.95s9.95-4.464,9.95-9.95S15.986,0.55,10.5,0.55z"/>
</g>
<g>
	<path d="M7.44,11.05c-1.026,0-1.86-0.834-1.86-1.86s0.834-1.86,1.86-1.86S9.3,8.164,9.3,9.19S8.466,11.05,7.44,11.05z M7.44,8.43
		c-0.426,0-0.76,0.334-0.76,0.76c0,0.419,0.341,0.76,0.76,0.76S8.2,9.609,8.2,9.19S7.859,8.43,7.44,8.43z"/>
</g>
<g>
	<path d="M13.561,11.05c-1.026,0-1.86-0.834-1.86-1.86s0.834-1.86,1.86-1.86c1.03,0,1.869,0.834,1.869,1.86
		S14.591,11.05,13.561,11.05z M13.561,8.43c-0.419,0-0.761,0.341-0.761,0.76s0.342,0.76,0.761,0.76c0.424,0,0.77-0.341,0.77-0.76
		C14.33,8.764,13.992,8.43,13.561,8.43z"/>
</g>
<g>
	<path d="M10.5,17.18c-1.501,0-2.901-0.673-3.839-1.846l0.858-0.688c0.729,0.911,1.815,1.434,2.981,1.434
		c1.176,0,2.269-0.529,2.998-1.451l0.863,0.682C13.421,16.499,12.014,17.18,10.5,17.18z"/>
</g>
<g>
	<path fill="#182A34" d="M9.426,5.667c-0.589,0-1.147-0.055-1.609-0.166C6.445,5.174,6.24,4.451,6.24,4.05
		c0-1.76,1.436-2.628,2.385-3.202C8.941,0.657,9.268,0.459,9.377,0.32l0.785,0.619C9.94,1.221,9.571,1.444,9.143,1.703
		C8.251,2.243,7.24,2.854,7.24,4.05c0,0.173,0.317,0.361,0.809,0.479c1.672,0.397,4.513-0.115,4.904-0.886
		c0.11-0.218-0.16-0.513-0.406-0.721l0.646-0.763C14.187,3,14.028,3.732,13.845,4.094C13.311,5.15,11.224,5.667,9.426,5.667z"/>
</g>
</svg>
