<?xml version="1.0" encoding="UTF-8" standalone="no"?>
<svg width="15px" height="20px" viewBox="0 0 15 20" version="1.1" xmlns="http://www.w3.org/2000/svg" xmlns:xlink="http://www.w3.org/1999/xlink">
    <!-- Generator: Sketch 3.8.3 (29802) - http://www.bohemiancoding.com/sketch -->
    <title>Kids</title>
    <desc>Created with Sketch.</desc>
    <defs></defs>
    <g id="Icons" stroke="none" stroke-width="1" fill="none" fill-rule="evenodd">
        <g id="Artboard-1" transform="translate(-434.000000, -953.000000)" fill="#000000">
            <path d="M447.907797,957.80198 C448.365718,957.331683 448.365718,956.589109 447.907797,956.118812 C447.4375,955.660891 446.694926,955.660891 446.224629,956.118812 L443.402847,958.940594 L438.848391,958.940594 L436.026609,956.118812 C435.556312,955.660891 434.813738,955.660891 434.343441,956.118812 C433.88552,956.589109 433.88552,957.331683 434.343441,957.80198 L437.957302,961.415842 L437.957302,971.613861 C437.957302,972.381188 438.576114,973 439.343441,973 C440.110767,973 440.729579,972.381188 440.729579,971.613861 L440.729579,966.861386 L441.521658,966.861386 L441.521658,971.613861 C441.521658,972.381188 442.14047,973 442.907797,973 C443.675124,973 444.293936,972.381188 444.293936,971.613861 L444.293936,961.415842 L447.907797,957.80198 Z M443.897896,955.772277 C443.897896,954.237624 442.660272,953 441.125619,953 C439.590965,953 438.353342,954.237624 438.353342,955.772277 C438.353342,957.306931 439.590965,958.544554 441.125619,958.544554 C442.660272,958.544554 443.897896,957.306931 443.897896,955.772277 L443.897896,955.772277 Z" id="Kids"></path>
        </g>
    </g>
</svg>