<?xml version="1.0" encoding="UTF-8" standalone="no"?>
<svg width="21px" height="21px" viewBox="0 0 21 21" version="1.1" xmlns="http://www.w3.org/2000/svg" xmlns:xlink="http://www.w3.org/1999/xlink">
    <!-- Generator: Sketch 3.8.3 (29802) - http://www.bohemiancoding.com/sketch -->
    <title>legal</title>
    <desc>Created with Sketch.</desc>
    <defs></defs>
    <g id="Icons" stroke="none" stroke-width="1" fill="none" fill-rule="evenodd">
        <g id="Artboard-1" transform="translate(-529.000000, -355.000000)" fill="#000000">
            <path d="M548.885002,371.545877 L544.690894,367.35177 C544.413598,367.086027 544.032316,366.924271 543.639479,366.924271 C543.200426,366.924271 542.842252,367.109135 542.530294,367.421094 L539.572466,364.463266 L541.028272,363.00746 C541.132258,362.903474 541.190028,362.764826 541.190028,362.614624 C541.190028,362.464421 541.132258,362.325773 541.028272,362.221787 C541.374892,362.568408 541.62908,362.89192 542.160565,362.89192 C542.460969,362.89192 542.726712,362.77638 542.946238,362.568408 C543.362183,362.175571 543.916775,361.759626 543.916775,361.13571 C543.916775,360.846859 543.801235,360.558009 543.593263,360.350037 L538.879225,355.635998 C538.671253,355.428026 538.382402,355.312486 538.093552,355.312486 C537.469635,355.312486 537.05369,355.867079 536.660854,356.283023 C536.452882,356.50255 536.337342,356.768292 536.337342,357.068696 C536.337342,357.600181 536.660854,357.854369 537.007474,358.20099 C536.903488,358.097004 536.76484,358.039234 536.614638,358.039234 C536.464436,358.039234 536.325787,358.097004 536.221801,358.20099 L532.201004,362.221787 C532.097018,362.325773 532.039248,362.464421 532.039248,362.614624 C532.039248,362.764826 532.097018,362.903474 532.201004,363.00746 C531.854384,362.66084 531.600195,362.337327 531.068711,362.337327 C530.768306,362.337327 530.502564,362.452867 530.283038,362.66084 C529.867093,363.053676 529.3125,363.469621 529.3125,364.093537 C529.3125,364.382388 529.428041,364.671238 529.636013,364.879211 L534.350051,369.593249 C534.558023,369.801221 534.846874,369.916761 535.135724,369.916761 C535.759641,369.916761 536.175585,369.362168 536.568422,368.946224 C536.776394,368.726698 536.891934,368.460955 536.891934,368.160551 C536.891934,367.629066 536.568422,367.374878 536.221801,367.028257 C536.325787,367.132243 536.464436,367.190014 536.614638,367.190014 C536.76484,367.190014 536.903488,367.132243 537.007474,367.028257 L538.46328,365.572451 L541.421108,368.530279 C541.10915,368.842238 540.924285,369.200412 540.924285,369.639465 C540.924285,370.032301 541.086042,370.413584 541.363338,370.679326 L545.557445,374.884988 C545.823188,375.15073 546.20447,375.312486 546.597307,375.312486 C546.990143,375.312486 547.371426,375.15073 547.648722,374.884988 L548.885002,373.637154 C549.150744,373.371412 549.3125,372.990129 549.3125,372.597293 C549.3125,372.204456 549.150744,371.823174 548.885002,371.545877 Z" id="legal"></path>
        </g>
    </g>
</svg>