<?xml version="1.0" encoding="UTF-8" standalone="no"?>
<svg width="20px" height="19px" viewBox="0 0 20 19" version="1.1" xmlns="http://www.w3.org/2000/svg" xmlns:xlink="http://www.w3.org/1999/xlink">
    <!-- Generator: Sketch 3.8.3 (29802) - http://www.bohemiancoding.com/sketch -->
    <title>Loyalty </title>
    <desc>Created with Sketch.</desc>
    <defs></defs>
    <g id="Icons" stroke="none" stroke-width="1" fill="none" fill-rule="evenodd">
        <g id="Artboard-1" transform="translate(-1320.000000, -357.000000)" fill="#000000">
            <path d="M1336.23653,364.498828 L1336.23653,360.749414 C1338.70614,360.749414 1338.73176,360.61881 1338.73176,361.999219 C1338.73176,363.379628 1337.61506,364.498828 1336.23653,364.498828 L1336.23653,364.498828 Z M1334.98922,363.249024 C1334.98922,366.009842 1332.75582,369.498047 1330,369.498047 C1327.24418,369.498047 1325.01078,366.009842 1325.01078,363.249024 L1325.01078,359.499609 C1325.01078,358.881581 1325.66005,358.249805 1326.25808,358.249805 L1333.74192,358.249805 C1334.33995,358.249805 1334.98922,358.861584 1334.98922,359.499609 L1334.98922,363.249024 L1334.98922,363.249024 Z M1323.76347,364.498828 C1322.38556,364.498828 1321.26824,363.379628 1321.26824,361.999219 C1321.26824,360.61881 1321.29386,360.749414 1323.76347,360.749414 L1323.76347,364.498828 L1323.76347,364.498828 Z M1336.23653,359.499609 C1336.23653,358.1192 1335.11983,357 1333.74192,357 L1326.25808,357 C1324.88017,357 1323.76347,358.1192 1323.76347,359.499609 C1319.49102,359.499609 1320.02093,359.498985 1320.02093,361.999219 C1320.02093,364.06952 1321.6963,365.748633 1323.76347,365.748633 C1323.9122,365.748633 1324.05468,365.724887 1324.19841,365.70489 C1325.03578,368.157007 1327.00859,370.366037 1329.37635,370.702859 L1329.37635,374.497266 L1327.50539,374.497266 C1327.16107,374.497266 1326.88174,374.776597 1326.88174,375.122168 C1326.88174,375.467739 1327.16107,375.747071 1327.50539,375.747071 L1332.49461,375.747071 C1332.83893,375.747071 1333.11826,375.467739 1333.11826,375.122168 C1333.11826,374.776597 1332.83893,374.497266 1332.49461,374.497266 L1330.62365,374.497266 L1330.62365,370.702859 C1332.99141,370.366037 1334.96422,368.157007 1335.80222,365.70489 C1335.94532,365.724887 1336.0878,365.748633 1336.23653,365.748633 C1338.3037,365.748633 1339.97907,364.06952 1339.97907,361.999219 C1339.97907,359.498985 1340.50898,359.499609 1336.23653,359.499609 L1336.23653,359.499609 Z" id="Loyalty-"></path>
        </g>
    </g>
</svg>