<?xml version="1.0" encoding="UTF-8" standalone="no"?>
<svg width="24px" height="19px" viewBox="0 0 24 19" version="1.1" xmlns="http://www.w3.org/2000/svg" xmlns:xlink="http://www.w3.org/1999/xlink">
    <!-- Generator: Sketch 3.8.3 (29802) - http://www.bohemiancoding.com/sketch -->
    <title>Married </title>
    <desc>Created with Sketch.</desc>
    <defs></defs>
    <g id="Icons" stroke="none" stroke-width="1" fill="none" fill-rule="evenodd">
        <g id="Artboard-1" transform="translate(-629.000000, -856.000000)" fill="#000000">
            <path d="M646.793297,866.916133 C644.640149,866.916133 642.894678,865.170662 642.894678,863.017514 C642.894678,860.864366 644.640149,859.118895 646.793297,859.118895 C648.946445,859.118895 650.691916,860.864366 650.691916,863.017514 C650.691916,865.170662 648.946445,866.916133 646.793297,866.916133 L646.793297,866.916133 Z M646.793297,860.678343 C645.501408,860.678343 644.454126,861.725626 644.454126,863.017514 C644.454126,864.309403 645.501408,865.356686 646.793297,865.356686 C648.085186,865.356686 649.132469,864.309403 649.132469,863.017514 C649.132469,861.725626 648.085186,860.678343 646.793297,860.678343 L646.793297,860.678343 Z M640.157848,871.064264 C639.375948,869.423945 637.692983,868.406196 635.877164,868.475581 C632.36061,868.475581 630.949309,871.323912 630.55165,874.713371 L629,874.713371 C629.50682,870.48337 631.502913,866.916133 635.877164,866.916133 C638.016832,866.844434 640.028812,867.932394 641.1403,869.762125 C640.750565,870.145498 640.419518,870.584268 640.157848,871.064264 L640.157848,871.064264 Z M635.877164,865.356686 C633.293387,865.356686 631.198821,863.26212 631.198821,860.678343 C631.198821,858.094565 633.293387,856 635.877164,856 C638.460941,856 640.555507,858.094565 640.555507,860.678343 C640.555507,863.26212 638.460941,865.356686 635.877164,865.356686 L635.877164,865.356686 Z M635.877164,857.559448 C634.154646,857.559448 632.758269,858.955825 632.758269,860.678343 C632.758269,862.400861 634.154646,863.797238 635.877164,863.797238 C637.599682,863.797238 638.996059,862.400861 638.996059,860.678343 C638.996059,858.955825 637.599682,857.559448 635.877164,857.559448 L635.877164,857.559448 Z M646.793297,868.475581 C650.224082,868.475581 651.767935,871.335608 652.15,874.713371 L650.606146,874.713371 C650.325446,872.170692 649.311805,870.035028 646.793297,870.035028 C644.274789,870.035028 643.261148,872.172251 642.980448,874.713371 L641.436595,874.713371 C641.818659,871.336387 643.362512,868.475581 646.793297,868.475581 L646.793297,868.475581 Z" id="Married-"></path>
        </g>
    </g>
</svg>