<?xml version="1.0" encoding="UTF-8" standalone="no"?>
<svg width="20px" height="20px" viewBox="0 0 20 20" version="1.1" xmlns="http://www.w3.org/2000/svg" xmlns:xlink="http://www.w3.org/1999/xlink">
    <!-- Generator: Sketch 3.8.3 (29802) - http://www.bohemiancoding.com/sketch -->
    <title>Marketing </title>
    <desc>Created with Sketch.</desc>
    <defs></defs>
    <g id="Icons" stroke="none" stroke-width="1" fill="none" fill-rule="evenodd">
        <g id="Artboard-1" transform="translate(-1417.000000, -355.000000)" fill="#101010">
            <path d="M1435.33333,370 L1423.66667,370 C1422.74619,370 1422,369.253808 1422,368.333333 L1422,356.666667 C1422,355.746192 1422.74619,355 1423.66667,355 L1435.33333,355 C1436.25381,355 1437,355.746192 1437,356.666667 L1437,368.333333 C1437,369.253808 1436.25381,370 1435.33333,370 L1435.33333,370 Z M1435.33333,356.666667 L1423.66667,356.666667 L1423.66667,368.333333 L1435.33333,368.333333 L1435.33333,356.666667 L1435.33333,356.666667 Z M1427.40833,363.5325 L1428.35833,364.4875 L1431.275,358.7625 C1431.38296,358.565366 1431.56597,358.420201 1431.78251,358.359948 C1431.99904,358.299695 1432.23073,358.329465 1432.425,358.4425 C1432.82724,358.690686 1432.96,359.213253 1432.725,359.623333 L1429.44167,366.086667 C1429.41002,366.218294 1429.34386,366.339107 1429.25,366.436667 C1429.09278,366.595404 1428.87231,366.67471 1428.65,366.6525 C1428.29302,366.677413 1427.96692,366.450188 1427.86667,366.106667 L1426.35,364.591667 C1426.08668,364.294909 1426.10003,363.844411 1426.38045,363.563762 C1426.66088,363.283114 1427.11137,363.269413 1427.40833,363.5325 L1427.40833,363.5325 Z M1418.66667,373.333333 L1430.33333,373.333333 L1430.33333,371.666667 L1432,371.666667 L1432,373.333333 C1432,374.253808 1431.25381,375 1430.33333,375 L1418.66667,375 C1417.74619,375 1417,374.253808 1417,373.333333 L1417,361.666667 C1417,360.746192 1417.74619,360 1418.66667,360 L1420.33333,360 L1420.33333,361.666667 L1418.66667,361.666667 L1418.66667,373.333333 L1418.66667,373.333333 Z" id="Marketing-"></path>
        </g>
    </g>
</svg>