<?xml version="1.0" encoding="UTF-8" standalone="no"?>
<svg width="20px" height="20px" viewBox="0 0 20 20" version="1.1" xmlns="http://www.w3.org/2000/svg" xmlns:xlink="http://www.w3.org/1999/xlink">
    <!-- Generator: Sketch 3.8.3 (29802) - http://www.bohemiancoding.com/sketch -->
    <title>Mentorship</title>
    <desc>Created with Sketch.</desc>
    <defs></defs>
    <g id="Icons" stroke="none" stroke-width="1" fill="none" fill-rule="evenodd">
        <g id="Artboard-1" transform="translate(-1417.000000, -856.000000)" fill="#000000">
            <path d="M1419.92937,873.071875 C1421.81813,874.959375 1424.32906,876 1427,876 C1427.34531,876 1427.625,875.721875 1427.625,875.375 C1427.625,875.03125 1427.34531,874.75 1427,874.75 C1424.66313,874.75 1422.46563,873.840625 1420.81344,872.1875 C1419.16031,870.534375 1418.25,868.3375 1418.25,866 C1418.25,863.69375 1419.13812,861.525 1420.75,859.878125 L1420.75,861.625 C1420.75,861.971875 1421.03031,862.25 1421.375,862.25 C1421.72062,862.25 1422,861.971875 1422,861.625 L1422,857.875 L1418.25,857.875 C1417.90531,857.875 1417.625,858.15625 1417.625,858.5 C1417.625,858.846875 1417.90531,859.125 1418.25,859.125 L1419.74281,859.125 C1417.97375,860.990625 1417,863.41875 1417,866 C1417,868.671875 1418.04063,871.18125 1419.92937,873.071875 L1419.92937,873.071875 Z M1426.375,856.625 C1426.375,856.971875 1426.655,857.25 1427,857.25 C1429.33719,857.25 1431.53437,858.159375 1433.18719,859.8125 C1434.83969,861.465625 1435.75,863.6625 1435.75,866 C1435.75,868.30625 1434.86188,870.475 1433.25,872.121875 L1433.25,870.375 C1433.25,870.03125 1432.97031,869.75 1432.625,869.75 C1432.28,869.75 1432,870.03125 1432,870.375 L1432,874.125 L1435.75,874.125 C1436.09531,874.125 1436.375,873.846875 1436.375,873.5 C1436.375,873.15625 1436.09531,872.875 1435.75,872.875 L1434.2575,872.875 C1436.02625,871.009375 1437,868.58125 1437,866 C1437,863.328125 1435.95969,860.81875 1434.07094,858.928125 C1432.1825,857.040625 1429.67125,856 1427,856 C1426.655,856 1426.375,856.28125 1426.375,856.625 L1426.375,856.625 Z" id="Mentorship"></path>
        </g>
    </g>
</svg>