<?xml version="1.0" encoding="UTF-8" standalone="no"?>
<svg width="20px" height="20px" viewBox="0 0 20 20" version="1.1" xmlns="http://www.w3.org/2000/svg" xmlns:xlink="http://www.w3.org/1999/xlink">
    <!-- Generator: Sketch 3.8.3 (29802) - http://www.bohemiancoding.com/sketch -->
    <title>message</title>
    <desc>Created with Sketch.</desc>
    <defs></defs>
    <g id="Icons" stroke="none" stroke-width="1" fill="none" fill-rule="evenodd">
        <g id="Artboard-1" transform="translate(-1518.000000, -357.000000)" fill="#000000">
            <path d="M1538,377 L1533.09167,375.7725 C1528.91596,378.108658 1523.65693,377.006871 1520.77008,373.19108 C1517.88322,369.37529 1518.25322,364.014838 1521.63696,360.631866 C1525.0207,357.248895 1530.38123,356.88011 1534.19637,359.767825 C1538.01151,362.65554 1539.1121,367.91482 1536.775,372.09 L1538,377 Z M1534.00833,361.795833 C1531.01455,358.795362 1526.19052,358.679598 1523.05625,361.53301 C1519.92199,364.386423 1519.5857,369.20011 1522.29276,372.461608 C1524.99983,375.723106 1529.7931,376.279221 1533.175,373.724167 L1535.5,374.5 L1534.725,372.173333 C1537.10852,369.019789 1536.80272,364.591793 1534.00833,361.795833 L1534.00833,361.795833 Z M1532.58333,368.666667 C1531.89298,368.666667 1531.33333,368.107023 1531.33333,367.416667 C1531.33333,366.726311 1531.89298,366.166667 1532.58333,366.166667 C1533.27369,366.166667 1533.83333,366.726311 1533.83333,367.416667 C1533.83333,368.107023 1533.27369,368.666667 1532.58333,368.666667 L1532.58333,368.666667 Z M1528.41667,368.666667 C1527.72631,368.666667 1527.16667,368.107023 1527.16667,367.416667 C1527.16667,366.726311 1527.72631,366.166667 1528.41667,366.166667 C1529.10702,366.166667 1529.66667,366.726311 1529.66667,367.416667 C1529.66667,368.107023 1529.10702,368.666667 1528.41667,368.666667 L1528.41667,368.666667 Z M1524.25,368.666667 C1523.55964,368.666667 1523,368.107023 1523,367.416667 C1523,366.726311 1523.55964,366.166667 1524.25,366.166667 C1524.94036,366.166667 1525.5,366.726311 1525.5,367.416667 C1525.5,368.107023 1524.94036,368.666667 1524.25,368.666667 L1524.25,368.666667 Z" id="message"></path>
        </g>
    </g>
</svg>