<?xml version="1.0" encoding="UTF-8" standalone="no"?>
<svg width="15px" height="20px" viewBox="0 0 15 20" version="1.1" xmlns="http://www.w3.org/2000/svg" xmlns:xlink="http://www.w3.org/1999/xlink">
    <!-- Generator: Sketch 3.8.3 (29802) - http://www.bohemiancoding.com/sketch -->
    <title>Mobile </title>
    <desc>Created with Sketch.</desc>
    <defs></defs>
    <g id="Icons" stroke="none" stroke-width="1" fill="none" fill-rule="evenodd">
        <g id="Artboard-1" transform="translate(-1634.000000, -355.000000)" fill="#000000">
            <path d="M1646.5,375 L1635.66667,375 C1634.74619,375 1634,374.253808 1634,373.333333 L1634,356.666667 C1634,355.746192 1634.74619,355 1635.66667,355 L1646.5,355 C1647.42047,355 1648.16667,355.746192 1648.16667,356.666667 L1648.16667,373.333333 C1648.16667,374.253808 1647.42047,375 1646.5,375 L1646.5,375 Z M1646.5,356.666667 L1635.66667,356.666667 L1635.66667,373.333333 L1646.5,373.333333 L1646.5,356.666667 L1646.5,356.666667 Z M1641.08333,368 C1641.77369,368 1642.33333,368.559644 1642.33333,369.25 C1642.33333,369.940356 1641.77369,370.5 1641.08333,370.5 C1640.39298,370.5 1639.83333,369.940356 1639.83333,369.25 C1639.83333,368.559644 1640.39298,368 1641.08333,368 L1641.08333,368 Z" id="Mobile-"></path>
        </g>
    </g>
</svg>