<?xml version="1.0" encoding="utf-8"?>
<!-- Generator: Avocode 2.5.4 - http://avocode.com -->
<svg height="20" width="20" xmlns:xlink="http://www.w3.org/1999/xlink" xmlns="http://www.w3.org/2000/svg" viewBox="0 0 20 20">
    <path fill="#000000" fill-rule="evenodd" d="M 16.07 19.2 C 14.72 19.21 13.51 18.37 13.04 17.1 C 12.58 15.83 12.96 14.41 14 13.54 C 15.04 12.68 16.51 12.56 17.67 13.24 L 17.67 1.8 L 6.47 5.39 L 6.47 15.2 C 6.47 15.29 6.45 15.38 6.42 15.47 C 6.45 15.64 6.47 15.82 6.47 16 C 6.49 17.47 5.51 18.77 4.1 19.16 C 2.68 19.55 1.18 18.93 0.44 17.66 C -0.3 16.39 -0.09 14.78 0.95 13.74 C 1.99 12.71 3.6 12.5 4.87 13.24 L 4.87 4.8 C 4.85 4.56 4.94 4.32 5.12 4.17 C 5.3 4.01 5.55 3.96 5.79 4.02 L 18.28 0.02 C 18.33 0.01 18.39 0 18.44 0.01 C 18.45 0.01 18.47 0 18.47 0 C 18.48 0 18.48 0 18.49 0 C 18.8 0 19.09 0.19 19.2 0.48 C 19.21 0.48 19.21 0.49 19.21 0.49 C 19.22 0.51 19.23 0.53 19.24 0.55 C 19.25 0.59 19.24 0.63 19.25 0.68 C 19.26 0.72 19.27 0.76 19.27 0.8 L 19.27 16 C 19.27 17.77 17.84 19.2 16.07 19.2 L 16.07 19.2 Z M 16.07 14.4 C 15.19 14.4 14.47 15.12 14.47 16 C 14.47 16.88 15.19 17.6 16.07 17.6 C 16.96 17.6 17.67 16.88 17.67 16 C 17.67 15.12 16.96 14.4 16.07 14.4 L 16.07 14.4 Z M 3.27 14.4 C 2.39 14.4 1.67 15.12 1.67 16 C 1.67 16.88 2.39 17.6 3.27 17.6 C 4.16 17.6 4.87 16.88 4.87 16 C 4.87 15.12 4.16 14.4 3.27 14.4 L 3.27 14.4 Z M 3.27 14.4" />
</svg>