<?xml version="1.0" encoding="UTF-8" standalone="no"?>
<svg width="15px" height="20px" viewBox="0 0 15 20" version="1.1" xmlns="http://www.w3.org/2000/svg" xmlns:xlink="http://www.w3.org/1999/xlink">
    <!-- Generator: Sketch 3.8.3 (29802) - http://www.bohemiancoding.com/sketch -->
    <title>NA</title>
    <desc>Created with Sketch.</desc>
    <defs></defs>
    <g id="Icons" stroke="none" stroke-width="1" fill="none" fill-rule="evenodd">
        <g id="Artboard-1" transform="translate(-732.000000, -554.000000)" fill="#000000">
            <path d="M746.374688,574 C746.72,574 746.999688,573.720312 746.999688,573.375 L746.999688,556.5 C746.999688,556.155 746.72,555.875 746.374688,555.875 L743.32375,555.875 L742.55875,554.345625 C742.452813,554.134063 742.236562,554 741.999688,554 L737,554 C736.763125,554 736.546562,554.134063 736.440625,554.345625 L735.675938,555.875 L732.625,555.875 C732.279688,555.875 732,556.155 732,556.5 L732,573.375 C732,573.720312 732.279688,574 732.625,574 L746.374688,574 L746.374688,574 Z M741.557813,562.933125 L738.874688,565.61625 L737.441875,564.183125 C737.1975,563.939062 736.802188,563.939062 736.557813,564.183125 C736.31375,564.427187 736.31375,564.823125 736.557813,565.066875 L738.432813,566.941875 C738.555,567.064062 738.715,567.125 738.874688,567.125 C739.034688,567.125 739.194687,567.064062 739.316875,566.941875 L742.441563,563.816875 C742.685938,563.573125 742.685938,563.177187 742.441563,562.933125 C742.1975,562.689062 741.802188,562.689062 741.557813,562.933125 L741.557813,562.933125 Z M733.25,572.75 L745.749688,572.75 L745.749688,557.125 L743.94875,557.125 L744.3975,558.023125 C744.465937,558.123438 744.505937,558.244375 744.505937,558.375 C744.505937,558.720312 744.22625,559 743.880937,559 L735.125,559 C734.908125,559 734.707188,558.887812 734.593125,558.70375 C734.479375,558.519375 734.469063,558.289375 734.565938,558.095625 L735.050938,557.125 L733.25,557.125 L733.25,572.75 L733.25,572.75 Z M737.38625,555.25 L741.613438,555.25 L742.863438,557.75 L736.13625,557.75 L737.38625,555.25 L737.38625,555.25 Z" id="NA"></path>
        </g>
    </g>
</svg>