<?xml version="1.0" encoding="utf-8"?>
<!-- Generator: Avocode 2.5.4 - http://avocode.com -->
<svg height="15" width="20" xmlns:xlink="http://www.w3.org/1999/xlink" xmlns="http://www.w3.org/2000/svg" viewBox="0 0 20 15">
    <path fill="#000000" fill-rule="evenodd" d="M 10 4.04 L 10 9.79 L 6.25 9.79 L 6.25 4.04 L 10 4.04 Z M 11.25 2.79 L 5 2.79 L 5 11.04 L 11.25 11.04 L 11.25 2.79 Z M 17.5 9.29 L 12.5 9.29 L 12.5 10.54 L 17.5 10.54 L 17.5 9.29 Z M 17.5 6 L 12.5 6 L 12.5 7.25 L 17.5 7.25 L 17.5 6 Z M 17.5 2.79 L 12.5 2.79 L 12.5 4.04 L 17.5 4.04 L 17.5 2.79 Z M 2.5 12.16 C 2.5 12.5 2.22 12.79 1.88 12.79 C 1.53 12.79 1.25 12.5 1.25 12.16 L 1.25 2.79 L 2.5 2.79 L 2.5 12.16 Z M 18.75 12.16 C 18.75 12.5 18.47 12.79 18.13 12.79 L 3.64 12.79 C 3.71 12.59 3.75 12.38 3.75 12.16 L 3.75 1.54 L 18.75 1.54 L 18.75 12.16 Z M 20 0.29 L 2.5 0.29 L 2.5 1.54 L 0 1.54 L 0 12.16 C 0 13.2 0.84 14.04 1.88 14.04 L 18.13 14.04 C 19.16 14.04 20 13.2 20 12.16 L 20 0.29 Z M 20 0.29" />
</svg>