<?xml version="1.0" encoding="UTF-8" standalone="no"?>
<svg width="19px" height="20px" viewBox="0 0 19 20" version="1.1" xmlns="http://www.w3.org/2000/svg" xmlns:xlink="http://www.w3.org/1999/xlink">
    <!-- Generator: Sketch 3.8.3 (29802) - http://www.bohemiancoding.com/sketch -->
    <title>Nightlife</title>
    <desc>Created with Sketch.</desc>
    <defs></defs>
    <g id="Icons" stroke="none" stroke-width="1" fill="none" fill-rule="evenodd">
        <g id="Artboard-1" transform="translate(-131.000000, -454.000000)" fill="#000000">
            <path d="M142.692155,456.859587 C141.862886,455.867504 141.266837,455.143444 141.288439,455.123443 C143.319407,453.419301 146.347258,453.683323 148.051399,455.715492 C149.755541,457.74766 149.490719,460.775911 147.45975,462.480052 C147.45975,462.480052 146.394062,461.231949 145.148759,459.767828 C144.07587,460.303872 143.012582,460.303872 143.012582,460.303872 C143.012582,460.303872 142.083305,464.340207 139.421084,464.720238 L139.421084,472.364872 C139.421084,472.364872 140.09674,472.716901 140.866804,472.920918 C142.048502,473.228943 143.456219,473.460963 143.012582,473.660979 C142.279721,473.993007 135.853588,473.993007 135.011919,473.660979 C134.531079,473.468963 136.061206,473.224943 137.216501,472.920918 C138.084973,472.688899 138.617017,472.364872 138.617017,472.364872 L138.617017,464.724238 C135.944396,464.356208 135.011919,460.303872 135.011919,460.303872 C135.011919,460.303872 133.328979,460.303872 132.038872,459.203781 C130.748765,458.10769 131.024788,456.859587 131.024788,456.859587 L142.692155,456.859587 L142.692155,456.859587 Z M144.894738,456.859587 C144.875136,455.835502 144.831933,454.667405 144.856735,454.671405 C145.685603,454.783415 146.561276,455.171447 147.310938,455.963512 C147.33734,455.995515 146.902104,456.391548 146.390462,456.859587 L144.894738,456.859587 L144.894738,456.859587 Z M144.691521,456.859587 C144.623515,455.827501 144.56351,454.643403 144.526307,454.639403 C143.59943,454.591399 142.763761,454.871422 142.274521,455.283456 C142.27012,455.287456 142.831367,455.959512 143.585429,456.859587 L144.691521,456.859587 L144.691521,456.859587 Z M145.733207,459.411798 C146.674085,460.531891 147.438949,461.439966 147.438949,461.439966 C147.918988,461.035933 148.353424,460.259868 148.473434,459.335792 C148.476635,459.31179 147.375743,459.055769 146.387661,458.811748 C146.276452,458.943759 146.146842,459.07577 145.996029,459.203781 C145.910022,459.279787 145.822415,459.347793 145.733207,459.411798 L145.733207,459.411798 Z M146.574077,458.563728 C147.520555,458.71574 148.505837,458.887755 148.506237,458.863753 C148.513038,458.047685 148.267017,457.155611 147.607763,456.311541 C147.597362,456.29954 147.287336,456.53956 146.878902,456.859587 L147.026514,456.859587 C147.026514,456.859587 147.182927,457.671654 146.574077,458.563728 L146.574077,458.563728 Z M131.810853,457.663653 C131.810853,457.663653 131.908861,458.47172 132.898543,459.055769 C133.894226,459.643817 135.50556,459.703822 135.50556,459.703822 C135.50556,459.703822 136.508843,464.080185 139.031452,464.080185 C141.554461,464.080185 142.488538,459.703822 142.488538,459.703822 C142.488538,459.703822 144.07627,459.719824 145.16836,459.055769 C146.00883,458.543726 146.241649,457.663653 146.241649,457.663653 L131.810853,457.663653 L131.810853,457.663653 Z M139.025451,458.871753 C135.038321,458.875754 132.434905,458.447718 132.628521,458.611732 C132.700927,458.671737 133.191368,458.995764 133.969832,459.207781 C134.696692,459.407798 135.717577,459.495805 135.717577,459.495805 C135.717577,459.495805 136.642854,463.756158 139.025451,463.756158 C141.408049,463.756158 142.228517,459.495805 142.228517,459.495805 C142.228517,459.495805 143.497422,459.495805 144.263485,459.207781 C145.029549,458.919757 145.253567,458.71174 145.40158,458.579729 C145.565593,458.435717 143.012582,458.867753 139.025451,458.871753 L139.025451,458.871753 Z" id="Nightlife"></path>
        </g>
    </g>
</svg>