<?xml version="1.0" encoding="UTF-8" standalone="no"?>
<svg width="21px" height="21px" viewBox="0 0 21 21" version="1.1" xmlns="http://www.w3.org/2000/svg" xmlns:xlink="http://www.w3.org/1999/xlink">
    <!-- Generator: Sketch 3.8.3 (29802) - http://www.bohemiancoding.com/sketch -->
    <title>none</title>
    <desc>Created with Sketch.</desc>
    <defs></defs>
    <g id="Icons" stroke="none" stroke-width="1" fill="none" fill-rule="evenodd">
        <g id="Artboard-1" transform="translate(-955.000000, -1090.000000)" fill="#000000">
            <path d="M968.714302,1100.42856 C968.714302,1098.54017 967.174122,1096.99999 965.285727,1096.99999 C963.397331,1096.99999 961.857151,1098.54017 961.857151,1100.42856 C961.857151,1102.31696 963.397331,1103.85714 965.285727,1103.85714 C967.174122,1103.85714 968.714302,1102.31696 968.714302,1100.42856 L968.714302,1100.42856 Z M965.285727,1093.14284 C969.303588,1093.14284 972.57145,1096.4107 972.57145,1100.42856 C972.57145,1104.44642 969.303588,1107.71428 965.285727,1107.71428 C961.267865,1107.71428 958.000004,1104.44642 958.000004,1100.42856 C958.000004,1096.4107 961.267865,1093.14284 965.285727,1093.14284 L965.285727,1093.14284 Z M975.571453,1100.42856 C975.571453,1094.74998 970.964305,1090.14283 965.285727,1090.14283 C959.607148,1090.14283 955,1094.74998 955,1100.42856 C955,1106.10714 959.607148,1110.71429 965.285727,1110.71429 C970.964305,1110.71429 975.571453,1106.10714 975.571453,1100.42856 L975.571453,1100.42856 Z" id="none"></path>
        </g>
    </g>
</svg>