<?xml version="1.0" encoding="UTF-8" standalone="no"?>
<svg width="20px" height="20px" viewBox="0 0 20 20" version="1.1" xmlns="http://www.w3.org/2000/svg" xmlns:xlink="http://www.w3.org/1999/xlink">
    <!-- Generator: Sketch 3.8.3 (29802) - http://www.bohemiancoding.com/sketch -->
    <title>Non-Profits</title>
    <desc>Created with Sketch.</desc>
    <defs></defs>
    <g id="Icons" stroke="none" stroke-width="1" fill="none" fill-rule="evenodd">
        <g id="Artboard-1" transform="translate(-227.000000, -1055.000000)" fill="#000000">
            <path d="M246.166667,1070 L227.833333,1070 C227.373096,1070 227,1069.6269 227,1069.16667 C227,1068.70643 227.373096,1068.33333 227.833333,1068.33333 L229.5,1068.33333 L229.5,1061.66667 C229.5,1057.98477 232.484768,1055 236.166667,1055 L237.833333,1055 C241.515232,1055 244.5,1057.98477 244.5,1061.66667 L244.5,1068.33333 L246.166667,1068.33333 C246.626904,1068.33333 247,1068.70643 247,1069.16667 C247,1069.6269 246.626904,1070 246.166667,1070 L246.166667,1070 Z M242.833333,1062.5 C242.833333,1059.27834 240.221661,1056.66667 237,1056.66667 C233.778339,1056.66667 231.166667,1059.27834 231.166667,1062.5 L231.166667,1068.33333 L242.833333,1068.33333 L242.833333,1062.5 L242.833333,1062.5 Z M236.166667,1072.5 C236.166667,1072.96024 236.539763,1073.33333 237,1073.33333 C237.460237,1073.33333 237.833333,1072.96024 237.833333,1072.5 L237.833333,1071.66667 L239.5,1071.66667 L239.5,1072.5 C239.5,1073.88071 238.380712,1075 237,1075 C235.619288,1075 234.5,1073.88071 234.5,1072.5 L234.5,1071.66667 L236.166667,1071.66667 L236.166667,1072.5 L236.166667,1072.5 Z" id="Non-Profits"></path>
        </g>
    </g>
</svg>