<?xml version="1.0" encoding="UTF-8" standalone="no"?>
<svg width="20px" height="15px" viewBox="0 0 20 15" version="1.1" xmlns="http://www.w3.org/2000/svg" xmlns:xlink="http://www.w3.org/1999/xlink">
    <!-- Generator: Sketch 3.8.3 (29802) - http://www.bohemiancoding.com/sketch -->
    <title>Other </title>
    <desc>Created with Sketch.</desc>
    <defs></defs>
    <g id="Icons" stroke="none" stroke-width="1" fill="none" fill-rule="evenodd">
        <g id="Artboard-1" transform="translate(-1020.000000, -558.000000)" fill="#000000">
            <path d="M1020,558.62501 L1020,572.374912 C1020,572.72023 1020.28,572.999922 1020.62501,572.999922 L1039.37499,572.999922 C1039.72031,572.999922 1040,572.72023 1040,572.374912 L1040,561.125049 C1040,560.779731 1039.72031,560.500039 1039.37499,560.500039 L1029.6339,560.500039 L1027.31699,558.182815 C1027.1998,558.065626 1027.04074,558 1026.87511,558 L1020.62501,558 C1020.28,558 1020,558.279692 1020,558.62501 L1020,558.62501 Z M1021.25002,559.25002 L1026.61604,559.25002 L1028.93326,561.566931 C1029.05045,561.68412 1029.20921,561.750059 1029.37515,561.750059 L1038.74998,561.750059 L1038.74998,571.749902 L1021.25002,571.749902 L1021.25002,559.25002 L1021.25002,559.25002 Z" id="Other-"></path>
        </g>
    </g>
</svg>