<?xml version="1.0" encoding="UTF-8" standalone="no"?>
<svg width="20px" height="18px" viewBox="0 0 20 18" version="1.1" xmlns="http://www.w3.org/2000/svg" xmlns:xlink="http://www.w3.org/1999/xlink">
    <!-- Generator: Sketch 3.8.3 (29802) - http://www.bohemiancoding.com/sketch -->
    <title>Other </title>
    <desc>Created with Sketch.</desc>
    <defs></defs>
    <g id="Icons" stroke="none" stroke-width="1" fill="none" fill-rule="evenodd">
        <g id="Artboard-1" transform="translate(-428.000000, -1057.000000)" fill="#000000">
            <path d="M429.281559,1069.92793 L428.031487,1073.67814 C427.968984,1073.86909 428.000235,1074.07848 428.118992,1074.2413 C428.234624,1074.40475 428.42526,1074.501 428.625271,1074.501 L447.376345,1074.501 C447.576356,1074.501 447.763867,1074.40475 447.882623,1074.2413 C447.998255,1074.07848 448.032632,1073.86909 447.967003,1073.67814 L446.716932,1069.92793 C446.651303,1069.7326 446.495044,1069.58166 446.298158,1069.52478 L441.922907,1068.27471 C441.769774,1068.23158 441.610389,1068.24689 441.469756,1068.31659 L438.000808,1070.052 L434.528734,1068.31659 C434.388101,1068.24689 434.228717,1068.23158 434.078708,1068.27471 L429.703458,1069.52478 C429.503446,1069.58166 429.347188,1069.7326 429.281559,1069.92793 L429.281559,1069.92793 Z M434.18809,1069.54353 L437.719542,1071.30988 C437.894552,1071.39801 438.103939,1071.39801 438.278949,1071.30988 L441.810401,1069.54353 L445.63562,1070.63609 L446.507545,1073.25093 L429.490946,1073.25093 L430.362871,1070.63609 L434.18809,1069.54353 L434.18809,1069.54353 Z M438.000808,1068.87568 C440.585331,1068.87568 442.688576,1066.21209 442.688576,1062.93784 C442.688576,1059.6639 440.585331,1057 438.000808,1057 C435.416285,1057 433.31304,1059.6639 433.31304,1062.93784 C433.31304,1066.21209 435.416285,1068.87568 438.000808,1068.87568 L438.000808,1068.87568 Z M438.000808,1058.25007 C439.863414,1058.25007 441.438505,1060.39676 441.438505,1062.93784 C441.438505,1065.47892 439.863414,1067.62561 438.000808,1067.62561 C436.135076,1067.62561 434.563111,1065.47892 434.563111,1062.93784 C434.563111,1060.39676 436.135076,1058.25007 438.000808,1058.25007 L438.000808,1058.25007 Z" id="Other-"></path>
        </g>
    </g>
</svg>