<?xml version="1.0" encoding="UTF-8" standalone="no"?>
<svg width="13px" height="20px" viewBox="0 0 13 20" version="1.1" xmlns="http://www.w3.org/2000/svg" xmlns:xlink="http://www.w3.org/1999/xlink">
    <!-- Generator: Sketch 3.8.3 (29802) - http://www.bohemiancoding.com/sketch -->
    <title>Parenting</title>
    <desc>Created with Sketch.</desc>
    <defs></defs>
    <g id="Icons" stroke="none" stroke-width="1" fill="none" fill-rule="evenodd">
        <g id="Artboard-1" transform="translate(-233.000000, -456.000000)" fill="#000000">
            <path d="M239.38362,461.606718 C240.880758,461.606718 242.093566,460.351135 242.093566,458.804932 C242.093566,457.255583 240.880758,456 239.38362,456 C237.885224,456 236.669901,457.255583 236.669901,458.804932 C236.669901,460.351135 237.885224,461.606718 239.38362,461.606718 L239.38362,461.606718 Z M244.192075,463.983896 C244.057458,463.575014 243.28876,462.335158 241.202831,462.323835 L237.119671,462.334529 C235.094761,462.2213 234.286432,463.417752 234.159993,463.948041 C234.159993,463.948041 232.79244,468.314273 233.027075,469.325785 C233.172385,469.953576 234.261899,470.721646 235.421866,471.292823 L233.876921,476 L244.7708,476 L243.268001,471.128012 C244.303416,470.580109 245.213022,469.896333 245.344493,469.325785 C245.582274,468.302321 244.192075,463.983896 244.192075,463.983896 L244.192075,463.983896 Z M237.556861,468.795496 C237.367517,468.879789 237.158043,468.928225 236.938505,468.928225 C236.086772,468.928225 235.397334,468.227464 235.397334,467.363779 C235.397334,466.500094 236.087401,465.799962 236.938505,465.799962 C237.774512,465.799962 238.461434,466.47682 238.484079,467.321004 C238.749538,467.130402 239.021288,467.041077 239.2251,467.003963 L239.2251,467.008366 C239.531447,466.949865 239.769228,467.008366 239.769228,467.008366 C240.797095,467.236082 243.068592,468.24382 243.068592,468.24382 C243.068592,468.24382 241.849494,469.753538 239.63524,469.744103 C239.577368,469.744103 239.520753,469.742845 239.467284,469.740328 L239.466655,469.740328 C239.262843,469.735296 239.079789,469.722086 238.914978,469.701956 C237.869498,469.578663 237.570071,469.188652 237.556861,468.795496 L237.556861,468.795496 Z" id="Parenting"></path>
        </g>
    </g>
</svg>