<?xml version="1.0" encoding="UTF-8" standalone="no"?>
<svg width="20px" height="19px" viewBox="0 0 20 19" version="1.1" xmlns="http://www.w3.org/2000/svg" xmlns:xlink="http://www.w3.org/1999/xlink">
    <!-- Generator: Sketch 3.8.3 (29802) - http://www.bohemiancoding.com/sketch -->
    <title>Pet Owners</title>
    <desc>Created with Sketch.</desc>
    <defs></defs>
    <g id="Icons" stroke="none" stroke-width="1" fill="none" fill-rule="evenodd">
        <g id="Artboard-1" transform="translate(-530.000000, -956.000000)" fill="#000000">
            <path d="M535.987625,967.250856 C537.397853,965.405159 537.591074,963.547102 540.006959,963.547102 C542.898276,963.547102 543.064307,965.813025 544.114871,967.250856 C545.165023,968.688686 548.980012,969.792809 547.155327,972.837384 C545.331053,975.87784 542.234979,972.39244 540.006959,972.39244 C537.778528,972.39244 534.378408,976.096193 532.781139,972.837384 C531.18387,969.574456 534.289419,969.475579 535.987625,967.250856 L535.987625,967.250856 Z M542.431908,962.541857 C543.55869,962.702531 544.677231,961.367697 544.930603,959.567319 C545.183974,957.762821 544.476182,956.172555 543.349401,956.016 C542.223031,955.859446 541.104078,957.19016 540.850706,958.994658 C540.597335,960.795037 541.305539,962.385302 542.431908,962.541857 L542.431908,962.541857 Z M533.087656,966.978945 C534.181067,966.665836 534.661031,964.993173 534.159232,963.242233 C533.657433,961.495413 532.364209,960.329493 531.270799,960.642602 C530.176976,960.955711 529.697425,962.628374 530.198811,964.379314 C530.70061,966.130254 531.993834,967.292054 533.087656,966.978945 L533.087656,966.978945 Z M537.636393,962.529497 C538.76029,962.348224 539.440067,960.749718 539.155385,958.94934 C538.870702,957.153082 537.729089,955.838847 536.605192,956.016 C535.481706,956.193154 534.801518,957.79578 535.0862,959.596158 C535.370882,961.392416 536.512907,962.706651 537.636393,962.529497 L537.636393,962.529497 Z M546.981468,966.995424 C548.080647,967.287934 549.353271,966.101415 549.824171,964.346355 C550.295483,962.587175 549.78668,960.922752 548.687502,960.626123 C547.588736,960.333613 546.316111,961.520132 545.844799,963.279312 C545.3739,965.038491 545.882702,966.698795 546.981468,966.995424 L546.981468,966.995424 Z" id="Pet-Owners"></path>
        </g>
    </g>
</svg>