<?xml version="1.0" encoding="utf-8"?>
<!-- Generator: Adobe Illustrator 16.0.0, SVG Export Plug-In . SVG Version: 6.00 Build 0)  -->
<!DOCTYPE svg PUBLIC "-//W3C//DTD SVG 1.1//EN" "http://www.w3.org/Graphics/SVG/1.1/DTD/svg11.dtd">
<svg version="1.1" id="Layer_1" xmlns="http://www.w3.org/2000/svg" xmlns:xlink="http://www.w3.org/1999/xlink" x="0px" y="0px"
	 width="21.286px" height="17.771px" viewBox="1.347 1.36 21.286 17.771" enable-background="new 1.347 1.36 21.286 17.771"
	 xml:space="preserve">
<g>
	<path d="M14.43,19.131l-0.227-0.029c-0.587-0.156-1.063-0.646-1.481-1.079c-0.29-0.301-0.52-0.532-0.731-0.707l-0.008,0.006
		c-0.202,0.159-0.421,0.387-0.653,0.628c-0.489,0.505-0.965,0.996-1.489,1.138c-0.122,0.026-0.202,0.044-0.3,0.044
		c-2.851,0-5.17-2.266-5.17-5.051c0-0.956,0.254-1.864,0.729-2.639C4.544,11.613,3.928,11.7,3.26,11.7
		c-0.635,0-1.169-0.305-1.506-0.858c-0.27-0.443-0.406-1.027-0.406-1.734c0-2.781,2.343-7.748,7.013-7.748h7.26
		c4.67,0,7.013,4.967,7.013,7.748c0,0.708-0.137,1.291-0.406,1.734c-0.336,0.554-0.871,0.858-1.506,0.858
		c-0.668,0-1.285-0.089-1.842-0.263c0.468,0.769,0.722,1.68,0.722,2.643C19.601,16.865,17.28,19.131,14.43,19.131z M5.95,5.4
		C6.529,5.4,7,5.866,7,6.44v4.722l-0.28,0.307c-0.683,0.692-1.05,1.613-1.05,2.611c0,2.068,1.736,3.75,3.87,3.75
		c0.139-0.046,0.576-0.497,0.787-0.714c0.221-0.229,0.415-0.431,0.604-0.604v-0.729c-0.064-0.022-0.128-0.048-0.192-0.075
		C9.651,15.214,8.96,14.149,8.96,12.99c0-1.644,1.359-2.98,3.03-2.98s3.03,1.336,3.03,2.98c0,1.165-0.692,2.229-1.764,2.712
		c-0.07,0.029-0.139,0.057-0.207,0.081v0.733c0.179,0.164,0.363,0.351,0.549,0.542c0.263,0.271,0.69,0.712,0.874,0.771
		c2.114-0.022,3.827-1.696,3.827-3.75c0-1.004-0.363-1.925-1.022-2.594l-0.298-0.323V6.44c0-0.574,0.471-1.04,1.05-1.04
		c0.585,0,1.061,0.466,1.061,1.04v3.696c0.473,0.175,1.02,0.264,1.631,0.264c0.18,0,0.295-0.068,0.396-0.234
		c0.14-0.23,0.217-0.605,0.217-1.058c0-2.25-1.962-6.448-5.713-6.448H8.36c-3.75,0-5.713,4.198-5.713,6.448
		c0,0.452,0.077,0.828,0.217,1.058C2.965,10.332,3.08,10.4,3.26,10.4c0.617,0,1.167-0.089,1.64-0.264V6.44
		C4.9,5.866,5.371,5.4,5.95,5.4z M11.99,11.311c-0.954,0-1.73,0.753-1.73,1.68c0,0.651,0.393,1.251,1,1.527
		c0.141,0.06,0.287,0.104,0.442,0.134l0.289,0.056l0.288-0.056c0.155-0.029,0.301-0.074,0.46-0.142
		c0.591-0.266,0.981-0.864,0.981-1.52C13.72,12.063,12.944,11.311,11.99,11.311z M10.44,9.33c-0.405,0-0.809-0.184-1.078-0.491
		C9.139,8.599,9.01,8.264,9.01,7.91c0-0.783,0.641-1.42,1.43-1.42c0.794,0,1.44,0.637,1.44,1.42
		C11.862,8.713,11.216,9.33,10.44,9.33z M13.577,9.33c-0.819,0-1.451-0.602-1.486-1.369c0.018-0.845,0.663-1.47,1.438-1.47h0.021
		c0.803,0.018,1.421,0.642,1.421,1.42c0,0.354-0.129,0.688-0.363,0.941c-0.246,0.281-0.625,0.46-1.028,0.478
		C13.578,9.33,13.578,9.33,13.577,9.33z M13.529,7.14v0.65c-0.075,0-0.138,0.056-0.14,0.125c0.003,0.057,0.065,0.115,0.14,0.115
		c0.051-0.002,0.093-0.027,0.111-0.048c0.029-0.139-0.028-0.191-0.105-0.192L13.529,7.14z"/>
</g>
</svg>
