<?xml version="1.0" encoding="UTF-8" standalone="no"?>
<svg width="20px" height="20px" viewBox="0 0 20 20" version="1.1" xmlns="http://www.w3.org/2000/svg" xmlns:xlink="http://www.w3.org/1999/xlink">
    <!-- Generator: Sketch 3.8.3 (29802) - http://www.bohemiancoding.com/sketch -->
    <title>Photo</title>
    <desc>Created with Sketch.</desc>
    <defs></defs>
    <g id="Icons" stroke="none" stroke-width="1" fill="none" fill-rule="evenodd">
        <g id="Artboard-1" transform="translate(-1021.000000, -455.000000)" fill="#000000">
            <path d="M1039.33333,475 L1022.66667,475 C1021.74619,475 1021,474.253808 1021,473.333333 L1021,456.666667 C1021,455.746192 1021.74619,455 1022.66667,455 L1039.33333,455 C1040.25381,455 1041,455.746192 1041,456.666667 L1041,473.333333 C1041,474.253808 1040.25381,475 1039.33333,475 L1039.33333,475 Z M1039.33333,456.666667 L1022.66667,456.666667 L1022.66667,464.166667 L1026.91667,464.166667 C1027.31099,462.22473 1029.01843,460.829156 1031,460.829156 C1032.98157,460.829156 1034.68901,462.22473 1035.08333,464.166667 L1039.33333,464.166667 L1039.33333,456.666667 L1039.33333,456.666667 Z M1028.5,465 C1028.5,466.380712 1029.61929,467.5 1031,467.5 C1032.38071,467.5 1033.5,466.380712 1033.5,465 C1033.5,463.619288 1032.38071,462.5 1031,462.5 C1029.61929,462.5 1028.5,463.619288 1028.5,465 L1028.5,465 Z M1039.33333,465.833333 L1035.08333,465.833333 C1034.68901,467.77527 1032.98157,469.170844 1031,469.170844 C1029.01843,469.170844 1027.31099,467.77527 1026.91667,465.833333 L1022.66667,465.833333 L1022.66667,473.333333 L1039.33333,473.333333 L1039.33333,465.833333 L1039.33333,465.833333 Z M1036.41667,458.333333 C1037.10702,458.333333 1037.66667,458.892977 1037.66667,459.583333 C1037.66667,460.273689 1037.10702,460.833333 1036.41667,460.833333 C1035.72631,460.833333 1035.16667,460.273689 1035.16667,459.583333 C1035.16667,458.892977 1035.72631,458.333333 1036.41667,458.333333 L1036.41667,458.333333 Z" id="Photo"></path>
        </g>
    </g>
</svg>