<?xml version="1.0" encoding="UTF-8" standalone="no"?>
<svg width="20px" height="20px" viewBox="0 0 20 20" version="1.1" xmlns="http://www.w3.org/2000/svg" xmlns:xlink="http://www.w3.org/1999/xlink">
    <!-- Generator: Sketch 3.8.3 (29802) - http://www.bohemiancoding.com/sketch -->
    <title>Pilot</title>
    <desc>Created with Sketch.</desc>
    <defs></defs>
    <g id="Icons" stroke="none" stroke-width="1" fill="none" fill-rule="evenodd">
        <g id="Artboard-1" transform="translate(-1029.000000, -856.000000)" fill="#000000">
            <path d="M1048.68753,856.122764 C1048.57593,856.044641 1048.43085,856 1048.28576,856 C1048.163,856 1048.04023,856.033481 1047.92863,856.100443 L1029.35778,866.814395 C1029.12341,866.94832 1028.98949,867.205008 1029.00065,867.472857 C1029.02297,867.751866 1029.19037,867.986234 1029.44706,868.086677 L1033.85541,869.894657 L1045.78584,859.571317 L1036.14328,871.390146 L1036.14328,875.285114 C1036.14328,875.586444 1036.33301,875.854293 1036.61202,875.954736 C1036.69014,875.988217 1036.77942,875.999377 1036.85754,875.999377 C1037.06959,875.999377 1037.27048,875.910094 1037.4044,875.742689 L1040.10521,872.450381 L1045.16086,874.515049 C1045.25014,874.54853 1045.33942,874.57085 1045.42871,874.57085 C1045.55147,874.57085 1045.67423,874.537369 1045.77468,874.481568 C1045.9644,874.369964 1046.09833,874.191398 1046.13181,873.979351 L1048.98886,856.837028 C1049.0335,856.558018 1048.9219,856.29017 1048.68753,856.122764 L1048.68753,856.122764 Z" id="Pilot"></path>
        </g>
    </g>
</svg>