<?xml version="1.0" encoding="utf-8"?>
<!-- Generator: Avocode 2.5.4 - http://avocode.com -->
<svg height="20" width="20" xmlns:xlink="http://www.w3.org/1999/xlink" xmlns="http://www.w3.org/2000/svg" viewBox="0 0 20 20">
    <path fill="#101010" fill-rule="evenodd" d="M 2.5 18.39 C 2.5 18.92 2.5 20 2.5 20 L 4.12 20 L 17.5 20 C 17.5 20 17.5 19.29 17.5 18.4 L 16.17 18.4 L 16.17 10.4 L 17.98 10.4 C 18.71 10.35 20 10.11 20 9 C 19.99 8.79 19.91 8.59 19.76 8.44 L 10.67 0.35 C 10.65 0.31 10.63 0.27 10.59 0.23 C 10.26 -0.08 9.74 -0.08 9.41 0.23 C 9.37 0.27 9.35 0.31 9.32 0.35 L 0.24 8.44 C 0.09 8.59 0.01 8.79 0.01 9.05 C 0.01 10.37 1.61 10.31 2.32 10.4 L 4.01 10.4 L 4.01 18.4 L 2.5 18.4 Z M 11.17 18.4 L 14.01 18.4 L 14.01 10.4 L 11.17 10.4 L 11.17 18.4 Z M 6.17 18.4 L 9.01 18.4 L 9.01 10.4 L 6.17 10.4 L 6.17 18.4 Z M 10 1.99 L 1.98 9 L 4.17 9 L 15.83 9 L 18.02 9 L 10 1.99 Z M 10 1.99" />
</svg>