<?xml version="1.0" encoding="UTF-8" standalone="no"?>
<svg width="22px" height="21px" viewBox="0 0 22 21" version="1.1" xmlns="http://www.w3.org/2000/svg" xmlns:xlink="http://www.w3.org/1999/xlink">
    <!-- Generator: Sketch 3.8.3 (29802) - http://www.bohemiancoding.com/sketch -->
    <title>3D Printing</title>
    <desc>Created with Sketch.</desc>
    <defs></defs>
    <g id="Icons" stroke="none" stroke-width="1" fill="none" fill-rule="evenodd">
        <g id="Artboard-1" transform="translate(-1020.000000, -157.000000)" fill="#000000">
            <path d="M1037.66483,157 L1024.33425,157 L1024.33425,162.346313 L1024.33425,165.25 L1020.91437,165.20875 C1020.40929,165.204167 1020,165.612083 1020,166.11625 L1020,172.601667 C1020,173.105833 1020.40746,173.51375 1020.91804,173.509167 L1024.59158,173.5 L1022.77246,177.166667 L1039.25458,177.166667 C1039.25458,177.166667 1037.4185,173.51375 1037.4185,173.5 C1037.4185,173.495417 1041.08379,173.509167 1041.08379,173.509167 C1041.58979,173.51375 1042,173.10125 1042,172.601667 L1042,166.11625 C1042,165.612083 1041.59025,165.204167 1041.08608,165.204167 C1041.08608,165.204167 1037.66483,165.204167 1037.66483,165.25 C1037.66483,165.2775 1037.66483,157 1037.66483,157 Z M1025.25,165.25 L1036.75,165.25 L1036.75,157.916667 L1025.25,157.916667 L1025.25,165.25 Z M1025.54767,173.5 L1024.25883,176.25 L1037.78425,176.25 L1036.47387,173.5 L1025.54767,173.5 L1025.54767,173.5 Z M1024.58333,168 C1024.83679,168 1025.04167,167.79375 1025.04167,167.541667 C1025.04167,167.285 1024.83679,167.083333 1024.58333,167.083333 C1024.33033,167.083333 1024.125,167.285 1024.125,167.541667 C1024.125,167.79375 1024.33033,168 1024.58333,168 L1024.58333,168 Z M1026.41667,168 C1026.67012,168 1026.875,167.79375 1026.875,167.541667 C1026.875,167.285 1026.67012,167.083333 1026.41667,167.083333 C1026.16367,167.083333 1025.95833,167.285 1025.95833,167.541667 C1025.95833,167.79375 1026.16367,168 1026.41667,168 L1026.41667,168 Z M1022.75,168 C1023.00346,168 1023.20833,167.79375 1023.20833,167.541667 C1023.20833,167.285 1023.00346,167.083333 1022.75,167.083333 C1022.497,167.083333 1022.29167,167.285 1022.29167,167.541667 C1022.29167,167.79375 1022.497,168 1022.75,168 L1022.75,168 Z M1027.56112,173.958333 C1027.43554,173.958333 1027.33333,174.06375 1027.33333,174.1875 C1027.33333,174.31125 1027.43737,174.416667 1027.56112,174.416667 L1034.43933,174.416667 C1034.56492,174.416667 1034.66667,174.31125 1034.66667,174.1875 C1034.66667,174.059167 1034.56308,173.958333 1034.43933,173.958333 L1027.56112,173.958333 L1027.56112,173.958333 Z M1027.10462,174.875 C1026.97767,174.875 1026.875,174.980417 1026.875,175.104167 C1026.875,175.227917 1026.9795,175.333333 1027.10462,175.333333 L1034.89583,175.333333 C1035.02233,175.333333 1035.125,175.227917 1035.125,175.104167 C1035.125,174.975833 1035.02096,174.875 1034.89583,174.875 L1027.10462,174.875 L1027.10462,174.875 Z" id="3D-Printing"></path>
        </g>
    </g>
</svg>