<?xml version="1.0" encoding="UTF-8" standalone="no"?>
<svg width="20px" height="20px" viewBox="0 0 20 20" version="1.1" xmlns="http://www.w3.org/2000/svg" xmlns:xlink="http://www.w3.org/1999/xlink">
    <!-- Generator: Sketch 3.8.3 (29802) - http://www.bohemiancoding.com/sketch -->
    <title>Professionals </title>
    <desc>Created with Sketch.</desc>
    <defs></defs>
    <g id="Icons" stroke="none" stroke-width="1" fill="none" fill-rule="evenodd">
        <g id="Artboard-1" transform="translate(-530.000000, -456.000000)" fill="#000000">
            <path d="M548.333333,476 L531.666667,476 C530.746192,476 530,475.253808 530,474.333333 L530,461 C530,460.079525 530.746192,459.333333 531.666667,459.333333 L535.833333,459.333333 L535.833333,457.666667 C535.833333,456.746192 536.579525,456 537.5,456 L542.5,456 C543.420475,456 544.166667,456.746192 544.166667,457.666667 L544.166667,459.333333 L548.333333,459.333333 C549.253808,459.333333 550,460.079525 550,461 L550,474.333333 C550,475.253808 549.253808,476 548.333333,476 L548.333333,476 Z M542.5,457.666667 L537.5,457.666667 L537.5,459.333333 L542.5,459.333333 L542.5,457.666667 L542.5,457.666667 Z M548.333333,468.5 L544.166667,468.5 C544.166667,469.420475 543.420475,470.166667 542.5,470.166667 L537.5,470.166667 C536.579525,470.166667 535.833333,469.420475 535.833333,468.5 L531.666667,468.5 L531.666667,466.833333 L535.833333,466.833333 C535.833333,465.912859 536.579525,465.166667 537.5,465.166667 L542.5,465.166667 C543.420475,465.166667 544.166667,465.912859 544.166667,466.833333 L548.333333,466.833333 L548.333333,461 L531.666667,461 L531.666667,474.333333 L548.333333,474.333333 L548.333333,468.5 L548.333333,468.5 Z M542.5,467.666667 C542.5,467.206429 542.126904,466.833333 541.666667,466.833333 L538.333333,466.833333 C537.873096,466.833333 537.5,467.206429 537.5,467.666667 C537.5,468.126904 537.873096,468.5 538.333333,468.5 L541.666667,468.5 C542.126904,468.5 542.5,468.126904 542.5,467.666667 L542.5,467.666667 Z" id="Professionals-"></path>
        </g>
    </g>
</svg>