<?xml version="1.0" encoding="UTF-8" standalone="no"?>
<svg width="20px" height="20px" viewBox="0 0 20 20" version="1.1" xmlns="http://www.w3.org/2000/svg" xmlns:xlink="http://www.w3.org/1999/xlink">
    <!-- Generator: Sketch 3.8.3 (29802) - http://www.bohemiancoding.com/sketch -->
    <title>Publishing</title>
    <desc>Created with Sketch.</desc>
    <defs></defs>
    <g id="Icons" stroke="none" stroke-width="1" fill="none" fill-rule="evenodd">
        <g id="Artboard-1" transform="translate(-629.000000, -456.000000)" fill="#101010">
            <path d="M647.333333,476 L642.333333,476 C641.412859,476 640.666667,475.253808 640.666667,474.333333 L640.666667,469.333333 C640.666667,468.412859 641.412859,467.666667 642.333333,467.666667 L647.333333,467.666667 C648.253808,467.666667 649,468.412859 649,469.333333 L649,474.333333 C649,475.253808 648.253808,476 647.333333,476 L647.333333,476 Z M647.333333,469.333333 L642.333333,469.333333 L642.333333,474.333333 L647.333333,474.333333 L647.333333,469.333333 L647.333333,469.333333 Z M647.333333,464.333333 L642.333333,464.333333 C641.412859,464.333333 640.666667,463.587141 640.666667,462.666667 L640.666667,457.666667 C640.666667,456.746192 641.412859,456 642.333333,456 L647.333333,456 C648.253808,456 649,456.746192 649,457.666667 L649,462.666667 C649,463.587141 648.253808,464.333333 647.333333,464.333333 L647.333333,464.333333 Z M647.333333,457.666667 L642.333333,457.666667 L642.333333,462.666667 L647.333333,462.666667 L647.333333,457.666667 L647.333333,457.666667 Z M635.666667,476 L630.666667,476 C629.746192,476 629,475.253808 629,474.333333 L629,469.333333 C629,468.412859 629.746192,467.666667 630.666667,467.666667 L635.666667,467.666667 C636.587141,467.666667 637.333333,468.412859 637.333333,469.333333 L637.333333,474.333333 C637.333333,475.253808 636.587141,476 635.666667,476 L635.666667,476 Z M635.666667,469.333333 L630.666667,469.333333 L630.666667,474.333333 L635.666667,474.333333 L635.666667,469.333333 L635.666667,469.333333 Z M635.666667,464.333333 L630.666667,464.333333 C629.746192,464.333333 629,463.587141 629,462.666667 L629,457.666667 C629,456.746192 629.746192,456 630.666667,456 L635.666667,456 C636.587141,456 637.333333,456.746192 637.333333,457.666667 L637.333333,462.666667 C637.333333,463.587141 636.587141,464.333333 635.666667,464.333333 L635.666667,464.333333 Z M635.666667,457.666667 L630.666667,457.666667 L630.666667,462.666667 L635.666667,462.666667 L635.666667,457.666667 L635.666667,457.666667 Z" id="Publishing"></path>
        </g>
    </g>
</svg>