<?xml version="1.0" encoding="UTF-8" standalone="no"?>
<svg width="19px" height="20px" viewBox="0 0 19 20" version="1.1" xmlns="http://www.w3.org/2000/svg" xmlns:xlink="http://www.w3.org/1999/xlink">
    <!-- Generator: Sketch 3.8.3 (29802) - http://www.bohemiancoding.com/sketch -->
    <title>Real estate 2</title>
    <desc>Created with Sketch.</desc>
    <defs></defs>
    <g id="Icons" stroke="none" stroke-width="1" fill="none" fill-rule="evenodd">
        <g id="Artboard-1" transform="translate(-1521.000000, -456.000000)">
            <g id="Real-estate-2" transform="translate(1521.000000, 456.000000)">
                <rect id="Rectangle-15" fill="#000000" x="10" y="3" width="9" height="17"></rect>
                <rect id="Rectangle-15" fill="#000000" x="0" y="0" width="9" height="20"></rect>
                <rect id="Rectangle-17" fill="#FFFFFF" x="2" y="3" width="5" height="2"></rect>
                <rect id="Rectangle-17" fill="#FFFFFF" x="2" y="7" width="5" height="2"></rect>
                <rect id="Rectangle-17" fill="#FFFFFF" x="2" y="11" width="5" height="2"></rect>
                <rect id="Rectangle-17" fill="#FFFFFF" x="2" y="15" width="5" height="2"></rect>
                <rect id="Rectangle-17" fill="#FFFFFF" x="12" y="7" width="2" height="2"></rect>
                <rect id="Rectangle-17" fill="#FFFFFF" x="15" y="7" width="2" height="2"></rect>
                <rect id="Rectangle-17" fill="#FFFFFF" x="12" y="10" width="2" height="2"></rect>
                <rect id="Rectangle-17" fill="#FFFFFF" x="15" y="10" width="2" height="2"></rect>
                <rect id="Rectangle-17" fill="#FFFFFF" x="12" y="13" width="2" height="2"></rect>
                <rect id="Rectangle-17" fill="#FFFFFF" x="15" y="13" width="2" height="2"></rect>
                <rect id="Rectangle-17" fill="#FFFFFF" x="12" y="16" width="2" height="2"></rect>
                <rect id="Rectangle-17" fill="#FFFFFF" x="15" y="16" width="2" height="2"></rect>
            </g>
        </g>
    </g>
</svg>