<?xml version="1.0" encoding="utf-8"?>
<!-- Generator: Avocode 2.5.4 - http://avocode.com -->
<svg height="15" width="22" xmlns:xlink="http://www.w3.org/1999/xlink" xmlns="http://www.w3.org/2000/svg" viewBox="0 0 22 15">
    <path fill="#000000" fill-rule="evenodd" d="M 11.35 0 C 7.22 0 3.86 3.36 3.86 7.49 C 3.86 11.62 7.22 14.98 11.35 14.98 C 15.48 14.98 18.84 11.62 18.84 7.49 C 18.84 3.36 15.48 0 11.35 0 L 11.35 0 Z M 11.35 14.28 C 7.61 14.28 4.56 11.23 4.56 7.49 C 4.56 3.75 7.61 0.7 11.35 0.7 C 15.09 0.7 18.14 3.75 18.14 7.49 C 18.14 11.23 15.09 14.28 11.35 14.28 L 11.35 14.28 Z M 11.35 14.28" />
    <path fill="#000000" fill-rule="evenodd" d="M 3.16 0 C 2.97 0 2.81 0.16 2.81 0.35 L 2.81 3.28 L 2.11 3.28 L 2.11 0.35 C 2.11 0.16 1.95 0 1.76 0 C 1.56 0 1.4 0.16 1.4 0.35 L 1.4 3.28 L 0.7 3.28 L 0.7 0.35 C 0.7 0.16 0.54 0 0.35 0 C 0.16 0 0 0.16 0 0.35 L 0 4.56 C 0 5.41 0.6 6.12 1.4 6.28 L 1.4 14.63 C 1.4 14.82 1.56 14.98 1.76 14.98 C 1.95 14.98 2.11 14.82 2.11 14.63 L 2.11 6.28 C 2.91 6.12 3.51 5.41 3.51 4.56 L 3.51 0.35 C 3.51 0.16 3.35 0 3.16 0 L 3.16 0 Z M 1.76 5.62 C 1.17 5.62 0.7 5.14 0.7 4.56 L 0.7 3.98 L 2.81 3.98 L 2.81 4.56 C 2.81 5.14 2.34 5.62 1.76 5.62 L 1.76 5.62 Z M 1.76 5.62" />
    <path fill="#000000" fill-rule="evenodd" d="M 21.65 0 C 20.68 0 19.89 0.79 19.89 1.76 L 19.89 8.19 C 19.89 8.39 20.05 8.54 20.24 8.54 L 21.3 8.54 L 21.3 14.63 C 21.3 14.82 21.46 14.98 21.65 14.98 C 21.84 14.98 22 14.82 22 14.63 L 22 0.35 C 22 0.16 21.84 0 21.65 0 L 21.65 0 Z M 21.3 7.84 L 20.6 7.84 L 20.6 1.76 C 20.6 1.3 20.89 0.91 21.3 0.76 L 21.3 7.84 L 21.3 7.84 Z M 21.3 7.84" />
</svg>