<?xml version="1.0" encoding="UTF-8" standalone="no"?>
<svg width="22px" height="18px" viewBox="0 0 22 18" version="1.1" xmlns="http://www.w3.org/2000/svg" xmlns:xlink="http://www.w3.org/1999/xlink">
    <!-- Generator: Sketch 3.8.3 (29802) - http://www.bohemiancoding.com/sketch -->
    <title>seed</title>
    <desc>Created with Sketch.</desc>
    <defs></defs>
    <g id="Icons" stroke="none" stroke-width="1" fill="none" fill-rule="evenodd">
        <g id="Artboard-1" transform="translate(-1133.000000, -1093.000000)" fill="#000000">
            <path d="M1152.64288,1093.2857 L1134.78572,1093.2857 C1133.80357,1093.2857 1133,1094.08927 1133,1095.07141 L1133,1108.64286 C1133,1109.625 1133.80357,1110.42857 1134.78572,1110.42857 L1152.64288,1110.42857 C1153.62502,1110.42857 1154.4286,1109.625 1154.4286,1108.64286 L1154.4286,1095.07141 C1154.4286,1094.08927 1153.62502,1093.2857 1152.64288,1093.2857 L1152.64288,1093.2857 Z M1134.78572,1094.71427 L1152.64288,1094.71427 C1152.83261,1094.71427 1153.00002,1094.88168 1153.00002,1095.07141 L1153.00002,1097.57141 L1134.42857,1097.57141 L1134.42857,1095.07141 C1134.42857,1094.88168 1134.59598,1094.71427 1134.78572,1094.71427 L1134.78572,1094.71427 Z M1152.64288,1109 L1134.78572,1109 C1134.59598,1109 1134.42857,1108.83259 1134.42857,1108.64286 L1134.42857,1101.85713 L1153.00002,1101.85713 L1153.00002,1108.64286 C1153.00002,1108.83259 1152.83261,1109 1152.64288,1109 L1152.64288,1109 Z M1135.85715,1107.57143 L1138.71429,1107.57143 L1138.71429,1106.14285 L1135.85715,1106.14285 L1135.85715,1107.57143 Z M1140.14287,1107.57143 L1144.42859,1107.57143 L1144.42859,1106.14285 L1140.14287,1106.14285 L1140.14287,1107.57143 Z" id="seed"></path>
        </g>
    </g>
</svg>