<?xml version="1.0" encoding="UTF-8" standalone="no"?>
<svg width="11px" height="21px" viewBox="0 0 11 21" version="1.1" xmlns="http://www.w3.org/2000/svg" xmlns:xlink="http://www.w3.org/1999/xlink">
    <!-- Generator: Sketch 3.8.3 (29802) - http://www.bohemiancoding.com/sketch -->
    <title>series B</title>
    <desc>Created with Sketch.</desc>
    <defs></defs>
    <g id="Icons" stroke="none" stroke-width="1" fill="none" fill-rule="evenodd">
        <g id="Artboard-1" transform="translate(-1351.000000, -1087.000000)" fill="#000000">
            <path d="M1361.91519,1101.08258 C1361.91519,1098.39285 1359.59376,1097.48883 1357.54019,1096.69642 C1355.95536,1096.08258 1354.59375,1095.55802 1354.59375,1094.37499 C1354.59375,1093.35936 1355.5759,1092.65624 1356.99331,1092.65624 C1358.66742,1092.65624 1360.01787,1093.85043 1360.02903,1093.86159 C1360.11831,1093.92856 1360.21876,1093.96204 1360.33037,1093.93972 C1360.44198,1093.92856 1360.53126,1093.86159 1360.58707,1093.76115 L1361.49108,1092.13168 C1361.56921,1091.99775 1361.54689,1091.83034 1361.43528,1091.70757 C1361.39064,1091.66293 1360.18528,1090.43525 1357.91965,1090.17855 L1357.91965,1088.21427 C1357.91965,1088.01337 1357.7634,1087.85712 1357.56251,1087.85712 L1356.05581,1087.85712 C1355.86608,1087.85712 1355.69867,1088.01337 1355.69867,1088.21427 L1355.69867,1090.2232 C1353.36607,1090.66963 1351.75893,1092.36606 1351.75893,1094.41963 C1351.75893,1097.22097 1354.25893,1098.22544 1356.26786,1099.01785 C1357.77456,1099.62053 1359.09153,1100.14508 1359.09153,1101.21651 C1359.09153,1102.47768 1357.90849,1103.05803 1356.81474,1103.05803 C1354.83929,1103.05803 1353.27679,1101.5625 1353.25447,1101.55134 C1353.1875,1101.47321 1353.08706,1101.43973 1352.98661,1101.45089 C1352.88616,1101.46205 1352.78572,1101.50669 1352.72991,1101.58482 L1351.58036,1103.09152 C1351.47991,1103.22544 1351.49107,1103.41518 1351.60268,1103.54911 C1351.65848,1103.61607 1353.08706,1105.17857 1355.69867,1105.54688 L1355.69867,1107.5 C1355.69867,1107.7009 1355.86608,1107.85715 1356.05581,1107.85715 L1357.56251,1107.85715 C1357.7634,1107.85715 1357.91965,1107.7009 1357.91965,1107.5 L1357.91965,1105.54688 C1360.28573,1105.15625 1361.91519,1103.35937 1361.91519,1101.08258 L1361.91519,1101.08258 Z" id="series-B"></path>
        </g>
    </g>
</svg>