<?xml version="1.0" encoding="UTF-8" standalone="no"?>
<svg width="20px" height="20px" viewBox="0 0 20 20" version="1.1" xmlns="http://www.w3.org/2000/svg" xmlns:xlink="http://www.w3.org/1999/xlink">
    <!-- Generator: Sketch 3.8.3 (29802) - http://www.bohemiancoding.com/sketch -->
    <title>Sharing </title>
    <desc>Created with Sketch.</desc>
    <defs></defs>
    <g id="Icons" stroke="none" stroke-width="1" fill="none" fill-rule="evenodd">
        <g id="Artboard-1" transform="translate(-1118.000000, -455.000000)" fill="#000000">
            <path d="M1134.66911,461.661679 C1133.62322,461.660894 1132.63887,461.167179 1132.01281,460.329363 L1124.65176,464.735999 C1124.66008,464.823433 1124.67674,464.902539 1124.67674,464.995801 C1124.67674,465.102386 1124.65176,465.203143 1124.64343,465.30723 L1131.97117,469.720528 C1132.93113,468.397825 1134.71109,467.970776 1136.16669,468.713941 C1137.62229,469.457107 1138.32027,471.14929 1137.81188,472.702545 C1137.30349,474.2558 1135.74006,475.207813 1134.12675,474.946512 C1132.51343,474.685211 1131.33043,473.28837 1131.33832,471.654052 C1131.33832,471.52998 1131.3633,471.411737 1131.37163,471.290996 L1124.02723,466.947645 C1123.18432,468.110027 1121.69139,468.601423 1120.32288,468.166929 C1118.95436,467.732435 1118.0183,466.469857 1118.00026,465.034132 C1117.98223,463.598407 1118.88628,462.312717 1120.24346,461.843988 C1121.60063,461.375259 1123.10543,461.829003 1123.97727,462.969847 L1131.37163,458.648979 C1131.3633,458.543226 1131.33832,458.439972 1131.33832,458.330888 C1131.33832,456.983709 1132.14984,455.769182 1133.39447,455.253639 C1134.6391,454.738096 1136.07174,455.023064 1137.02434,455.975663 C1137.97694,456.928263 1138.2619,458.360896 1137.74636,459.605527 C1137.23082,460.850158 1136.01629,461.661679 1134.66911,461.661679 L1134.66911,461.661679 Z M1134.66911,473.319448 C1135.58888,473.319448 1136.33451,472.573825 1136.33451,471.654052 C1136.33451,470.73428 1135.58888,469.988657 1134.66911,469.988657 C1133.74934,469.988657 1133.00372,470.73428 1133.00372,471.654052 C1133.00372,472.573825 1133.74934,473.319448 1134.66911,473.319448 L1134.66911,473.319448 Z M1121.34595,463.327075 C1120.42618,463.327075 1119.68055,464.072698 1119.68055,464.99247 C1119.68055,465.912243 1120.42618,466.657866 1121.34595,466.657866 C1122.26572,466.657866 1123.01134,465.912243 1123.01134,464.99247 C1123.01134,464.072698 1122.26572,463.327075 1121.34595,463.327075 L1121.34595,463.327075 Z M1134.66911,456.665493 C1133.74934,456.665493 1133.00372,457.411116 1133.00372,458.330888 C1133.00372,459.250661 1133.74934,459.996284 1134.66911,459.996284 C1135.58888,459.996284 1136.33451,459.250661 1136.33451,458.330888 C1136.33451,457.411116 1135.58888,456.665493 1134.66911,456.665493 L1134.66911,456.665493 Z" id="Sharing-"></path>
        </g>
    </g>
</svg>