<?xml version="1.0" encoding="UTF-8" standalone="no"?>
<svg width="20px" height="20px" viewBox="0 0 20 20" version="1.1" xmlns="http://www.w3.org/2000/svg" xmlns:xlink="http://www.w3.org/1999/xlink">
    <!-- Generator: Sketch 3.8.3 (29802) - http://www.bohemiancoding.com/sketch -->
    <title>Shopping </title>
    <desc>Created with Sketch.</desc>
    <defs></defs>
    <g id="Icons" stroke="none" stroke-width="1" fill="none" fill-rule="evenodd">
        <g id="Artboard-1" transform="translate(-231.000000, -557.000000)" fill="#000000">
            <path d="M232.275,563.25 L235.186875,558.25 L246.794375,558.25 L249.768125,563.25 L232.275,563.25 L232.275,563.25 Z M249.75,565.75 C249.740625,566.613125 248.74625,567.000625 247.875,567 C246.870625,566.999375 245.965625,566.39125 245.965625,565.75 L245.375,565.75 C245.375,566.380625 244.255625,567 243.291875,567 C242.3675,567 241.2925,566.36125 241.2925,565.75 L240.686875,565.75 C240.686875,566.380625 239.593125,567 238.669375,567 C237.705625,567 236.605625,566.55625 236.605625,565.75 L236.01375,565.75 C236.01375,566.37875 235.04875,567.019375 234.121875,567.019375 C233.181875,567.019375 232.25,566.613125 232.25,565.75 L232.25,564.5 L249.75,564.5 L249.75,565.75 L249.75,565.75 Z M249.125,572 L232.876875,572 L232.875,568.25 L234.1025,568.25 C234.77375,568.25 235.838125,567.65125 236.28875,566.735 C236.794375,567.625625 237.738125,568.25 238.639375,568.25 C239.59125,568.25 240.639375,567.68375 240.989375,566.865 C241.34,567.664375 242.36625,568.25 243.29875,568.25 C244.22375,568.25 245.181875,567.57 245.666875,566.64125 C246.23375,567.57875 246.69125,568.25 247.875,568.25 C248.058125,568.25 248.965,568.28 249.125,568.25 L249.125,572 L249.125,572 Z M249.125,574.5 C249.125,575.19 248.46875,575.75 247.756875,575.75 L234.2225,575.75 C233.510625,575.75 232.876875,575.19 232.876875,574.5 L232.876875,573.25 L249.125,573.25 L249.125,574.5 L249.125,574.5 Z M247.34625,557 L234.633125,557 L231,563.25 L231,565.75 C231,566.415625 231.239375,567.143125 231.625625,567.625 L231.644375,574.5 C231.644375,575.880625 232.79875,577 234.2225,577 L247.756875,577 C249.180625,577 250.375,575.880625 250.375,574.5 L250.375,567.625 C250.8125,567.11 251,566.58125 251,565.75 L251,563.25 L247.34625,557 L247.34625,557 Z" id="Shopping-"></path>
        </g>
    </g>
</svg>