<?xml version="1.0" encoding="UTF-8" standalone="no"?>
<svg width="16px" height="20px" viewBox="0 0 16 20" version="1.1" xmlns="http://www.w3.org/2000/svg" xmlns:xlink="http://www.w3.org/1999/xlink">
    <!-- Generator: Sketch 3.8.3 (29802) - http://www.bohemiancoding.com/sketch -->
    <title>Singles</title>
    <desc>Created with Sketch.</desc>
    <defs></defs>
    <g id="Icons" stroke="none" stroke-width="1" fill="none" fill-rule="evenodd">
        <g id="Artboard-1" transform="translate(-721.000000, -855.000000)" fill="#000000">
            <path d="M734.866667,875 C734.441667,871.3775 732.933333,868.333333 729.175,868.333333 C725.416667,868.333333 723.908333,871.3775 723.483333,875 L721.825,875 C722.366667,870.479167 724.5,866.666667 729.175,866.666667 C733.85,866.666667 735.983333,870.479167 736.525,875 L734.866667,875 L734.866667,875 Z M729.175,865 C726.413576,865 724.175,862.761424 724.175,860 C724.175,857.238576 726.413576,855 729.175,855 C731.936424,855 734.175,857.238576 734.175,860 C734.175,862.761424 731.936424,865 729.175,865 L729.175,865 Z M729.175,856.666667 C727.334051,856.666667 725.841667,858.159051 725.841667,860 C725.841667,861.840949 727.334051,863.333333 729.175,863.333333 C731.015949,863.333333 732.508333,861.840949 732.508333,860 C732.508333,858.159051 731.015949,856.666667 729.175,856.666667 L729.175,856.666667 Z" id="Singles"></path>
        </g>
    </g>
</svg>