<?xml version="1.0" encoding="UTF-8" standalone="no"?>
<svg width="20px" height="19px" viewBox="0 0 20 19" version="1.1" xmlns="http://www.w3.org/2000/svg" xmlns:xlink="http://www.w3.org/1999/xlink">
    <!-- Generator: Sketch 3.8.3 (29802) - http://www.bohemiancoding.com/sketch -->
    <title>Small-Medium </title>
    <desc>Created with Sketch.</desc>
    <defs></defs>
    <g id="Icons" stroke="none" stroke-width="1" fill="none" fill-rule="evenodd">
        <g id="Artboard-1" transform="translate(-730.000000, -954.000000)" fill="#000000">
            <path d="M748.75,962.125 L731.25,962.125 L731.25,959 C731.25,958.31 731.81,957.75 732.5,957.75 L747.5,957.75 C748.19,957.75 748.75,958.31 748.75,959 L748.75,962.125 L748.75,962.125 Z M738.75,964 C738.75,963.77125 738.815625,963.56 738.923125,963.375 L741.076875,963.375 C741.184375,963.56 741.25,963.77125 741.25,964 C741.25,964.69 740.69,965.25 740,965.25 C739.31,965.25 738.75,964.69 738.75,964 L738.75,964 Z M748.75,970.25 C748.75,970.94 748.19,971.5 747.5,971.5 L732.5,971.5 C731.81,971.5 731.25,970.94 731.25,970.25 L731.25,963.375 L737.58875,963.375 C737.53625,963.575625 737.5,963.7825 737.5,964 C737.5,965.380625 738.619375,966.5 740,966.5 C741.380625,966.5 742.5,965.380625 742.5,964 C742.5,963.7825 742.46375,963.575625 742.41125,963.375 L748.75,963.375 L748.75,970.25 L748.75,970.25 Z M737.5,955.875 C737.5,955.53 737.78,955.25 738.125,955.25 L741.875,955.25 C742.22,955.25 742.5,955.53 742.5,955.875 L742.5,956.5 L737.5,956.5 L737.5,955.875 L737.5,955.875 Z M747.5,956.5 L743.75,956.5 L743.75,955.25 C743.75,954.56 743.19,954 742.5,954 L737.5,954 C736.81,954 736.25,954.56 736.25,955.25 L736.25,956.5 L732.5,956.5 C731.119375,956.5 730,957.619375 730,959 L730,970.25 C730,971.630625 731.119375,972.75 732.5,972.75 L747.5,972.75 C748.880625,972.75 750,971.630625 750,970.25 L750,959 C750,957.619375 748.880625,956.5 747.5,956.5 L747.5,956.5 Z" id="Small-Medium-"></path>
        </g>
    </g>
</svg>