<?xml version="1.0" encoding="UTF-8" standalone="no"?>
<svg width="20px" height="20px" viewBox="0 0 20 20" version="1.1" xmlns="http://www.w3.org/2000/svg" xmlns:xlink="http://www.w3.org/1999/xlink">
    <!-- Generator: Sketch 3.8.3 (29802) - http://www.bohemiancoding.com/sketch -->
    <title>Social Good </title>
    <desc>Created with Sketch.</desc>
    <defs></defs>
    <g id="Icons" stroke="none" stroke-width="1" fill="none" fill-rule="evenodd">
        <g id="Artboard-1" transform="translate(-329.000000, -556.000000)" fill="#000000">
            <path d="M344.377971,571.950722 C343.475077,572.82798 342.514032,573.739003 342.514032,573.739003 L340.857058,570.910267 C342.592191,570.487582 344.092222,569.485894 345.138304,568.122799 L346.950346,571.2154 C346.950346,571.2154 345.658531,571.586813 344.377971,571.950722 L344.377971,571.950722 Z M339.01,569.761015 C335.559742,569.761015 332.76352,566.957915 332.76352,563.501404 C332.76352,560.044893 335.559742,557.241793 339.01,557.241793 C342.460258,557.241793 345.25648,560.044893 345.25648,563.501404 C345.25648,566.957915 342.460258,569.761015 339.01,569.761015 L339.01,569.761015 Z M335.505969,573.739003 C335.505969,573.739003 334.544924,572.82798 333.642029,571.950722 C332.361469,571.586813 331.069655,571.2154 331.069655,571.2154 L332.881697,568.122799 C333.927779,569.485894 335.42781,570.487582 337.162943,570.910267 L335.505969,573.739003 L335.505969,573.739003 Z M345.901137,566.902265 C346.403232,565.89495 346.693359,564.766957 346.693359,563.569559 C346.693359,559.388981 343.253105,556 339.01,556 C334.766896,556 331.326642,559.388981 331.326642,563.569559 C331.326642,564.766957 331.616769,565.89495 332.118863,566.902265 L329,572.223341 C329,572.223341 330.977739,572.62039 332.984241,573.03307 C334.322326,574.522471 335.654158,576.008746 335.654158,576.008746 L338.521662,571.115357 C338.684233,571.125361 338.844928,571.139742 339.01,571.139742 C339.175072,571.139742 339.335768,571.125361 339.498339,571.115357 L342.365842,576.008746 C342.365842,576.008746 343.697674,574.522471 345.035759,573.03307 C347.042261,572.62039 349.02,572.223341 349.02,572.223341 L345.901137,566.902265 L345.901137,566.902265 Z M339.01,566.629646 C337.282995,566.629646 335.883634,565.230284 335.883634,563.50328 C335.883634,561.776275 337.282995,560.376913 339.01,560.376913 C340.737005,560.376913 342.136367,561.776275 342.136367,563.50328 C342.136367,565.230284 340.737005,566.629646 339.01,566.629646 L339.01,566.629646 Z M339.01,559.126366 C336.592694,559.126366 334.633087,561.085973 334.633087,563.50328 C334.633087,565.920586 336.592694,567.880193 339.01,567.880193 C341.427307,567.880193 343.386913,565.920586 343.386913,563.50328 C343.386913,561.085973 341.427307,559.126366 339.01,559.126366 L339.01,559.126366 Z" id="Social-Good-"></path>
        </g>
    </g>
</svg>