<?xml version="1.0" encoding="UTF-8" standalone="no"?>
<svg width="20px" height="19px" viewBox="0 0 20 19" version="1.1" xmlns="http://www.w3.org/2000/svg" xmlns:xlink="http://www.w3.org/1999/xlink">
    <!-- Generator: Sketch 3.8.3 (29802) - http://www.bohemiancoding.com/sketch -->
    <title>Social</title>
    <desc>Created with Sketch.</desc>
    <defs></defs>
    <g id="Icons" stroke="none" stroke-width="1" fill="none" fill-rule="evenodd">
        <g id="Artboard-1" transform="translate(-1221.000000, -456.000000)" fill="#000000">
            <path d="M1221,474.181818 L1224.63636,474.181818 L1224.63636,463.272727 L1221,463.272727 L1221,474.181818 L1221,474.181818 Z M1241,464.181818 C1241,463.181818 1240.18182,462.363636 1239.18182,462.363636 L1233.45455,462.363636 L1234.36364,458.181818 L1234.36364,457.909091 C1234.36364,457.545455 1234.18182,457.181818 1234,456.909091 L1233,456 L1227,462 C1226.63636,462.272727 1226.45455,462.727273 1226.45455,463.272727 L1226.45455,472.363636 C1226.45455,473.363636 1227.27273,474.181818 1228.27273,474.181818 L1236.45455,474.181818 C1237.18182,474.181818 1237.81818,473.727273 1238.09091,473.090909 L1240.81818,466.636364 C1240.90909,466.454545 1240.90909,466.181818 1240.90909,466 L1240.90909,464.181818 L1241,464.181818 C1241,464.272727 1241,464.181818 1241,464.181818 L1241,464.181818 Z" id="Social"></path>
        </g>
    </g>
</svg>