<?xml version="1.0" encoding="UTF-8" standalone="no"?>
<svg width="20px" height="20px" viewBox="0 0 20 20" version="1.1" xmlns="http://www.w3.org/2000/svg" xmlns:xlink="http://www.w3.org/1999/xlink">
    <!-- Generator: Sketch 3.8.3 (29802) - http://www.bohemiancoding.com/sketch -->
    <title>Sports</title>
    <desc>Created with Sketch.</desc>
    <defs></defs>
    <g id="Icons" stroke="none" stroke-width="1" fill="none" fill-rule="evenodd">
        <g id="Artboard-1" transform="translate(-430.000000, -557.000000)" fill="#000000">
            <path d="M440,577 C445.522917,577 450,572.525 450,567 C450,561.479167 445.522917,557 440,557 C434.477083,557 430,561.479167 430,567 C430,572.525 434.477083,577 440,577 L440,577 Z M430.842083,567.404167 C430.924583,569.316667 431.592917,571.075 432.6725,572.508333 C432.721667,572.575 432.7475,572.204167 432.7475,572.204167 L435.863333,573.266667 L437.752083,575.891667 C438.47125,576.070833 439.224583,576.166667 440,576.166667 C440.754583,576.166667 441.488333,576.075 442.19,575.904167 C442.272083,575.883333 444.207917,573.1125 444.207917,573.1125 L447.31,571.9375 C447.31,571.9375 447.354167,572.475 447.399583,572.4125 C448.40625,571.0375 449.039167,569.375 449.149167,567.566667 C449.160833,567.379167 448.965,567.904167 448.965,567.904167 L446.895833,565.008333 L446.8125,561.591667 C446.8125,561.591667 447.587083,561.854167 447.54,561.7875 C446.452917,560.216667 444.88875,559.004167 443.0575,558.354167 C442.9675,558.325 443.35375,559.179167 443.35375,559.179167 L440,560.066667 L436.833333,559 C436.833333,559 437.540833,558.166667 437.363333,558.220833 C437.00625,558.325 436.65875,558.454167 436.321667,558.6 C434.751667,559.291667 433.412083,560.404167 432.449167,561.8 C432.412083,561.854167 433.26,561.7375 433.26,561.7375 L433.165833,565.304167 L431.305833,567.954167 C431.305833,567.954167 430.83625,567.270833 430.842083,567.404167 L430.842083,567.404167 Z M440,563.666667 L443.17,565.970833 L441.959167,569.695833 L438.040417,569.695833 L436.829583,565.970833 L440,563.666667 L440,563.666667 Z" id="Sports"></path>
        </g>
    </g>
</svg>