<?xml version="1.0" encoding="UTF-8" standalone="no"?>
<svg width="20px" height="20px" viewBox="0 0 20 20" version="1.1" xmlns="http://www.w3.org/2000/svg" xmlns:xlink="http://www.w3.org/1999/xlink">
    <!-- Generator: Sketch 3.8.3 (29802) - http://www.bohemiancoding.com/sketch -->
    <title>Travelers</title>
    <desc>Created with Sketch.</desc>
    <defs></defs>
    <g id="Icons" stroke="none" stroke-width="1" fill="none" fill-rule="evenodd">
        <g id="Artboard-1" transform="translate(-637.000000, -953.000000)" fill="#000000">
            <path d="M649.1416,971.944 C649.9192,971.14 650.5756,969.912 651.0436,968.404 C651.9216,968.668 652.762,969.02 653.558,969.444 C652.3684,970.656 650.8464,971.536 649.1416,971.944 C649.1416,971.944 650.8464,971.536 649.1416,971.944 L649.1416,971.944 Z M640.4412,969.444 C641.2308,969.02 642.064,968.676 642.9336,968.412 C643.3996,969.908 644.0532,971.132 644.826,971.94 C643.1344,971.528 641.624,970.648 640.4412,969.444 C640.4412,969.444 641.624,970.648 640.4412,969.444 L640.4412,969.444 Z M644.826,954.06 C644.054,954.868 643.4004,956.088 642.9344,957.584 C642.0656,957.32 641.2328,956.976 640.444,956.556 C641.626,955.352 643.1356,954.472 644.826,954.06 C644.826,954.06 643.1356,954.472 644.826,954.06 L644.826,954.06 Z M653.556,956.556 C652.76,956.976 651.92,957.328 651.0424,957.592 C650.5748,956.088 649.9184,954.86 649.142,954.056 C650.8452,954.464 652.366,955.344 653.556,956.556 C653.556,956.556 652.366,955.344 653.556,956.556 L653.556,956.556 Z M651.8048,962.6 C651.7752,961.076 651.582,959.64 651.2592,958.364 C652.2568,958.064 653.2096,957.66 654.1068,957.164 C655.3348,958.656 656.1012,960.544 656.19,962.6 L651.8048,962.6 L651.8048,962.6 Z M651.8048,963.4 L656.19,963.4 C656.1016,965.456 655.336,967.34 654.1092,968.832 C653.2112,968.34 652.2584,967.932 651.26,967.632 C651.5824,966.356 651.7752,964.924 651.8048,963.4 C651.8048,963.4 651.7752,964.924 651.8048,963.4 L651.8048,963.4 Z M647.4,967.012 L647.4,963.4 L650.9996,963.4 C650.9704,964.888 650.7848,966.244 650.4864,967.424 C649.492,967.18 648.4604,967.04 647.4,967.012 C647.4,967.012 648.4604,967.04 647.4,967.012 L647.4,967.012 Z M647.4,972.136 L647.4,967.812 C648.3852,967.84 649.3436,967.968 650.268,968.192 C649.572,970.4 648.4788,971.84 647.4,972.136 C647.4,972.136 648.4788,971.84 647.4,972.136 L647.4,972.136 Z M646.6,967.812 L646.6,972.148 C645.5136,971.864 644.41,970.416 643.7084,968.196 C644.64,967.972 645.6068,967.84 646.6,967.812 C646.6,967.812 645.6068,967.84 646.6,967.812 L646.6,967.812 Z M642.9752,963.4 L646.6,963.4 L646.6,967.012 C645.5312,967.04 644.4912,967.184 643.49,967.428 C643.1904,966.248 643.0048,964.888 642.9752,963.4 C642.9752,963.4 643.0048,964.888 642.9752,963.4 L642.9752,963.4 Z M642.1704,963.4 C642.1996,964.924 642.3932,966.364 642.7164,967.64 C641.7268,967.94 640.7816,968.344 639.8908,968.832 C638.6644,967.34 637.8984,965.456 637.81,963.4 L642.1704,963.4 L642.1704,963.4 Z M642.1704,962.6 L637.81,962.6 C637.8984,960.544 638.6644,958.66 639.8908,957.168 C640.7816,957.656 641.7264,958.06 642.7164,958.36 C642.3932,959.636 642.1996,961.072 642.1704,962.6 C642.1704,962.6 642.1996,961.072 642.1704,962.6 L642.1704,962.6 Z M646.6,958.984 L646.6,962.6 L642.9752,962.6 C643.0048,961.108 643.1908,959.748 643.4904,958.568 C644.4916,958.812 645.5312,958.956 646.6,958.984 C646.6,958.984 645.5312,958.956 646.6,958.984 L646.6,958.984 Z M646.6,953.856 L646.6,958.184 C645.6068,958.156 644.6404,958.024 643.7096,957.796 C644.4116,955.58 645.5144,954.136 646.6,953.856 C646.6,953.856 645.5144,954.136 646.6,953.856 L646.6,953.856 Z M647.4,958.184 L647.4,953.864 C648.4784,954.16 649.5708,955.6 650.2672,957.804 C649.3432,958.028 648.3848,958.156 647.4,958.184 C647.4,958.184 648.3848,958.156 647.4,958.184 L647.4,958.184 Z M647.4,958.984 C648.46,958.956 649.4916,958.816 650.4852,958.572 C650.7848,959.752 650.9704,961.112 650.9996,962.6 L647.4,962.6 L647.4,958.984 L647.4,958.984 Z M647,953 L646.9876,953 L646.9756,953 C641.4636,953.012 637,957.484 637,963 C637,968.512 641.4636,972.984 646.9756,973 L646.9876,973 L647,973 C652.522,973 657,968.52 657,963 C657,957.476 652.522,953 647,953 L647,953 Z" id="Travelers"></path>
        </g>
    </g>
</svg>