<?xml version="1.0" encoding="UTF-8" standalone="no"?>
<svg width="20px" height="20px" viewBox="0 0 20 20" version="1.1" xmlns="http://www.w3.org/2000/svg" xmlns:xlink="http://www.w3.org/1999/xlink">
    <!-- Generator: Sketch 3.8.3 (29802) - http://www.bohemiancoding.com/sketch -->
    <title>Urbanites</title>
    <desc>Created with Sketch.</desc>
    <defs></defs>
    <g id="Icons" stroke="none" stroke-width="1" fill="none" fill-rule="evenodd">
        <g id="Artboard-1" transform="translate(-129.000000, -954.000000)" fill="#000000">
            <path d="M143.019177,961.19137 L143.019177,960.012785 L143.398722,960.012785 L143.398722,957.244107 L144.609269,957.244107 L144.609269,960.012785 L146.990412,960.012785 L146.990412,961.994407 L148.200959,961.994407 L148.200959,973.188973 L149,973.188973 L149,973.976029 L129,973.976029 L129,973.188973 L130.25849,973.188973 L130.25849,962.829405 L135.000799,962.829405 L135.000799,973.188973 L135.448262,973.188973 L135.448262,957.244107 L142.595685,954 L142.595685,973.188973 L143.019177,973.188973 L143.019177,961.990412 C143.226928,961.978426 143.394726,961.806632 143.394726,961.590891 C143.394726,961.379145 143.226928,961.203356 143.019177,961.19137 L143.019177,961.19137 Z M131.009588,965.186576 L131.409109,965.186576 L131.409109,964.387535 L131.009588,964.387535 L131.009588,965.186576 Z M132.607671,965.186576 L133.007191,965.186576 L133.007191,964.387535 L132.607671,964.387535 L132.607671,965.186576 Z M134.205753,965.186576 L134.605274,965.186576 L134.605274,964.387535 L134.205753,964.387535 L134.205753,965.186576 Z M131.009588,966.784658 L131.409109,966.784658 L131.409109,965.985617 L131.009588,965.985617 L131.009588,966.784658 Z M132.607671,966.784658 L133.007191,966.784658 L133.007191,965.985617 L132.607671,965.985617 L132.607671,966.784658 Z M134.205753,966.784658 L134.605274,966.784658 L134.605274,965.985617 L134.205753,965.985617 L134.205753,966.784658 Z M137.002397,960.192569 L140.997603,960.192569 L140.997603,958.794247 L137.002397,958.794247 L137.002397,960.192569 Z M137.002397,961.990412 L140.997603,961.990412 L140.997603,961.19137 L137.002397,961.19137 L137.002397,961.990412 Z M137.002397,963.188973 L140.997603,963.188973 L140.997603,962.389932 L137.002397,962.389932 L137.002397,963.188973 Z M137.002397,964.986816 L140.997603,964.986816 L140.997603,963.588494 L137.002397,963.588494 L137.002397,964.986816 Z M137.002397,968.382741 L140.997603,968.382741 L140.997603,966.984419 L137.002397,966.984419 L137.002397,968.382741 Z M137.002397,969.581302 L140.997603,969.581302 L140.997603,968.782261 L137.002397,968.782261 L137.002397,969.581302 Z M137.002397,970.779864 L140.997603,970.779864 L140.997603,969.980823 L137.002397,969.980823 L137.002397,970.779864 Z M137.002397,971.978426 L140.997603,971.978426 L140.997603,971.179385 L137.002397,971.179385 L137.002397,971.978426 Z M144.193767,961.990412 C144.413504,961.990412 144.593288,961.810627 144.593288,961.590891 C144.593288,961.371155 144.413504,961.19137 144.193767,961.19137 C143.974031,961.19137 143.794247,961.371155 143.794247,961.590891 C143.794247,961.810627 143.974031,961.990412 144.193767,961.990412 L144.193767,961.990412 Z M145.392329,961.990412 C145.612066,961.990412 145.79185,961.810627 145.79185,961.590891 C145.79185,961.371155 145.612066,961.19137 145.392329,961.19137 C145.172593,961.19137 144.992809,961.371155 144.992809,961.590891 C144.992809,961.810627 145.172593,961.990412 145.392329,961.990412 L145.392329,961.990412 Z" id="Urbanites"></path>
        </g>
    </g>
</svg>