<?xml version="1.0" encoding="UTF-8" standalone="no"?>
<svg width="20px" height="14px" viewBox="0 0 20 14" version="1.1" xmlns="http://www.w3.org/2000/svg" xmlns:xlink="http://www.w3.org/1999/xlink">
    <!-- Generator: Sketch 3.8.3 (29802) - http://www.bohemiancoding.com/sketch -->
    <title>Video</title>
    <desc>Created with Sketch.</desc>
    <defs></defs>
    <g id="Icons" stroke="none" stroke-width="1" fill="none" fill-rule="evenodd">
        <g id="Artboard-1" transform="translate(-1321.000000, -458.000000)" fill="#000000">
            <path d="M1339.33333,469.666667 L1335.16667,468 L1335.16667,469.666667 C1335.16667,470.587141 1334.42047,471.333333 1333.5,471.333333 L1322.66667,471.333333 C1321.74619,471.333333 1321,470.587141 1321,469.666667 L1321,459.666667 C1321,458.746192 1321.74619,458 1322.66667,458 L1333.5,458 C1334.42047,458 1335.16667,458.746192 1335.16667,459.666667 L1335.16667,461.333333 L1339.33333,459.666667 C1340.25381,459.666667 1341,460.412859 1341,461.333333 L1341,468 C1341,468.920475 1340.25381,469.666667 1339.33333,469.666667 L1339.33333,469.666667 Z M1333.5,466.333333 L1333.5,459.666667 L1322.66667,459.666667 L1322.66667,469.666667 L1333.5,469.666667 L1333.5,466.333333 L1333.5,466.333333 Z M1339.33333,461.333333 L1335.16667,463 L1335.16667,466.333333 L1339.33333,468 L1339.33333,461.333333 L1339.33333,461.333333 Z" id="Video"></path>
        </g>
    </g>
</svg>