<?xml version="1.0" encoding="UTF-8" standalone="no"?>
<svg width="20px" height="20px" viewBox="0 0 20 20" version="1.1" xmlns="http://www.w3.org/2000/svg" xmlns:xlink="http://www.w3.org/1999/xlink">
    <!-- Generator: Sketch 3.8.3 (29802) - http://www.bohemiancoding.com/sketch -->
    <title>Wearables</title>
    <desc>Created with Sketch.</desc>
    <defs></defs>
    <g id="Icons" stroke="none" stroke-width="1" fill="none" fill-rule="evenodd">
        <g id="Artboard-1" transform="translate(-1420.000000, -458.000000)" fill="#000000">
            <path d="M1438.75,473 C1438.75,473.69 1438.19,474.25 1437.5,474.25 L1436.91,474.25 C1437.28063,473.21125 1437.5,472.050625 1437.5,470.8125 C1437.5,469.816875 1437.35375,468.87375 1437.1075,468 L1437.5,468 C1438.19,468 1438.75,468.56 1438.75,469.25 L1438.75,473 L1438.75,473 Z M1435.54562,474.25 L1435,474.25 C1434.31,474.25 1433.75,473.69 1433.75,473 L1433.75,469.25 C1433.75,468.56 1434.31,468 1435,468 L1435.78625,468 C1436.07687,468.86625 1436.25,469.810625 1436.25,470.8125 C1436.25,472.0625 1435.98625,473.226875 1435.54562,474.25 L1435.54562,474.25 Z M1422.89313,468 C1422.64625,468.87375 1422.5,469.816875 1422.5,470.8125 C1422.5,472.050625 1422.72,473.21125 1423.09,474.25 L1422.5,474.25 C1421.81,474.25 1421.25,473.69 1421.25,473 L1421.25,469.25 C1421.25,468.56 1421.81,468 1422.5,468 L1422.89313,468 L1422.89313,468 Z M1424.21375,468 L1425,468 C1425.69,468 1426.25,468.56 1426.25,469.25 L1426.25,473 C1426.25,473.69 1425.69,474.25 1425,474.25 L1424.45438,474.25 C1424.01375,473.226875 1423.75,472.0625 1423.75,470.8125 C1423.75,469.810625 1423.92313,468.86625 1424.21375,468 L1424.21375,468 Z M1438.71125,467.075625 C1438.72875,466.864375 1438.75,466.65375 1438.75,466.4375 C1438.75,461.7775 1434.8325,458 1430,458 C1425.1675,458 1421.25,461.7775 1421.25,466.4375 C1421.25,466.65375 1421.27125,466.864375 1421.28938,467.075625 C1420.52375,467.503125 1420,468.31125 1420,469.25 L1420,473 C1420,474.380625 1421.11937,475.5 1422.5,475.5 C1422.5,475.5 1425.0025,475.50375 1425,475.5 C1426.32812,475.440625 1427.5,474.3425 1427.5,473 L1427.5,469.25 C1427.5,467.869375 1426.38063,466.75 1425,466.75 L1422.5,466.75 C1422.5,462.585625 1425.85812,459.25 1430,459.25 C1434.1425,459.25 1437.5,462.291875 1437.5,466.75 L1435,466.75 C1433.61937,466.75 1432.5,467.869375 1432.5,469.25 L1432.5,473 C1432.5,474.3425 1433.67188,475.440625 1435,475.5 C1434.9975,475.50375 1436.25,475.5 1436.25,475.5 L1436.25,477.375 C1436.25,477.720625 1436.52938,478 1436.875,478 C1437.22062,478 1437.5,477.720625 1437.5,477.375 L1437.5,475.5 C1438.88063,475.5 1440,474.380625 1440,473 L1440,469.25 C1440,468.31125 1439.47625,467.503125 1438.71125,467.075625 L1438.71125,467.075625 Z" id="Wearables"></path>
        </g>
    </g>
</svg>