<?xml version="1.0" encoding="utf-8"?>
<!-- Generator: Adobe Illustrator 18.0.0, SVG Export Plug-In . SVG Version: 6.00 Build 0)  -->
<!DOCTYPE svg PUBLIC "-//W3C//DTD SVG 1.1//EN" "http://www.w3.org/Graphics/SVG/1.1/DTD/svg11.dtd">
<svg version="1.1" id="Layer_1" xmlns="http://www.w3.org/2000/svg" xmlns:xlink="http://www.w3.org/1999/xlink" x="0px" y="0px"
	 width="22px" height="24px" viewBox="0 0 22 24" enable-background="new 0 0 22 24" xml:space="preserve">
<g>
	<path d="M8.81,12c3.31,0,6-2.69,6-6s-2.69-6-6-6s-6,2.69-6,6S5.5,12,8.81,12z M8.81,2c2.21,0,4,1.79,4,4s-1.79,4-4,4s-4-1.79-4-4
		S6.6,2,8.81,2z"/>
	<path d="M18.836,19.554V16.59h-1.014v2.964h-1.289C15.214,16.295,12.777,14,8.81,14c-5.61,0-8.17,4.58-8.82,10h1.99
		c0.51-4.35,2.32-8,6.83-8c3.233,0,5.074,1.88,6.047,4.545v0.023h0.009c0.38,1.046,0.631,2.209,0.774,3.432h1.99
		c-0.144-1.2-0.388-2.354-0.731-3.432h0.924v2.964h1.014v-2.964h2.965v-1.015H18.836z"/>
</g>
</svg>
