<?xml version="1.0" encoding="UTF-8" standalone="no"?>
<svg width="36px" height="35px" viewBox="0 0 36 35" version="1.1" xmlns="http://www.w3.org/2000/svg" xmlns:xlink="http://www.w3.org/1999/xlink">
    <!-- Generator: Sketch 3.6.1 (26313) - http://www.bohemiancoding.com/sketch -->
    <title>Add Startup</title>
    <desc>Created with Sketch.</desc>
    <defs></defs>
    <g id="Nav" stroke="none" stroke-width="1" fill="none" fill-rule="evenodd">
        <g id="Top-bars" transform="translate(-941.000000, -109.000000)" fill="#1D1D1F">
            <g id="Evo-Top-bar" transform="translate(0.000000, 91.000000)">
                <g id="Add-Startup" transform="translate(941.000000, 18.000000)">
                    <g id="Group-2">
                        <path d="M34.9536964,16.2168994 C34.296854,7.14919037 26.7335449,0 17.5,0 C7.83289181,0 0,7.83501688 0,17.5 C0,27.1671082 7.83501688,35 17.5,35 C19.6956064,35 21.7965965,34.5958377 23.7326906,33.8578674 C23.3438448,33.6593765 22.969008,33.4373617 22.6100562,33.193699 C21.0011942,33.7170885 19.2837126,34 17.5,34 C8.38730163,34 1,26.614702 1,17.5 C1,8.38730163 8.385298,1 17.5,1 C25.928892,1 32.8816153,7.31851479 33.8776024,15.4797334 C34.2520271,15.7034347 34.6113558,15.9497874 34.9536964,16.2168994 Z M19.034,13.726 C18.5953311,13.0819968 17.9560042,12.76 17.116,12.76 C16.8546654,12.76 16.5980013,12.7949997 16.346,12.865 C16.0939987,12.9350004 15.8676677,13.0423326 15.667,13.187 C15.4663323,13.3316674 15.3053339,13.5183322 15.184,13.747 C15.0626661,13.9756678 15.002,14.2439985 15.002,14.552 C15.002,15.0000022 15.1279987,15.3476654 15.38,15.595 C15.6320013,15.8423346 15.9446648,16.0453325 16.318,16.204 C16.6913352,16.3626675 17.0996644,16.5049994 17.543,16.631 C17.9863355,16.7570006 18.3946648,16.924999 18.768,17.135 C19.1413352,17.3450011 19.4539987,17.6226649 19.706,17.968 C19.9580013,18.3133351 20.084,18.7846637 20.084,19.382 C20.084,19.8300022 19.9883343,20.2336649 19.797,20.593 C19.6056657,20.9523351 19.3536682,21.2533321 19.041,21.496 C18.7283318,21.7386679 18.3783353,21.9253327 17.991,22.056 C17.6036647,22.1866673 17.214002,22.252 16.822,22.252 C16.2153303,22.252 15.6390027,22.1376678 15.093,21.909 C14.5469973,21.6803322 14.0826686,21.3046693 13.7,20.782 L14.61,20.124 C14.8246677,20.4880018 15.1233314,20.7796656 15.506,20.999 C15.8886686,21.2183344 16.3413307,21.328 16.864,21.328 C17.1160013,21.328 17.3679987,21.2883337 17.62,21.209 C17.8720013,21.1296663 18.0983323,21.0130008 18.299,20.859 C18.4996677,20.7049992 18.6653327,20.5160011 18.796,20.292 C18.9266673,20.0679989 18.992,19.8113348 18.992,19.522 C18.992,19.1766649 18.9196674,18.8896678 18.775,18.661 C18.6303326,18.4323322 18.4390012,18.2410008 18.201,18.087 C17.9629988,17.9329992 17.6923348,17.8046672 17.389,17.702 C17.0856651,17.5993328 16.7730016,17.4966672 16.451,17.394 C16.1289984,17.2913328 15.8163348,17.1746673 15.513,17.044 C15.2096651,16.9133327 14.9390012,16.7476677 14.701,16.547 C14.4629988,16.3463323 14.2716674,16.0943349 14.127,15.791 C13.9823326,15.4876652 13.91,15.1073356 13.91,14.65 C13.91,14.1739976 14.0009991,13.7586684 14.183,13.404 C14.3650009,13.0493316 14.6076651,12.7553345 14.911,12.522 C15.2143348,12.2886655 15.5573314,12.1160006 15.94,12.004 C16.3226686,11.8919994 16.7146647,11.836 17.116,11.836 C17.6760028,11.836 18.1846644,11.9246658 18.642,12.102 C19.0993356,12.2793342 19.523998,12.5919978 19.916,13.04 L19.034,13.726 Z M31,24 L36,24 L36,25 L31,25 L31,30 L30,30 L30,25 L25,25 L25,24 L30,24 L30,19 L31,19 L31,24 Z" id="Rectangle-610"></path>
                    </g>
                </g>
            </g>
        </g>
    </g>
</svg>