<?xml version="1.0" encoding="utf-8"?>
<!-- Generator: Adobe Illustrator 16.0.0, SVG Export Plug-In . SVG Version: 6.00 Build 0)  -->
<!DOCTYPE svg PUBLIC "-//W3C//DTD SVG 1.1//EN" "http://www.w3.org/Graphics/SVG/1.1/DTD/svg11.dtd">
<svg version="1.1" id="Layer_1" xmlns="http://www.w3.org/2000/svg" xmlns:xlink="http://www.w3.org/1999/xlink" x="0px" y="0px"
	 width="22px" height="24px" viewBox="0 0 22 24" enable-background="new 0 0 22 24" xml:space="preserve">
<path d="M15.641,24c-0.511-4.35-2.32-8-6.831-8s-6.32,3.65-6.83,8h-1.99c0.65-5.42,3.21-10,8.82-10s8.17,4.58,8.82,10H15.641
	L15.641,24z M8.81,12c-3.31,0-6-2.69-6-6s2.69-6,6-6s6,2.69,6,6S12.12,12,8.81,12L8.81,12z M8.81,2c-2.21,0-4,1.79-4,4s1.79,4,4,4
	s4-1.79,4-4S11.02,2,8.81,2L8.81,2z"/>
<text transform="matrix(1 0 0 1 14 24)" font-family="'ArialMT'" font-size="13">+</text>
</svg>
