<?xml version="1.0" encoding="utf-8"?>
<!-- Generator: Adobe Illustrator 16.0.0, SVG Export Plug-In . SVG Version: 6.00 Build 0)  -->
<!DOCTYPE svg PUBLIC "-//W3C//DTD SVG 1.1//EN" "http://www.w3.org/Graphics/SVG/1.1/DTD/svg11.dtd">
<svg version="1.1" id="Layer_1" xmlns="http://www.w3.org/2000/svg" xmlns:xlink="http://www.w3.org/1999/xlink" x="0px" y="0px"
	 width="65px" height="65px" viewBox="0 0 65 65" enable-background="new 0 0 65 65" xml:space="preserve">
<path d="M58.23,65H6.77C3.04,65,0,61.96,0,58.23V6.77C0,3.04,3.04,0,6.77,0h51.46C61.96,0,65,3.04,65,6.77v51.46
	C65,61.96,61.96,65,58.23,65L58.23,65z M6.77,2.71c-2.24,0-4.06,1.82-4.06,4.06v51.46c0,2.239,1.82,4.06,4.06,4.06h51.46
	c2.24,0,4.06-1.82,4.06-4.06V6.77c0-2.24-1.819-4.06-4.06-4.06H6.77z"/>
<path d="M63.65,13.54H1.35c-0.74,0-1.35-0.6-1.35-1.35s0.61-1.36,1.35-1.36h62.3c0.74,0,1.35,0.61,1.35,1.36
	S64.391,13.54,63.65,13.54L63.65,13.54z"/>
<path d="M8.12,6.77c0,1.81-2.7,1.81-2.7,0C5.42,4.97,8.12,4.97,8.12,6.77"/>
<path d="M13.54,6.77c0,1.81-2.71,1.81-2.71,0C10.83,4.97,13.54,4.97,13.54,6.77"/>
<path d="M18.96,6.77c0,1.81-2.71,1.81-2.71,0C16.25,4.97,18.96,4.97,18.96,6.77"/>
<path d="M15,32.01c0-2.77,2.24-5.01,5.01-5.01h25.98c2.77,0,5.01,2.24,5.01,5.01v6.98c0,2.77-2.24,5.01-5.01,5.01H20.01
	C17.24,44,15,41.76,15,38.99V32.01z"/>
<g enable-background="new    ">
	<path fill="#FFFFFF" d="M28.028,38h-1.101l-0.438-1.139h-2.003L24.073,38H23l1.952-5.011h1.07L28.028,38z M26.165,36.018
		l-0.69-1.859l-0.677,1.859H26.165z"/>
	<path fill="#FFFFFF" d="M28.53,34.37h0.896v0.533c0.116-0.183,0.273-0.33,0.472-0.444s0.418-0.171,0.66-0.171
		c0.421,0,0.779,0.165,1.073,0.495c0.294,0.331,0.441,0.791,0.441,1.381c0,0.606-0.148,1.078-0.444,1.414s-0.655,0.504-1.077,0.504
		c-0.201,0-0.382-0.04-0.545-0.119c-0.163-0.08-0.334-0.217-0.515-0.41v1.828h-0.96V34.37z M29.48,36.123
		c0,0.408,0.081,0.71,0.243,0.904c0.162,0.195,0.359,0.293,0.591,0.293c0.223,0,0.409-0.09,0.557-0.269s0.222-0.473,0.222-0.88
		c0-0.381-0.076-0.664-0.229-0.848c-0.153-0.186-0.342-0.277-0.567-0.277c-0.235,0-0.43,0.091-0.584,0.271
		C29.558,35.5,29.48,35.768,29.48,36.123z"/>
	<path fill="#FFFFFF" d="M32.806,34.37h0.895v0.533c0.117-0.183,0.273-0.33,0.473-0.444c0.197-0.114,0.418-0.171,0.659-0.171
		c0.421,0,0.779,0.165,1.073,0.495c0.294,0.331,0.441,0.791,0.441,1.381c0,0.606-0.148,1.078-0.445,1.414
		c-0.296,0.336-0.654,0.504-1.076,0.504c-0.201,0-0.383-0.04-0.545-0.119c-0.163-0.08-0.334-0.217-0.515-0.41v1.828h-0.96V34.37z
		 M33.756,36.123c0,0.408,0.082,0.71,0.243,0.904c0.161,0.195,0.358,0.293,0.591,0.293c0.224,0,0.41-0.09,0.558-0.269
		s0.222-0.473,0.222-0.88c0-0.381-0.076-0.664-0.229-0.848c-0.152-0.186-0.342-0.277-0.567-0.277c-0.235,0-0.43,0.091-0.585,0.271
		C33.834,35.5,33.756,35.768,33.756,36.123z"/>
	<path fill="#FFFFFF" d="M37.109,38v-5.011h0.961V38H37.109z"/>
	<path fill="#FFFFFF" d="M38.6,34.37h1.021l0.869,2.577l0.848-2.577h0.994l-1.281,3.493l-0.229,0.633
		c-0.085,0.211-0.165,0.373-0.241,0.484c-0.076,0.112-0.164,0.203-0.263,0.272c-0.1,0.069-0.222,0.123-0.366,0.162
		s-0.309,0.058-0.49,0.058c-0.185,0-0.365-0.019-0.543-0.058l-0.086-0.752c0.15,0.029,0.286,0.044,0.406,0.044
		c0.224,0,0.389-0.065,0.496-0.196s0.189-0.298,0.246-0.501L38.6,34.37z"/>
</g>
</svg>
