<?xml version="1.0" encoding="utf-8"?>
<!-- Generator: Adobe Illustrator 16.0.0, SVG Export Plug-In . SVG Version: 6.00 Build 0)  -->
<!DOCTYPE svg PUBLIC "-//W3C//DTD SVG 1.1//EN" "http://www.w3.org/Graphics/SVG/1.1/DTD/svg11.dtd">
<svg version="1.1" id="Layer_1" xmlns="http://www.w3.org/2000/svg" xmlns:xlink="http://www.w3.org/1999/xlink" x="0px" y="0px"
	 width="25px" height="25px" viewBox="0 0 25 25" enable-background="new 0 0 25 25" xml:space="preserve">
<g>
	<g>
		<path fill="#D8D8D8" d="M12.5,25.5c-7.168,0-13-5.832-13-13c0-7.168,5.832-13,13-13c7.168,0,13,5.832,13,13
			C25.5,19.668,19.668,25.5,12.5,25.5z M12.5,0.5c-6.617,0-12,5.383-12,12c0,6.617,5.383,12,12,12c6.617,0,12-5.383,12-12
			C24.5,5.883,19.117,0.5,12.5,0.5z"/>
	</g>
	<path fill="#D8D8D8" d="M15.57,8.64c-0.25-0.15-0.58-0.05-0.73,0.2l-3.42,5.93L9.5,13c-0.2-0.21-0.54-0.22-0.76-0.02
		c-0.21,0.2-0.23,0.54-0.02,0.76L11.17,16c0.2,0.21,0.54,0.22,0.75,0.02c0.07-0.06,3.85-6.649,3.85-6.649
		C15.92,9.12,15.83,8.79,15.57,8.64L15.57,8.64z"/>
</g>
</svg>
