<?xml version="1.0" encoding="utf-8"?>
<!-- Generator: Avocode 2.5.4 - http://avocode.com -->
<svg height="12" width="10" xmlns:xlink="http://www.w3.org/1999/xlink" xmlns="http://www.w3.org/2000/svg" viewBox="0 0 10 12">
    <path fill="#000000" fill-rule="evenodd" d="M 8.59 4.84 L 6.01 3.1 L 6.01 10.99 C 6.01 11.55 5.56 11.99 5.01 11.99 C 4.46 11.99 4.01 11.55 4.01 10.99 L 4.01 3.1 L 1.43 4.84 C 1.21 4.99 0.94 5.03 0.68 4.95 C 0.43 4.87 0.23 4.68 0.13 4.44 C -0.13 3.91 0.01 3.28 0.48 2.92 L 4.24 0.38 C 4.26 0.37 4.27 0.35 4.29 0.34 C 4.36 0.26 4.45 0.18 4.54 0.13 L 4.54 0.13 C 4.65 0.06 4.78 0.02 4.91 0.02 C 4.92 0.02 4.92 0.02 4.93 0.02 L 4.96 0.01 C 4.98 0.01 4.99 0 5.01 0 C 5.03 0 5.04 0 5.06 0.01 L 5.09 0.02 C 5.1 0.02 5.11 0.02 5.12 0.02 C 5.21 0.03 5.3 0.04 5.38 0.07 C 5.41 0.09 5.44 0.11 5.48 0.13 C 5.55 0.17 5.61 0.21 5.67 0.26 C 5.7 0.29 5.72 0.33 5.75 0.37 L 9.54 2.93 C 10.01 3.28 10.16 3.92 9.89 4.44 C 9.79 4.69 9.59 4.87 9.34 4.95 C 9.08 5.03 8.81 4.99 8.59 4.84 L 8.59 4.84 Z M 8.59 4.84" />
</svg>