<?xml version="1.0" encoding="utf-8"?>
<!-- Generator: Avocode 2.5.4 - http://avocode.com -->
<svg height="10" width="12" xmlns:xlink="http://www.w3.org/1999/xlink" xmlns="http://www.w3.org/2000/svg" viewBox="0 0 12 10">
    <path fill="#d8d8d8" fill-rule="evenodd" d="M 9.59 3.84 L 7.01 2.1 L 7.01 9.99 C 7.01 10.55 6.56 10.99 6.01 10.99 C 5.46 10.99 5.01 10.55 5.01 9.99 L 5.01 2.1 L 2.43 3.84 C 2.21 3.99 1.94 4.03 1.68 3.95 C 1.43 3.87 1.23 3.68 1.13 3.44 C 0.87 2.91 1.01 2.28 1.48 1.92 L 5.24 -0.62 C 5.26 -0.63 5.27 -0.65 5.29 -0.66 C 5.36 -0.74 5.45 -0.82 5.54 -0.87 L 5.54 -0.87 C 5.65 -0.94 5.78 -0.98 5.91 -0.98 C 5.92 -0.98 5.92 -0.98 5.93 -0.98 L 5.96 -0.99 C 5.98 -0.99 5.99 -1 6.01 -1 C 6.03 -1 6.04 -1 6.06 -0.99 L 6.09 -0.98 C 6.1 -0.98 6.11 -0.98 6.12 -0.98 C 6.21 -0.97 6.3 -0.96 6.38 -0.93 C 6.41 -0.91 6.44 -0.89 6.48 -0.87 C 6.55 -0.83 6.61 -0.79 6.67 -0.74 C 6.7 -0.71 6.72 -0.67 6.75 -0.63 L 10.54 1.93 C 11.01 2.28 11.16 2.92 10.89 3.44 C 10.79 3.69 10.59 3.87 10.34 3.95 C 10.08 4.03 9.81 3.99 9.59 3.84 L 9.59 3.84 Z M 9.59 3.84" />
</svg>