<?xml version="1.0" encoding="utf-8"?>
<!-- Generator: Avocode 2.5.4 - http://avocode.com -->
<svg height="24" width="24" xmlns:xlink="http://www.w3.org/1999/xlink" xmlns="http://www.w3.org/2000/svg" viewBox="0 0 24 24">
    <path fill="#101010" fill-rule="evenodd" d="M 12 24 C 5.37 24 0 18.63 0 12 C 0 5.37 5.37 0 12 0 C 18.63 0 24 5.37 24 12 C 24 18.63 18.63 24 12 24 L 12 24 Z M 12 2 C 6.48 2 2 6.48 2 12 C 2 17.52 6.48 22 12 22 C 17.52 22 22 17.52 22 12 C 22 6.48 17.52 2 12 2 L 12 2 Z M 15.58 10.85 L 13 9.11 L 13 17 C 13 17.55 12.55 18 12 18 C 11.45 18 11 17.55 11 17 L 11 9.11 L 8.42 10.85 C 8.2 11 7.93 11.04 7.67 10.96 C 7.42 10.88 7.22 10.69 7.12 10.44 C 6.85 9.92 7 9.28 7.47 8.93 L 11.23 6.39 C 11.24 6.37 11.26 6.36 11.28 6.35 C 11.35 6.26 11.43 6.19 11.53 6.13 L 11.53 6.13 C 11.64 6.07 11.77 6.03 11.9 6.02 C 11.91 6.02 11.91 6.02 11.92 6.02 L 11.95 6.02 C 11.97 6.02 11.98 6.01 12 6.01 C 12.02 6.01 12.03 6.01 12.05 6.02 L 12.08 6.02 C 12.09 6.03 12.1 6.03 12.11 6.03 C 12.2 6.03 12.29 6.05 12.37 6.08 C 12.4 6.1 12.43 6.12 12.47 6.14 C 12.54 6.17 12.6 6.22 12.66 6.27 C 12.69 6.3 12.71 6.34 12.74 6.38 L 16.53 8.93 C 17 9.29 17.15 9.93 16.88 10.45 C 16.78 10.7 16.58 10.88 16.32 10.96 C 16.07 11.04 15.8 11 15.58 10.85 L 15.58 10.85 Z M 15.58 10.85" />
</svg>