<?xml version="1.0" encoding="utf-8"?>
<!-- Generator: Avocode 2.5.4 - http://avocode.com -->
<svg height="20" width="20" xmlns:xlink="http://www.w3.org/1999/xlink" xmlns="http://www.w3.org/2000/svg" viewBox="0 0 20 20">
    <path fill="#000000" fill-rule="evenodd" d="M 19.17 15 L 0.83 15 C 0.37 15 0 14.63 0 14.17 C 0 13.71 0.37 13.33 0.83 13.33 L 2.5 13.33 L 2.5 6.67 C 2.5 2.98 5.48 0 9.17 0 L 10.83 0 C 14.52 0 17.5 2.98 17.5 6.67 L 17.5 13.33 L 19.17 13.33 C 19.63 13.33 20 13.71 20 14.17 C 20 14.63 19.63 15 19.17 15 L 19.17 15 Z M 15.83 7.5 C 15.83 4.28 13.22 1.67 10 1.67 C 6.78 1.67 4.17 4.28 4.17 7.5 L 4.17 13.33 L 15.83 13.33 L 15.83 7.5 L 15.83 7.5 Z M 9.17 17.5 C 9.17 17.96 9.54 18.33 10 18.33 C 10.46 18.33 10.83 17.96 10.83 17.5 L 10.83 16.67 L 12.5 16.67 L 12.5 17.5 C 12.5 18.88 11.38 20 10 20 C 8.62 20 7.5 18.88 7.5 17.5 L 7.5 16.67 L 9.17 16.67 L 9.17 17.5 L 9.17 17.5 Z M 9.17 17.5" />
</svg>