<?xml version="1.0" encoding="utf-8"?>
<!-- Generator: Adobe Illustrator 16.0.0, SVG Export Plug-In . SVG Version: 6.00 Build 0)  -->
<!DOCTYPE svg PUBLIC "-//W3C//DTD SVG 1.1//EN" "http://www.w3.org/Graphics/SVG/1.1/DTD/svg11.dtd">
<svg version="1.1" id="Layer_1" xmlns="http://www.w3.org/2000/svg" xmlns:xlink="http://www.w3.org/1999/xlink" x="0px" y="0px"
	 width="52.98px" height="63px" viewBox="-1 -1 52.98 63" enable-background="new -1 -1 52.98 63" xml:space="preserve">
<g opacity="0.2" enable-background="new    ">
	<path d="M45.88,62h-0.286L25.49,49.469L5.386,62H5.1C1.736,62-1,59.272-1,55.92V5.08C-1,1.728,1.736-1,5.1-1h40.78
		c3.364,0,6.101,2.728,6.101,6.08v50.84C51.98,59.272,49.244,62,45.88,62z M25.49,47.111l20.661,12.88
		c2.135-0.14,3.829-1.912,3.829-4.071V5.08c0-2.25-1.84-4.08-4.101-4.08H5.1C2.839,1,1,2.83,1,5.08v50.84
		c0,2.159,1.694,3.932,3.828,4.071L25.49,47.111z"/>
</g>
</svg>
