<?xml version="1.0" encoding="utf-8"?>
<!-- Generator: Avocode 2.5.4 - http://avocode.com -->
<svg height="24" width="24" xmlns:xlink="http://www.w3.org/1999/xlink" xmlns="http://www.w3.org/2000/svg" viewBox="0 0 24 24">
    <path fill="#000000" fill-rule="evenodd" d="M 22 24 L 2 24 C 0.9 24 0 23.1 0 22 L 0 4 C 0 2.9 0.9 2 2 2 L 4 2 L 4 4 L 2 4 L 2 22 L 22 22 L 22 4 L 20 4 L 20 2 L 22 2 C 23.1 2 24 2.9 24 4 L 24 22 C 24 23.1 23.1 24 22 24 L 22 24 Z M 17 17 L 19 17 C 19.55 17 20 17.45 20 18 C 20 18.55 19.55 19 19 19 L 17 19 C 16.45 19 16 18.55 16 18 C 16 17.45 16.45 17 17 17 L 17 17 Z M 17 13 L 19 13 C 19.55 13 20 13.45 20 14 C 20 14.55 19.55 15 19 15 L 17 15 C 16.45 15 16 14.55 16 14 C 16 13.45 16.45 13 17 13 L 17 13 Z M 19 11 L 17 11 C 16.45 11 16 10.55 16 10 C 16 9.45 16.45 9 17 9 L 19 9 C 19.55 9 20 9.45 20 10 C 20 10.55 19.55 11 19 11 L 19 11 Z M 18 6 C 17.45 6 17 5.55 17 5 L 17 1 C 17 0.45 17.45 0 18 0 C 18.55 0 19 0.45 19 1 L 19 5 C 19 5.55 18.55 6 18 6 L 18 6 Z M 14 2 L 16 2 L 16 4 L 14 4 L 14 2 L 14 2 Z M 11 17 L 13 17 C 13.55 17 14 17.45 14 18 C 14 18.55 13.55 19 13 19 L 11 19 C 10.45 19 10 18.55 10 18 C 10 17.45 10.45 17 11 17 L 11 17 Z M 11 13 L 13 13 C 13.55 13 14 13.45 14 14 C 14 14.55 13.55 15 13 15 L 11 15 C 10.45 15 10 14.55 10 14 C 10 13.45 10.45 13 11 13 L 11 13 Z M 13 11 L 11 11 C 10.45 11 10 10.55 10 10 C 10 9.45 10.45 9 11 9 L 13 9 C 13.55 9 14 9.45 14 10 C 14 10.55 13.55 11 13 11 L 13 11 Z M 12 6 C 11.45 6 11 5.55 11 5 L 11 1 C 11 0.45 11.45 0 12 0 C 12.55 0 13 0.45 13 1 L 13 5 C 13 5.55 12.55 6 12 6 L 12 6 Z M 8 2 L 10 2 L 10 4 L 8 4 L 8 2 L 8 2 Z M 5 17 L 7 17 C 7.55 17 8 17.45 8 18 C 8 18.55 7.55 19 7 19 L 5 19 C 4.45 19 4 18.55 4 18 C 4 17.45 4.45 17 5 17 L 5 17 Z M 5 13 L 7 13 C 7.55 13 8 13.45 8 14 C 8 14.55 7.55 15 7 15 L 5 15 C 4.45 15 4 14.55 4 14 C 4 13.45 4.45 13 5 13 L 5 13 Z M 7 11 L 5 11 C 4.45 11 4 10.55 4 10 C 4 9.45 4.45 9 5 9 L 7 9 C 7.55 9 8 9.45 8 10 C 8 10.55 7.55 11 7 11 L 7 11 Z M 6 6 C 5.45 6 5 5.55 5 5 L 5 1 C 5 0.45 5.45 0 6 0 C 6.55 0 7 0.45 7 1 L 7 5 C 7 5.55 6.55 6 6 6 L 6 6 Z M 6 6" />
</svg>