<?xml version="1.0" encoding="utf-8"?>
<!-- Generator: Avocode 2.5.4 - http://avocode.com -->
<svg height="20" width="20" xmlns:xlink="http://www.w3.org/1999/xlink" xmlns="http://www.w3.org/2000/svg" viewBox="0 0 20 20">
    <path fill="#000000" fill-rule="evenodd" d="M 18.33 20 L 1.67 20 C 0.75 20 0 19.25 0 18.33 L 0 5 C 0 4.08 0.75 3.33 1.67 3.33 L 5.83 3.33 L 5.83 1.67 C 5.83 0.75 6.58 0 7.5 0 L 12.5 0 C 13.42 0 14.17 0.75 14.17 1.67 L 14.17 3.33 L 18.33 3.33 C 19.25 3.33 20 4.08 20 5 L 20 18.33 C 20 19.25 19.25 20 18.33 20 L 18.33 20 Z M 12.5 1.67 L 7.5 1.67 L 7.5 3.33 L 12.5 3.33 L 12.5 1.67 L 12.5 1.67 Z M 18.33 12.5 L 14.17 12.5 C 14.17 13.42 13.42 14.17 12.5 14.17 L 7.5 14.17 C 6.58 14.17 5.83 13.42 5.83 12.5 L 1.67 12.5 L 1.67 10.83 L 5.83 10.83 C 5.83 9.91 6.58 9.17 7.5 9.17 L 12.5 9.17 C 13.42 9.17 14.17 9.91 14.17 10.83 L 18.33 10.83 L 18.33 5 L 1.67 5 L 1.67 18.33 L 18.33 18.33 L 18.33 12.5 L 18.33 12.5 Z M 12.5 11.67 C 12.5 11.21 12.13 10.83 11.67 10.83 L 8.33 10.83 C 7.87 10.83 7.5 11.21 7.5 11.67 C 7.5 12.13 7.87 12.5 8.33 12.5 L 11.67 12.5 C 12.13 12.5 12.5 12.13 12.5 11.67 L 12.5 11.67 Z M 12.5 11.67" />
</svg>