<?xml version="1.0" encoding="utf-8"?>
<!-- Generator: Avocode 2.5.4 - http://avocode.com -->
<svg height="24" width="24" xmlns:xlink="http://www.w3.org/1999/xlink" xmlns="http://www.w3.org/2000/svg" viewBox="0 0 24 24">
    <path fill="#101010" fill-rule="evenodd" d="M 22 18 L 8 18 C 6.9 18 6 17.1 6 16 L 6 2 C 6 0.9 6.9 0 8 0 L 22 0 C 23.1 0 24 0.9 24 2 L 24 16 C 24 17.1 23.1 18 22 18 L 22 18 Z M 22 2 L 8 2 L 8 16 L 22 16 L 22 2 L 22 2 Z M 12.49 10.24 L 13.63 11.38 L 17.13 4.51 C 17.26 4.28 17.48 4.1 17.74 4.03 C 18 3.96 18.28 4 18.51 4.13 C 18.99 4.43 19.15 5.06 18.87 5.55 L 14.93 13.3 C 14.89 13.46 14.81 13.61 14.7 13.72 C 14.51 13.91 14.25 14.01 13.98 13.98 C 13.55 14.01 13.16 13.74 13.04 13.33 L 11.22 11.51 C 10.9 11.15 10.92 10.61 11.26 10.28 C 11.59 9.94 12.13 9.92 12.49 10.24 L 12.49 10.24 Z M 2 22 L 16 22 L 16 20 L 18 20 L 18 22 C 18 23.1 17.1 24 16 24 L 2 24 C 0.9 24 0 23.1 0 22 L 0 8 C 0 6.9 0.9 6 2 6 L 4 6 L 4 8 L 2 8 L 2 22 L 2 22 Z M 2 22" />
</svg>