<?xml version="1.0" encoding="utf-8"?>
<!-- Generator: Avocode 2.6.0 - http://avocode.com -->
<svg height="32" width="32" xmlns:xlink="http://www.w3.org/1999/xlink" xmlns="http://www.w3.org/2000/svg" viewBox="0 0 32 32">
    <path fill-opacity="0.32" fill="#000000" fill-rule="evenodd" d="M 30 28 C 30 29.1 29.1 30 28 30 L 4 30 C 2.9 30 2 29.1 2 28 L 2 4 C 2 2.9 2.9 2 4 2 L 28 2 C 29.1 2 30 2.9 30 4 L 30 28 L 30 28 Z M 28 0 L 4 0 C 1.79 0 0 1.79 0 4 L 0 28 C 0 30.21 1.79 32 4 32 L 28 32 C 30.21 32 32 30.21 32 28 L 32 4 C 32 1.79 30.21 0 28 0 L 28 0 Z M 22.03 9.07 C 21.55 8.79 20.94 8.96 20.66 9.43 L 14.27 20.51 L 10.69 17.21 C 10.31 16.81 9.68 16.79 9.27 17.17 C 8.87 17.54 8.85 18.18 9.23 18.58 L 13.8 22.8 C 14.18 23.2 14.81 23.22 15.21 22.84 C 15.34 22.73 22.39 10.43 22.39 10.43 C 22.67 9.96 22.51 9.34 22.03 9.07 L 22.03 9.07 Z M 22.03 9.07" />
</svg>