<?xml version="1.0" encoding="utf-8"?>
<!-- Generator: Avocode 2.5.4 - http://avocode.com -->
<svg height="24" width="24" xmlns:xlink="http://www.w3.org/1999/xlink" xmlns="http://www.w3.org/2000/svg" viewBox="0 0 24 24">
    <path stroke-linejoin="miter" stroke-linecap="butt" stroke-width="1" stroke="#25cc77" fill="#25cc77" fill-rule="evenodd" d="M 12 24 C 18.63 24 24 18.63 24 12 C 24 5.37 18.63 0 12 0 C 5.37 0 0 5.37 0 12 C 0 18.63 5.37 24 12 24 Z M 12 24" />
    <path fill="#ffffff" fill-rule="evenodd" d="M 17.62 8.38 C 17.69 8.44 17.69 8.54 17.64 8.6 L 10.93 16.59 C 10.9 16.63 10.85 16.65 10.8 16.65 C 10.77 16.64 10.74 16.63 10.71 16.61 L 6.25 12.86 C 6.18 12.81 6.17 12.71 6.23 12.65 L 7.61 11 C 7.66 10.94 7.76 10.93 7.83 10.98 L 10.53 13.25 L 15.76 7.02 C 15.81 6.96 15.91 6.95 15.97 7 L 17.62 8.38 Z M 17.62 8.38" />
</svg>