<?xml version="1.0" encoding="utf-8"?>
<!-- Generator: Avocode 2.5.4 - http://avocode.com -->
<svg height="18" width="20" xmlns:xlink="http://www.w3.org/1999/xlink" xmlns="http://www.w3.org/2000/svg" viewBox="0 0 20 18">
    <path fill="#000000" fill-rule="evenodd" d="M 16.15 13.45 L 16.15 11.54 L 16.07 11.54 C 17.75 9.9 18.18 7.36 17.12 5.26 C 16.07 3.17 13.77 2 11.45 2.38 C 9.14 2.76 7.33 4.6 7 6.92 L 5.38 6.92 C 3.99 6.92 2.77 7.85 2.41 9.19 C 2.05 10.54 2.64 11.96 3.85 12.65 L 3.85 14.33 C 1.73 13.59 0.46 11.42 0.84 9.21 C 1.22 7 3.14 5.38 5.38 5.38 C 5.52 5.38 5.64 5.41 5.77 5.42 C 6.76 2.57 9.48 0.69 12.49 0.77 C 15.51 0.85 18.13 2.87 18.96 5.77 C 19.8 8.67 18.66 11.77 16.15 13.45 L 16.15 13.45 Z M 9.41 8.76 C 9.42 8.75 9.43 8.74 9.44 8.73 C 9.5 8.66 9.56 8.61 9.64 8.56 L 9.64 8.56 C 9.73 8.51 9.82 8.48 9.93 8.48 L 9.94 8.48 L 9.96 8.47 C 9.98 8.47 9.99 8.47 10 8.47 C 10.01 8.47 10.02 8.47 10.04 8.47 C 10.04 8.47 10.05 8.47 10.06 8.48 C 10.07 8.48 10.08 8.48 10.08 8.48 C 10.15 8.49 10.22 8.5 10.28 8.52 C 10.31 8.53 10.33 8.55 10.36 8.57 C 10.41 8.59 10.46 8.63 10.51 8.67 C 10.53 8.69 10.55 8.72 10.57 8.75 L 13.49 10.72 C 13.85 10.99 13.96 11.48 13.76 11.89 C 13.68 12.07 13.52 12.22 13.33 12.28 C 13.14 12.34 12.92 12.31 12.76 12.2 L 10.77 10.85 L 10.77 16.92 C 10.77 17.35 10.42 17.69 10 17.69 C 9.58 17.69 9.23 17.35 9.23 16.92 L 9.23 10.85 L 7.24 12.19 C 7.08 12.3 6.86 12.33 6.67 12.27 C 6.48 12.21 6.32 12.07 6.24 11.88 C 6.04 11.48 6.15 10.99 6.51 10.71 L 9.41 8.76 Z M 9.41 8.76" />
</svg>