<?xml version="1.0" encoding="utf-8"?>
<!-- Generator: Avocode 2.5.4 - http://avocode.com -->
<svg height="20" width="20" xmlns:xlink="http://www.w3.org/1999/xlink" xmlns="http://www.w3.org/2000/svg" viewBox="0 0 20 20">
    <path fill="#000000" fill-rule="evenodd" d="M 18.33 5 L 18.33 5 L 18.33 18.33 C 18.33 19.25 17.59 20 16.67 20 L 3.33 20 C 2.41 20 1.67 19.25 1.67 18.33 L 1.67 5 C 0.75 5 0 4.25 0 3.33 L 0 1.67 C 0 0.75 0.75 0 1.67 0 L 18.33 0 C 19.25 0 20 0.75 20 1.67 L 20 3.33 C 20 4.25 19.25 5 18.33 5 L 18.33 5 Z M 3.33 18.33 L 16.67 18.33 L 16.67 5 L 3.33 5 L 3.33 18.33 L 3.33 18.33 Z M 18.33 1.67 L 1.67 1.67 L 1.67 3.33 L 18.33 3.33 L 18.33 1.67 L 18.33 1.67 Z M 11.67 11.67 L 8.33 11.67 C 6.95 11.67 5.83 10.55 5.83 9.17 C 5.83 7.79 6.95 6.67 8.33 6.67 L 11.67 6.67 C 13.05 6.67 14.17 7.79 14.17 9.17 C 14.17 10.55 13.05 11.67 11.67 11.67 L 11.67 11.67 Z M 11.67 8.33 L 8.33 8.33 C 7.87 8.33 7.5 8.71 7.5 9.17 C 7.5 9.63 7.87 10 8.33 10 L 11.67 10 C 12.13 10 12.5 9.63 12.5 9.17 C 12.5 8.71 12.13 8.33 11.67 8.33 L 11.67 8.33 Z M 11.67 8.33" />
</svg>