<?xml version="1.0" encoding="utf-8"?>
<!-- Generator: Avocode 2.5.4 - http://avocode.com -->
<svg height="17" width="21" xmlns:xlink="http://www.w3.org/1999/xlink" xmlns="http://www.w3.org/2000/svg" viewBox="0 0 21 17">
    <path fill="#000000" fill-rule="evenodd" d="M 17.5 11.38 L 15.75 11.38 L 15.75 12.25 C 15.75 14.67 13.79 16.63 11.38 16.63 L 4.38 16.63 C 1.96 16.63 0 14.67 0 12.25 L 0 1.75 C 0 0.78 0.78 0 1.75 0 L 14 0 C 14.97 0 15.75 0.78 15.75 1.75 L 15.75 4.38 L 17.5 4.38 C 19.43 4.38 21 5.94 21 7.88 C 21 9.81 19.43 11.38 17.5 11.38 L 17.5 11.38 Z M 14 1.75 L 1.75 1.75 L 1.75 12.25 C 1.75 13.7 2.93 14.88 4.38 14.88 L 11.38 14.88 C 12.82 14.88 14 13.7 14 12.25 L 14 1.75 L 14 1.75 Z M 17.5 6.13 L 15.75 6.13 L 15.75 9.63 L 17.5 9.63 C 18.47 9.63 19.25 8.84 19.25 7.88 C 19.25 6.91 18.47 6.13 17.5 6.13 L 17.5 6.13 Z M 17.5 6.13" />
</svg>