<?xml version="1.0" encoding="UTF-8" standalone="no"?>
<svg width="20px" height="20px" viewBox="0 0 20 20" version="1.1" xmlns="http://www.w3.org/2000/svg" xmlns:xlink="http://www.w3.org/1999/xlink">
    <!-- Generator: Sketch 3.6.1 (26313) - http://www.bohemiancoding.com/sketch -->
    <title>Delete</title>
    <desc>Created with Sketch.</desc>
    <defs></defs>
    <g id="Basics" stroke="none" stroke-width="1" fill="none" fill-rule="evenodd">
        <g id="Tool-Bar-Icons" transform="translate(-1316.000000, -100.000000)" fill="#FFFFFF">
            <g id="Toolbar" transform="translate(1288.000000, 100.000000)">
                <g id="Delete" transform="translate(28.000000, 0.000000)">
                    <path d="M17.5,5 L17.5,17.5 C17.5,18.8807119 16.3807119,20 15,20 L5,20 C3.61928813,20 2.5,18.8807119 2.5,17.5 L2.5,5 L0,5 C0,4.07952542 0.746192084,3.33333333 1.66666667,3.33333333 L5.83333333,3.33333333 L5.83333333,1.66666667 C5.83333333,0.746192084 6.57952542,0 7.5,0 L12.5,0 C13.4204746,0 14.1666667,0.746192084 14.1666667,1.66666667 L14.1666667,3.33333333 L18.3333333,3.33333333 C19.2538079,3.33333333 20,4.07952542 20,5 L17.5,5 L17.5,5 Z M12.5,1.66666667 L7.5,1.66666667 L7.5,3.33333333 L12.5,3.33333333 L12.5,1.66666667 L12.5,1.66666667 Z M5.83333333,5 L4.16666667,5 L4.16666667,18.3333333 L15.8333333,18.3333333 L15.8333333,5 L5.83333333,5 L5.83333333,5 Z" id="trash"></path>
                </g>
            </g>
        </g>
    </g>
</svg>