<?xml version="1.0" encoding="utf-8"?>
<!-- Generator: Avocode 2.5.4 - http://avocode.com -->
<svg height="70" width="53" xmlns:xlink="http://www.w3.org/1999/xlink" xmlns="http://www.w3.org/2000/svg" viewBox="0 0 53 70">
    <path fill="#000000" opacity="0.2" fill-rule="evenodd" d="M 38.05 21.91 L 51.44 21.91 C 51.45 21.9 51.46 21.9 51.48 21.91 C 52.21 21.91 52.8 21.31 52.8 20.58 C 52.8 20.13 52.57 19.73 52.22 19.49 L 33.4 0.39 C 33.03 0.01 32.46 -0.1 31.96 0.1 C 31.46 0.3 31.14 0.78 31.14 1.32 L 31.14 14.99 C 31.14 18.81 34.24 21.91 38.05 21.91 L 38.05 21.91 Z M 33.78 4.55 L 48.28 19.26 L 38.05 19.26 C 35.7 19.26 33.78 17.35 33.78 14.99 L 33.78 4.55 L 33.78 4.55 Z M 51.44 22.54 C 50.71 22.54 50.12 23.13 50.12 23.86 L 50.12 62.66 C 50.12 65.25 48.01 67.36 45.42 67.36 L 7.34 67.36 C 4.75 67.36 2.64 65.25 2.64 62.66 L 2.65 7.21 C 2.73 4.65 4.79 2.64 7.34 2.64 L 29.2 2.64 C 29.93 2.64 30.52 2.05 30.52 1.32 C 30.52 0.59 29.93 0 29.2 0 L 7.34 0 C 3.35 0 0.13 3.13 0.01 7.16 L 0 62.66 C 0 66.71 3.29 70 7.34 70 L 45.42 70 C 49.47 70 52.76 66.71 52.76 62.66 L 52.76 23.86 C 52.76 23.13 52.17 22.54 51.44 22.54 L 51.44 22.54 Z M 51.44 22.54" />
</svg>