<svg id="SvgjsSvg1000" xmlns="http://www.w3.org/2000/svg" version="1.1" xmlns:xlink="http://www.w3.org/1999/xlink" xmlns:svgjs="http://svgjs.com/svgjs" width="45" height="63" viewBox="0 0 45 63"><title>file</title><desc>Created with Avocode.</desc><defs id="SvgjsDefs1001"></defs><path id="SvgjsPath1007" d="M758.93 582.82C758.93 585.07 757.0999999999999 586.8900000000001 754.8499999999999 586.8900000000001H718.0799999999999C715.8299999999999 586.8900000000001 713.9999999999999 585.07 713.9999999999999 582.82V529.08C713.9999999999999 526.83 715.8299999999999 525.01 718.0799999999999 525.01H744.5099999999999C745.1399999999999 524.95 745.7599999999999 525.16 746.2099999999999 525.6L758.28 537.61C758.7099999999999 538.04 758.92 538.64 758.87 539.24L758.93 543.3ZM742.59 543.3C741.47 543.3 740.5500000000001 542.39 740.5500000000001 541.27V529.0799999999999H718.08V582.8199999999999H754.85V543.3ZM744.64 530.05V539.24H753.87Z " fill="#a6a6a9" fill-opacity="1" transform="matrix(1,0,0,1,-714,-524)"></path></svg>