<?xml version="1.0" encoding="utf-8"?>
<!-- Generator: Avocode 2.5.4 - http://avocode.com -->
<svg height="70" width="71" xmlns:xlink="http://www.w3.org/1999/xlink" xmlns="http://www.w3.org/2000/svg" viewBox="0 0 71 70">
    <path fill="#000000" opacity="0.2" fill-rule="evenodd" d="M 6.95 42.68 L 31.03 42.68 C 31.76 42.68 32.35 42.09 32.35 41.36 C 32.35 40.63 31.76 40.03 31.03 40.03 L 6.95 40.03 C 6.22 40.03 5.63 40.63 5.63 41.36 C 5.63 42.09 6.22 42.68 6.95 42.68 L 6.95 42.68 Z M 23.57 2.64 L 45.43 2.64 C 47.98 2.64 50.04 4.65 50.12 7.2 C 50.14 7.92 50.73 8.48 51.44 8.48 L 51.48 8.48 C 52.21 8.46 52.78 7.85 52.76 7.12 C 52.64 3.13 49.42 0 45.43 0 L 23.57 0 C 22.84 0 22.24 0.59 22.24 1.32 C 22.24 2.05 22.84 2.64 23.57 2.64 L 23.57 2.64 Z M 6.95 51.94 L 31.03 51.94 C 31.76 51.94 32.35 51.35 32.35 50.62 C 32.35 49.89 31.76 49.3 31.03 49.3 L 6.95 49.3 C 6.22 49.3 5.63 49.89 5.63 50.62 C 5.63 51.35 6.22 51.94 6.95 51.94 L 6.95 51.94 Z M 6.95 61.22 L 45.45 61.22 C 46.18 61.22 46.78 60.62 46.78 59.9 C 46.78 59.17 46.18 58.57 45.45 58.57 L 6.95 58.57 C 6.22 58.57 5.63 59.17 5.63 59.9 C 5.63 60.62 6.22 61.22 6.95 61.22 L 6.95 61.22 Z M 51.44 45.75 C 50.71 45.75 50.12 46.34 50.12 47.07 L 50.12 62.66 C 50.12 65.25 48.02 67.36 45.43 67.36 L 7.34 67.36 C 4.75 67.36 2.64 65.25 2.64 62.66 L 2.64 23.86 C 2.64 23.13 2.05 22.53 1.32 22.53 C 0.59 22.53 0 23.13 0 23.86 L 0 62.66 C 0 66.71 3.3 70 7.34 70 L 45.43 70 C 49.47 70 52.77 66.71 52.77 62.66 L 52.77 47.07 C 52.77 46.34 52.17 45.75 51.44 45.75 L 51.44 45.75 Z M 31.03 30.77 L 6.95 30.77 C 6.22 30.77 5.63 31.36 5.63 32.09 C 5.63 32.82 6.22 33.41 6.95 33.41 L 31.03 33.41 C 31.76 33.41 32.35 32.82 32.35 32.09 C 32.35 31.36 31.76 30.77 31.03 30.77 L 31.03 30.77 Z M 1.32 21.9 L 14.71 21.9 C 18.52 21.9 21.63 18.8 21.63 14.99 L 21.63 1.32 C 21.63 0.78 21.3 0.3 20.81 0.1 C 20.31 -0.1 19.74 0.01 19.36 0.39 L 0.38 19.65 C 0.01 20.03 -0.1 20.6 0.1 21.09 C 0.31 21.58 0.79 21.9 1.32 21.9 L 1.32 21.9 Z M 18.98 4.55 L 18.98 14.99 C 18.98 17.34 17.07 19.26 14.71 19.26 L 4.48 19.26 L 18.98 4.55 L 18.98 4.55 Z M 63.76 9.25 C 60.57 7.06 58.3 6.09 56.42 6.09 C 54.8 6.09 53.48 6.82 52.51 8.24 C 52.47 8.3 52.38 8.42 52.24 8.6 C 51.92 9.01 51.4 9.68 50.83 10.46 L 35.02 33.53 C 34.79 33.86 34.65 34.07 34.65 34.07 C 34.52 34.27 34.45 34.49 34.43 34.73 L 33.6 49.95 C 33.58 50.39 33.78 50.81 34.13 51.08 C 34.36 51.25 34.64 51.34 34.93 51.34 C 35.07 51.34 35.21 51.32 35.36 51.27 L 50.46 46.07 C 50.73 45.98 50.96 45.8 51.12 45.57 L 66.72 23.07 L 69.13 19.63 C 72.01 15.42 68.06 12.2 63.76 9.25 L 63.76 9.25 Z M 36.35 48.13 L 36.41 47.02 L 37.44 47.75 L 36.35 48.13 L 36.35 48.13 Z M 40.51 46.7 L 36.58 43.89 L 37 36.27 C 38.01 36.74 39.18 37.57 39.57 38.65 C 39.73 39.08 40.11 39.41 40.57 39.5 C 40.59 39.5 43.04 40.02 43.83 42.03 C 44.01 42.49 44.42 42.81 44.91 42.86 C 44.93 42.86 46.3 43.07 47.66 44.24 L 40.51 46.7 L 40.51 46.7 Z M 49.89 42.71 C 48.46 41.27 46.89 40.65 45.98 40.4 C 44.87 38.34 42.84 37.44 41.76 37.09 C 40.85 35.35 39.14 34.35 38.01 33.84 L 52.16 13.14 L 52.53 12.61 C 54.41 12.87 57.04 14.03 59.47 15.69 C 61.94 17.39 63.99 19.44 64.9 21.09 L 49.89 42.71 L 49.89 42.71 Z M 66.94 18.14 L 66.52 18.74 C 65.28 16.99 63.33 15.14 60.97 13.51 C 58.68 11.95 56.33 10.83 54.28 10.28 C 54.29 10.27 54.31 10.24 54.33 10.22 C 54.53 9.96 54.66 9.79 54.69 9.74 C 55.17 9.04 55.69 8.74 56.42 8.74 C 57.7 8.74 59.62 9.62 62.27 11.43 C 68.11 15.44 67.87 16.79 66.94 18.14 L 66.94 18.14 Z M 66.94 18.14" />
</svg>