<?xml version="1.0" encoding="utf-8"?>
<!-- Generator: Avocode 2.5.4 - http://avocode.com -->
<svg height="5" width="19" xmlns:xlink="http://www.w3.org/1999/xlink" xmlns="http://www.w3.org/2000/svg" viewBox="0 0 19 5">
    <path fill="#000000" opacity="0.75" fill-rule="evenodd" d="M 9.17 5 C 10.55 5 11.67 3.88 11.67 2.5 C 11.67 1.12 10.55 0 9.17 0 C 7.79 0 6.67 1.12 6.67 2.5 C 6.67 3.88 7.79 5 9.17 5 Z M 2.5 5 C 3.88 5 5 3.88 5 2.5 C 5 1.12 3.88 0 2.5 0 C 1.12 0 0 1.12 0 2.5 C 0 3.88 1.12 5 2.5 5 Z M 16.39 5 C 17.77 5 18.89 3.88 18.89 2.5 C 18.89 1.12 17.77 0 16.39 0 C 15.01 0 13.89 1.12 13.89 2.5 C 13.89 3.88 15.01 5 16.39 5 Z M 16.39 5" />
</svg>