<?xml version="1.0" encoding="utf-8"?>
<!-- Generator: Avocode 2.5.4 - http://avocode.com -->
<svg height="11" width="11" xmlns:xlink="http://www.w3.org/1999/xlink" xmlns="http://www.w3.org/2000/svg" viewBox="0 0 11 11">
    <path stroke-linejoin="miter" stroke-linecap="butt" stroke-width="1" stroke="#000000" fill="#000000" fill-rule="evenodd" d="M 1.6 1.18 C 1.53 1.11 1.42 1.11 1.35 1.18 L 1.36 1.17 C 1.29 1.24 1.29 1.36 1.36 1.43 L 5.26 5.43 L 5.39 5.3 L 1.35 9.42 C 1.29 9.49 1.29 9.61 1.36 9.68 L 1.36 9.68 C 1.43 9.75 1.54 9.75 1.61 9.68 L 5.51 5.68 C 5.65 5.54 5.65 5.31 5.51 5.17 L 1.6 1.18 L 1.6 1.18 Z M 1.6 1.18" />
    <path stroke-linejoin="miter" stroke-linecap="butt" stroke-width="1" stroke="#000000" fill="#000000" fill-rule="evenodd" d="M 6.6 1.18 C 6.53 1.11 6.42 1.11 6.35 1.18 L 6.36 1.17 C 6.29 1.24 6.29 1.36 6.36 1.43 L 10.26 5.43 L 10.39 5.3 L 6.35 9.42 C 6.29 9.49 6.29 9.61 6.36 9.68 L 6.36 9.68 C 6.43 9.75 6.54 9.75 6.61 9.68 L 10.51 5.68 C 10.65 5.54 10.65 5.31 10.51 5.17 L 6.6 1.18 L 6.6 1.18 Z M 6.6 1.18" />
</svg>