<?xml version="1.0" encoding="utf-8"?>
<!-- Generator: Adobe Illustrator 16.0.0, SVG Export Plug-In . SVG Version: 6.00 Build 0)  -->
<!DOCTYPE svg PUBLIC "-//W3C//DTD SVG 1.1//EN" "http://www.w3.org/Graphics/SVG/1.1/DTD/svg11.dtd">
<svg version="1.1" id="Layer_1" xmlns="http://www.w3.org/2000/svg" xmlns:xlink="http://www.w3.org/1999/xlink" x="0px" y="0px"
	 width="11px" height="11px" viewBox="0 0 11 11" enable-background="new 0 0 11 11" xml:space="preserve">
<path stroke="#000000" d="M9.016,1.053l-3.91,3.99c-0.141,0.141-0.141,0.369,0,0.51l3.9,4c0.068,0.07,0.18,0.07,0.25,0l0,0
	c0.068-0.07,0.068-0.189,0.01-0.26L5.225,5.172l0.131,0.131l3.9-4c0.068-0.07,0.068-0.19,0-0.26l0.01,0.01
	C9.195,0.982,9.086,0.982,9.016,1.053L9.016,1.053z"/>
<path stroke="#000000" d="M4.016,1.053l-3.91,3.99c-0.141,0.141-0.141,0.369,0,0.51l3.9,4c0.068,0.07,0.18,0.07,0.25,0l0,0
	c0.068-0.07,0.068-0.189,0.01-0.26L0.225,5.172l0.131,0.131l3.9-4c0.068-0.07,0.068-0.19,0-0.26l0.01,0.01
	C4.196,0.982,4.086,0.982,4.016,1.053L4.016,1.053z"/>
</svg>
