<svg id="SvgjsSvg1000" xmlns="http://www.w3.org/2000/svg" version="1.1" xmlns:xlink="http://www.w3.org/1999/xlink" xmlns:svgjs="http://svgjs.com/svgjs" width="26" height="26" viewBox="0 0 26 26"><title>Shape</title><desc>Created with Avocode.</desc><defs id="SvgjsDefs1001"></defs><path id="SvgjsPath1007" d="M282.4 43.9L257.59999999999997 43.9C257.27 43.9 256.99999999999994 43.629999999999995 256.99999999999994 43.3L256.99999999999994 36.22C256.99999999999994 35.89 257.2699999999999 35.62 257.59999999999997 35.62C257.93999999999994 35.62 258.21 35.89 258.21 36.22L258.21 42.69L281.78999999999996 42.69L281.78999999999996 36.33C281.78999999999996 36 282.05999999999995 35.73 282.4 35.73C282.72999999999996 35.73 283 36 283 36.33L283 43.3C283 43.629999999999995 282.73 43.9 282.4 43.9ZM270.39 39.94L276.76 33.059999999999995C276.98 32.81999999999999 276.96999999999997 32.44 276.71999999999997 32.209999999999994C276.47999999999996 31.979999999999993 276.09 31.999999999999993 275.86999999999995 32.239999999999995L270.54999999999995 37.989999999999995L270.54999999999995 18.599999999999994C270.54999999999995 18.269999999999996 270.27 17.999999999999993 269.93999999999994 17.999999999999993C269.60999999999996 17.999999999999993 269.3399999999999 18.269999999999992 269.3399999999999 18.599999999999994L269.3399999999999 37.97999999999999L264.0299999999999 32.23999999999999C263.7999999999999 31.99999999999999 263.4199999999999 31.979999999999986 263.1699999999999 32.20999999999999C262.9299999999999 32.43999999999998 262.9099999999999 32.819999999999986 263.13999999999993 33.05999999999999L269.49999999999994 39.93999999999999C269.61999999999995 40.05999999999999 269.7799999999999 40.12999999999999 269.94999999999993 40.12999999999999C270.11999999999995 40.12999999999999 270.2799999999999 40.05999999999999 270.38999999999993 39.93999999999999Z " fill="#ffffff" fill-opacity="1" transform="matrix(1,0,0,1,-257,-18)"></path></svg>