<?xml version="1.0" encoding="utf-8"?>
<!-- Generator: Adobe Illustrator 16.0.0, SVG Export Plug-In . SVG Version: 6.00 Build 0)  -->
<!DOCTYPE svg PUBLIC "-//W3C//DTD SVG 1.1//EN" "http://www.w3.org/Graphics/SVG/1.1/DTD/svg11.dtd">
<svg version="1.1" id="Layer_1" xmlns="http://www.w3.org/2000/svg" xmlns:xlink="http://www.w3.org/1999/xlink" x="0px" y="0px"
	 width="26px" height="26px" viewBox="-0.5 -0.5 26 26" enable-background="new -0.5 -0.5 26 26" xml:space="preserve">
<g>
	<g>
		<path fill="#D8D8D8" d="M12.5,25.5c-7.168,0-13-5.832-13-13c0-7.168,5.832-13,13-13c7.168,0,13,5.832,13,13
			C25.5,19.668,19.668,25.5,12.5,25.5z M12.5,0.5c-6.617,0-12,5.383-12,12c0,6.617,5.383,12,12,12c6.617,0,12-5.383,12-12
			C24.5,5.883,19.117,0.5,12.5,0.5z"/>
	</g>
	<path fill="#E0E0E0" d="M15.02,7.28C14.83,7.09,14.58,7,14.34,7c-0.25,0-0.5,0.09-0.689,0.28l-5.01,5.01l2.74,2.74l5.011-5.01
		c0.379-0.39,0.379-0.99,0-1.37L15.02,7.28L15.02,7.28z"/>
	<path fill="#E0E0E0" d="M10.66,15.68l-2.67-2.67L7,16.67L10.66,15.68z"/>
</g>
</svg>
