<?xml version="1.0" encoding="utf-8"?>
<!-- Generator: Adobe Illustrator 16.0.0, SVG Export Plug-In . SVG Version: 6.00 Build 0)  -->
<!DOCTYPE svg PUBLIC "-//W3C//DTD SVG 1.1//EN" "http://www.w3.org/Graphics/SVG/1.1/DTD/svg11.dtd">
<svg version="1.1" id="Layer_1" xmlns="http://www.w3.org/2000/svg" xmlns:xlink="http://www.w3.org/1999/xlink" x="0px" y="0px"
	 width="20px" height="20px" viewBox="9 5 20 20" enable-background="new 9 5 20 20" xml:space="preserve">
<path d="M19,17.91l-8.75-6.66l8.74-4.79l8.76,4.79L19,17.91L19,17.91z M27.75,22.5c0,0.13-0.02,0.25-0.061,0.359L22.08,17.25
	l5.67-4.52V22.5L27.75,22.5z M11.22,23.72l5.74-5.75L19,19.38l2.04-1.41l5.739,5.75C26.689,23.74,11.31,23.74,11.22,23.72
	L11.22,23.72z M10.25,22.5v-9.77l5.67,4.52l-5.61,5.609C10.27,22.75,10.25,22.63,10.25,22.5L10.25,22.5z M19,5L9,10.63V22.5
	c0,1.38,1.12,2.5,2.5,2.5h15c1.38,0,2.5-1.12,2.5-2.5V10.63L19,5L19,5z"/>
</svg>
