<?xml version="1.0" encoding="utf-8"?>
<!-- Generator: Avocode 2.6.0 - http://avocode.com -->
<svg height="32" width="32" xmlns:xlink="http://www.w3.org/1999/xlink" xmlns="http://www.w3.org/2000/svg" viewBox="0 0 32 32">
    <path fill="#000000" fill-rule="evenodd" d="M 28.67 32 L 3.33 32 C 1.5 32 0 30.5 0 28.67 L 0 3.33 C 0 1.5 1.5 0 3.33 0 L 28.67 0 C 30.5 0 32 1.5 32 3.33 L 32 28.67 C 32 30.5 30.5 32 28.67 32 L 28.67 32 Z M 3.33 1.33 C 2.23 1.33 1.33 2.23 1.33 3.33 L 1.33 28.67 C 1.33 29.77 2.23 30.67 3.33 30.67 L 28.67 30.67 C 29.77 30.67 30.67 29.77 30.67 28.67 L 30.67 3.33 C 30.67 2.23 29.77 1.33 28.67 1.33 L 3.33 1.33 Z M 3.33 1.33" />
    <path fill="#000000" fill-rule="evenodd" d="M 31.33 6.67 L 0.67 6.67 C 0.3 6.67 0 6.37 0 6 C 0 5.63 0.3 5.33 0.67 5.33 L 31.33 5.33 C 31.7 5.33 32 5.63 32 6 C 32 6.37 31.7 6.67 31.33 6.67 L 31.33 6.67 Z M 31.33 6.67" />
    <path fill="#000000" fill-rule="evenodd" d="M 4 3.33 C 4 4.22 2.67 4.22 2.67 3.33 C 2.67 2.44 4 2.44 4 3.33" />
    <path fill="#000000" fill-rule="evenodd" d="M 6.67 3.33 C 6.67 4.22 5.33 4.22 5.33 3.33 C 5.33 2.44 6.67 2.44 6.67 3.33" />
    <path fill="#000000" fill-rule="evenodd" d="M 9.33 3.33 C 9.33 4.22 8 4.22 8 3.33 C 8 2.44 9.33 2.44 9.33 3.33" />
    <path fill="#000000" fill-rule="evenodd" d="M 7.38 15.76 C 7.38 14.4 8.49 13.29 9.85 13.29 L 22.64 13.29 C 24 13.29 25.11 14.39 25.11 15.76 L 25.11 19.2 C 25.11 20.56 24 21.66 22.64 21.66 L 9.85 21.66 C 8.49 21.66 7.38 20.57 7.38 19.2 L 7.38 15.76 Z M 7.38 15.76" />
    <text font-weight="700" font-size="3" font-family="Montserrat" fill="#ffffff" y="20" x="10">
        <tspan>Apply</tspan>
    </text>
</svg>