<?xml version="1.0" encoding="utf-8"?>
<!-- Generator: Avocode 2.5.4 - http://avocode.com -->
<svg height="20" width="20" xmlns:xlink="http://www.w3.org/1999/xlink" xmlns="http://www.w3.org/2000/svg" viewBox="0 0 20 20">
    <path fill="#000000" fill-rule="evenodd" d="M 19.14 10.71 C 19.07 11.3 18.57 11.75 17.98 11.75 L 17.91 11.75 L 17.82 11.75 C 17.28 11.75 16.81 12.08 16.62 12.58 C 16.43 13.08 16.57 13.65 16.96 14 C 17.42 14.42 17.47 15.12 17.09 15.61 C 16.63 16.18 16.11 16.7 15.53 17.15 C 15.32 17.31 15.07 17.4 14.81 17.4 C 14.48 17.4 14.16 17.26 13.94 17.01 C 13.68 16.75 13.31 16.59 12.94 16.6 C 12.78 16.6 12.63 16.63 12.49 16.68 C 11.99 16.89 11.67 17.39 11.69 17.93 C 11.71 18.55 11.25 19.07 10.64 19.14 C 9.92 19.22 9.2 19.22 8.48 19.14 C 7.86 19.06 7.41 18.52 7.45 17.9 C 7.48 17.35 7.16 16.85 6.66 16.63 C 6.51 16.57 6.36 16.54 6.2 16.54 C 5.83 16.54 5.46 16.69 5.2 16.96 C 4.78 17.42 4.07 17.48 3.59 17.09 C 3.03 16.63 2.52 16.12 2.07 15.55 C 1.69 15.07 1.75 14.37 2.2 13.96 C 2.6 13.59 2.73 13.01 2.53 12.51 C 2.34 12.03 1.88 11.72 1.37 11.71 L 1.32 11.71 C 0.7 11.72 0.17 11.27 0.07 10.67 C -0.02 9.94 -0.02 9.21 0.07 8.48 C 0.13 7.87 0.65 7.42 1.27 7.44 C 1.82 7.46 2.33 7.15 2.57 6.65 C 2.78 6.15 2.65 5.56 2.24 5.19 C 1.79 4.77 1.73 4.07 2.11 3.59 C 2.57 3.02 3.09 2.5 3.67 2.05 C 3.87 1.89 4.13 1.8 4.39 1.8 C 4.73 1.8 5.04 1.94 5.27 2.18 C 5.53 2.45 5.89 2.6 6.27 2.6 C 6.42 2.6 6.57 2.57 6.71 2.52 C 7.21 2.31 7.53 1.81 7.51 1.27 C 7.49 0.65 7.95 0.13 8.56 0.06 C 9.28 -0.02 10 -0.02 10.72 0.06 C 11.34 0.14 11.79 0.68 11.75 1.3 C 11.72 1.85 12.04 2.36 12.55 2.57 C 12.69 2.63 12.85 2.66 13 2.66 C 13.38 2.66 13.74 2.51 14 2.24 C 14.42 1.78 15.12 1.72 15.61 2.11 C 16.17 2.56 16.68 3.08 17.13 3.65 C 17.52 4.13 17.46 4.83 17 5.25 C 16.6 5.61 16.47 6.18 16.67 6.68 C 16.87 7.18 17.35 7.5 17.89 7.49 C 18.5 7.49 19.03 7.93 19.14 8.53 C 19.22 9.26 19.22 9.99 19.14 10.71 L 19.14 10.71 Z M 17.55 8.85 C 16.53 8.83 15.62 8.2 15.23 7.26 C 14.85 6.32 15.05 5.23 15.76 4.5 C 15.45 4.11 15.1 3.76 14.72 3.44 C 14.22 3.91 13.57 4.16 12.89 4.16 C 12.56 4.17 12.24 4.1 11.94 3.98 C 10.99 3.58 10.37 2.65 10.36 1.62 C 9.87 1.57 9.37 1.57 8.88 1.62 C 8.83 2.61 8.17 3.47 7.23 3.78 C 6.96 3.95 6.66 4.06 6.35 4.11 C 5.67 4.11 5.02 3.86 4.52 3.4 C 4.13 3.72 3.77 4.07 3.45 4.45 C 4.17 5.19 4.37 6.29 3.98 7.24 C 3.56 8.18 2.65 8.79 1.63 8.81 C 1.58 9.31 1.58 9.82 1.62 10.32 C 2.64 10.34 3.56 10.96 3.94 11.91 C 4.33 12.86 4.12 13.94 3.41 14.68 C 3.73 15.06 4.07 15.41 4.45 15.73 C 4.95 15.27 5.6 15.01 6.28 15.01 C 6.61 15.01 6.94 15.07 7.24 15.2 C 8.19 15.6 8.81 16.52 8.82 17.55 C 9.31 17.6 9.81 17.6 10.3 17.55 C 10.33 16.54 10.95 15.63 11.89 15.24 C 12.19 15.12 12.51 15.06 12.83 15.06 C 13.5 15.06 14.16 15.31 14.66 15.77 C 15.05 15.45 15.4 15.1 15.73 14.72 C 15.01 13.98 14.8 12.88 15.2 11.93 C 15.61 10.99 16.53 10.37 17.55 10.35 C 17.6 9.85 17.6 9.35 17.55 8.85 L 17.55 8.85 Z M 9.6 12.79 C 8.3 12.8 7.13 12.02 6.63 10.82 C 6.13 9.63 6.4 8.24 7.32 7.33 C 8.23 6.41 9.61 6.13 10.81 6.62 C 12.01 7.12 12.79 8.29 12.79 9.59 C 12.8 11.35 11.37 12.79 9.6 12.79 L 9.6 12.79 Z M 9.6 8 C 8.72 8 8.01 8.72 8.01 9.6 C 8.01 10.49 8.73 11.2 9.61 11.2 C 10.5 11.2 11.21 10.48 11.21 9.6 C 11.21 9.17 11.04 8.76 10.74 8.46 C 10.44 8.16 10.03 8 9.6 8 L 9.6 8 Z M 9.6 8" />
</svg>