<?xml version="1.0" encoding="utf-8"?>
<!-- Generator: Adobe Illustrator 16.0.0, SVG Export Plug-In . SVG Version: 6.00 Build 0)  -->
<!DOCTYPE svg PUBLIC "-//W3C//DTD SVG 1.1//EN" "http://www.w3.org/Graphics/SVG/1.1/DTD/svg11.dtd">
<svg version="1.1" id="Layer_1" xmlns="http://www.w3.org/2000/svg" xmlns:xlink="http://www.w3.org/1999/xlink" x="0px" y="0px"
	 width="22px" height="18.67px" viewBox="-1 -1 22 18.67" enable-background="new -1 -1 22 18.67" xml:space="preserve">
<g>
	<path d="M10,17.67c-3.495,0-11-7.791-11-11.42C-1,2.828,1.746-1,5.42-1c1.71,0,3.655,1.436,4.646,2.276
		C11.374,0.349,13.469-1,14.58-1C18.255-1,21,2.828,21,6.25C21,9.879,13.495,17.67,10,17.67z M5.42,1C2.972,1,1,3.872,1,6.25
		c0,2.465,6.645,9.42,9,9.42c2.355,0,9-6.955,9-9.42C19,3.872,17.028,1,14.58,1c-0.478,0.039-2.344,1.143-3.983,2.362L9.916,3.869
		L9.304,3.278C8.393,2.397,6.533,1,5.42,1z"/>
</g>
</svg>
