<?xml version="1.0" encoding="utf-8"?>
<!-- Generator: Avocode 2.5.4 - http://avocode.com -->
<svg height="25" width="25" xmlns:xlink="http://www.w3.org/1999/xlink" xmlns="http://www.w3.org/2000/svg" viewBox="0 0 25 25">
    <path fill="#100f0f" fill-rule="evenodd" d="M 12.5 25 C 5.6 25 0 19.4 0 12.5 C 0 5.6 5.6 0 12.5 0 C 19.4 0 25 5.6 25 12.5 C 25 19.4 19.4 25 12.5 25 L 12.5 25 Z M 12.5 2.08 C 6.75 2.08 2.08 6.75 2.08 12.5 C 2.08 18.25 6.75 22.92 12.5 22.92 C 18.25 22.92 22.92 18.25 22.92 12.5 C 22.92 9.74 21.82 7.09 19.87 5.13 C 17.91 3.18 15.26 2.08 12.5 2.08 L 12.5 2.08 Z M 12.5 18.75 C 11.93 18.75 11.47 18.28 11.47 17.71 L 11.47 11.47 C 11.45 11.09 11.65 10.74 11.97 10.55 C 12.3 10.35 12.7 10.35 13.03 10.55 C 13.35 10.74 13.55 11.09 13.53 11.47 L 13.53 17.71 C 13.53 17.98 13.43 18.25 13.23 18.44 C 13.04 18.64 12.78 18.75 12.5 18.75 L 12.5 18.75 Z M 12.5 8.33 C 12.08 8.33 11.7 8.08 11.54 7.7 C 11.38 7.31 11.47 6.87 11.77 6.57 C 12.06 6.27 12.51 6.19 12.89 6.35 C 13.28 6.51 13.53 6.88 13.53 7.3 C 13.53 7.87 13.07 8.33 12.5 8.33 L 12.5 8.33 Z M 13.53 7.29 L 13.53 7.3 C 13.53 7.3 13.53 7.3 13.53 7.3 C 13.53 7.3 13.53 7.29 13.53 7.29 L 13.53 7.29 Z M 13.53 7.29" />
</svg>