<?xml version="1.0" encoding="utf-8"?>
<!-- Generator: Avocode 2.6.0 - http://avocode.com -->
<svg height="14" width="18" xmlns:xlink="http://www.w3.org/1999/xlink" xmlns="http://www.w3.org/2000/svg" viewBox="0 0 18 14">
    <path fill="#000000" fill-rule="evenodd" d="M 16.19 13.25 L 1.47 13.25 C 0.66 13.25 0 12.59 0 11.78 L 0 1.47 C 0 0.66 0.66 0 1.47 0 L 16.19 0 C 17.01 0 17.67 0.66 17.67 1.47 L 17.67 11.78 C 17.67 12.59 17.01 13.25 16.19 13.25 L 16.19 13.25 Z M 3.97 1.47 L 8.83 6.34 L 13.7 1.47 L 3.97 1.47 L 3.97 1.47 Z M 16.19 1.47 L 15.75 1.47 L 9.41 7.8 C 9.4 7.83 9.38 7.86 9.36 7.89 C 9.06 8.17 8.6 8.17 8.31 7.89 C 8.29 7.86 8.27 7.83 8.25 7.8 L 1.92 1.47 L 1.47 1.47 L 1.47 11.78 L 16.19 11.78 L 16.19 1.47 L 16.19 1.47 Z M 16.19 1.47" />
</svg>