<svg id="SvgjsSvg1022" xmlns="http://www.w3.org/2000/svg" version="1.1" xmlns:xlink="http://www.w3.org/1999/xlink" xmlns:svgjs="http://svgjs.com/svgjs" width="24" height="24" viewBox="0 0 24 24"><title>Fill 184</title><desc>Created with Avocode.</desc><defs id="SvgjsDefs1023"></defs><path id="SvgjsPath1024" d="M448.36 1075.18C448.12 1075.18 447.87 1075.0900000000001 447.68 1074.9C445.44 1072.65 445.44 1069 447.68 1066.75L451.75 1062.69C452.84 1061.6000000000001 454.28 1061 455.82 1061C457.36 1061 458.81 1061.6 459.9 1062.69C462.14 1064.93 462.14 1068.5900000000001 459.9 1070.8300000000002L457.85999999999996 1072.8700000000001C457.47999999999996 1073.24 456.87999999999994 1073.24 456.49999999999994 1072.8700000000001C456.12999999999994 1072.5000000000002 456.12999999999994 1071.89 456.49999999999994 1071.5100000000002L458.53999999999996 1069.4800000000002C460.03999999999996 1067.9800000000002 460.03999999999996 1065.5400000000002 458.53999999999996 1064.0500000000002C457.09 1062.5900000000001 454.55999999999995 1062.5900000000001 453.10999999999996 1064.0500000000002L449.03999999999996 1068.1100000000001C447.53999999999996 1069.6100000000001 447.53999999999996 1072.0400000000002 449.03999999999996 1073.5400000000002C449.41999999999996 1073.9200000000003 449.41999999999996 1074.5200000000002 449.03999999999996 1074.9C448.84999999999997 1075.0900000000001 448.60999999999996 1075.18 448.35999999999996 1075.18 " fill="#c9c9c9" fill-opacity="1" transform="matrix(1,0,0,1,-438,-1061)"></path><path id="SvgjsPath1025" d="M443.76 1084.18C442.28999999999996 1084.18 440.81 1083.6100000000001 439.69 1082.49C438.6 1081.4 438 1079.96 438 1078.42C438 1076.88 438.6 1075.43 439.69 1074.3500000000001L441.71999999999997 1072.3100000000002C442.09999999999997 1071.93 442.71 1071.93 443.08 1072.3100000000002C443.46 1072.6900000000003 443.46 1073.2900000000002 443.08 1073.67L441.05 1075.7C440.32 1076.43 439.92 1077.39 439.92 1078.42C439.92 1079.44 440.32 1080.41 441.05 1081.13C442.54 1082.63 444.98 1082.63 446.48 1081.13L450.54 1077.0700000000002C452.04 1075.5700000000002 452.04 1073.14 450.54 1071.64C450.17 1071.26 450.17 1070.66 450.54 1070.2800000000002C450.92 1069.9100000000003 451.52000000000004 1069.9100000000003 451.90000000000003 1070.2800000000002C454.14000000000004 1072.5300000000002 454.14000000000004 1076.1800000000003 451.90000000000003 1078.4300000000003L447.83000000000004 1082.4900000000002C446.71000000000004 1083.6100000000001 445.24000000000007 1084.1800000000003 443.76000000000005 1084.1800000000003 " fill="#c9c9c9" fill-opacity="1" transform="matrix(1,0,0,1,-438,-1061)"></path></svg>