<?xml version="1.0" encoding="utf-8"?>
<!-- Generator: Avocode 2.5.4 - http://avocode.com -->
<svg height="18" width="22" xmlns:xlink="http://www.w3.org/1999/xlink" xmlns="http://www.w3.org/2000/svg" viewBox="0 0 22 18">
    <path fill="#000000" fill-rule="evenodd" d="M 14.13 11.41 L 9.14 16.39 C 8.05 17.47 6.47 17.59 5.54 16.65 L 1.34 12.52 C 0.4 11.57 0.53 9.91 1.62 8.82 L 7.75 2.69 C 8.67 2.4 13.79 0.82 14.02 0.74 C 14.08 0.72 14.3 0.66 14.49 0.84 C 14.74 1.1 16.92 3.27 17.16 3.51 C 17.29 3.64 17.31 3.76 17.26 3.93 C 17.2 4.1 16.51 6.25 15.91 8.15 L 15.61 9.09 C 15.55 9.27 15.65 9.47 15.84 9.53 C 16.03 9.59 16.23 9.49 16.29 9.3 L 16.59 8.37 C 17.13 6.66 17.87 4.33 17.93 4.16 C 18.08 3.73 17.98 3.33 17.66 3.01 C 17.42 2.77 15.25 0.59 14.99 0.34 C 14.67 0.02 14.2 -0.08 13.78 0.07 C 13.61 0.13 9.9 1.28 7.45 2.04 C 7.4 2.05 7.35 2.08 7.31 2.12 L 1.12 8.32 C -0.25 9.69 -0.38 11.79 0.84 13.02 L 5.03 17.16 C 5.6 17.72 6.33 18 7.1 18 C 7.98 18 8.91 17.63 9.65 16.89 L 14.63 11.91 C 14.77 11.77 14.77 11.55 14.63 11.41 C 14.49 11.27 14.27 11.27 14.13 11.41 L 14.13 11.41 Z M 13.37 5.97 C 13.18 6.01 13.05 6.19 13.09 6.39 C 13.12 6.56 13.27 6.68 13.44 6.68 C 13.46 6.68 13.48 6.68 13.5 6.67 C 14.43 6.51 15.1 5.71 15.1 4.77 C 15.1 3.7 14.23 2.83 13.16 2.83 C 12.09 2.83 11.22 3.7 11.22 4.77 C 11.22 5.16 11.34 5.53 11.56 5.85 C 11.67 6.02 11.89 6.06 12.05 5.95 C 12.21 5.84 12.26 5.62 12.15 5.45 C 12.01 5.25 11.94 5.01 11.94 4.77 C 11.94 4.09 12.49 3.54 13.16 3.54 C 13.84 3.54 14.39 4.09 14.39 4.77 C 14.39 5.36 13.96 5.87 13.37 5.97 L 13.37 5.97 Z M 19.18 4.1 C 19.03 3.97 18.81 4 18.68 4.15 C 18.56 4.3 18.58 4.53 18.73 4.65 C 20.46 6.05 20.93 8.33 19.79 9.73 C 19.31 10.33 18.59 10.7 17.75 10.78 C 16.68 10.89 15.53 10.52 14.6 9.77 C 12.88 8.38 12.41 6.1 13.54 4.69 C 13.67 4.53 13.64 4.31 13.49 4.19 C 13.34 4.06 13.11 4.09 12.99 4.24 C 11.6 5.95 12.13 8.68 14.16 10.32 C 15.11 11.09 16.27 11.51 17.39 11.51 C 17.53 11.51 17.68 11.51 17.82 11.49 C 18.85 11.39 19.74 10.93 20.35 10.18 C 21.73 8.47 21.21 5.74 19.18 4.1 L 19.18 4.1 Z M 19.18 4.1" />
</svg>