<?xml version="1.0" encoding="utf-8"?>
<!-- Generator: Avocode 2.5.4 - http://avocode.com -->
<svg height="20" width="14" xmlns:xlink="http://www.w3.org/1999/xlink" xmlns="http://www.w3.org/2000/svg" viewBox="0 0 14 20">
    <path fill="#ffffff" fill-rule="evenodd" d="M 13.33 13.33 C 13.33 16.56 11.01 19.33 7.83 19.9 C 4.64 20.46 1.51 18.66 0.4 15.62 C -0.7 12.58 0.53 9.18 3.33 7.56 L 3.33 3.33 C 3.33 1.49 4.82 0 6.66 0 C 8.5 0 10 1.49 10 3.33 L 10 7.56 C 12.06 8.75 13.33 10.95 13.33 13.33 L 13.33 13.33 Z M 3.33 7.56 L 3.44 7.5 L 3.33 7.5 L 3.33 7.56 L 3.33 7.56 Z M 6.66 1.67 C 5.74 1.67 5 2.41 5 3.33 L 5 6.88 C 6.09 6.59 7.24 6.59 8.33 6.88 L 8.33 3.33 C 8.33 2.41 7.58 1.67 6.66 1.67 L 6.66 1.67 Z M 10 7.5 L 9.89 7.5 L 10 7.56 L 10 7.5 L 10 7.5 Z M 6.66 8.32 C 4.64 8.32 2.81 9.54 2.04 11.41 C 1.26 13.28 1.69 15.44 3.12 16.87 C 4.55 18.3 6.71 18.73 8.58 17.96 C 10.45 17.18 11.67 15.35 11.67 13.33 C 11.67 10.56 9.43 8.32 6.66 8.32 L 6.66 8.32 Z M 6.66 15 C 6.2 15 5.83 14.62 5.83 14.16 L 5.83 12.5 C 5.83 12.04 6.2 11.66 6.66 11.66 C 7.12 11.66 7.5 12.04 7.5 12.5 L 7.5 14.16 C 7.5 14.62 7.12 14.99 6.66 14.99 L 6.66 15 Z M 6.66 15" />
</svg>