<?xml version="1.0" encoding="utf-8"?>
<!-- Generator: Avocode 2.5.4 - http://avocode.com -->
<svg height="22" width="22" xmlns:xlink="http://www.w3.org/1999/xlink" xmlns="http://www.w3.org/2000/svg" viewBox="0 0 22 22">
    <path fill="#ffffff" fill-rule="evenodd" d="M 21.09 21.09 L 15.69 19.74 C 11.1 22.31 5.31 21.1 2.13 16.9 C -1.04 12.7 -0.63 6.81 3.09 3.09 C 6.81 -0.63 12.71 -1.04 16.9 2.14 C 21.1 5.31 22.31 11.1 19.74 15.69 L 21.09 21.09 Z M 16.7 4.37 C 13.4 1.07 8.1 0.94 4.65 4.08 C 1.2 7.22 0.83 12.51 3.81 16.1 C 6.79 19.69 12.06 20.3 15.78 17.49 L 18.34 18.34 L 17.49 15.78 C 20.11 12.31 19.77 7.44 16.7 4.37 L 16.7 4.37 Z M 16.7 4.37" />
</svg>