<?xml version="1.0" encoding="utf-8"?>
<!-- Generator: Adobe Illustrator 16.0.0, SVG Export Plug-In . SVG Version: 6.00 Build 0)  -->
<!DOCTYPE svg PUBLIC "-//W3C//DTD SVG 1.1//EN" "http://www.w3.org/Graphics/SVG/1.1/DTD/svg11.dtd">
<svg version="1.1" id="Layer_1" xmlns="http://www.w3.org/2000/svg" xmlns:xlink="http://www.w3.org/1999/xlink" x="0px" y="0px"
	 width="65.589px" height="65.654px" viewBox="-0.956 -0.999 65.589 65.654" enable-background="new -0.956 -0.999 65.589 65.654"
	 xml:space="preserve">
<g>
	<path fill="#979797" d="M64.633,64.655l-17.424-4.37C42.434,62.88,37.06,64.25,31.64,64.25c-10.172,0-19.905-4.836-26.037-12.937
		C-4.167,38.383-2.894,20,8.563,8.552c6.16-6.159,14.353-9.551,23.071-9.551c7.161,0,13.965,2.286,19.679,6.611
		c12.808,9.695,16.625,27.512,8.973,41.596L64.633,64.655z M31.634,1.001c-8.184,0-15.875,3.184-21.657,8.965
		C-0.778,20.713-1.973,37.969,7.198,50.107C12.953,57.71,22.091,62.25,31.64,62.25c5.212,0,10.379-1.35,14.942-3.903l0.347-0.193
		l14.958,3.752l-3.732-14.978l0.193-0.346c7.425-13.271,3.882-30.198-8.241-39.375C44.743,3.147,38.355,1.001,31.634,1.001z"/>
</g>
</svg>
