<?xml version="1.0" encoding="utf-8"?>
<!-- Generator: Avocode 2.5.4 - http://avocode.com -->
<svg height="20" width="20" xmlns:xlink="http://www.w3.org/1999/xlink" xmlns="http://www.w3.org/2000/svg" viewBox="0 0 20 20">
    <path fill="#000000" fill-rule="evenodd" d="M 16.8 19.2 C 15.45 19.21 14.23 18.37 13.77 17.1 C 13.3 15.83 13.69 14.41 14.73 13.54 C 15.76 12.68 17.24 12.56 18.4 13.24 L 18.4 1.8 L 7.2 5.39 L 7.2 15.2 C 7.2 15.29 7.18 15.38 7.14 15.47 C 7.18 15.64 7.2 15.82 7.2 16 C 7.22 17.47 6.24 18.77 4.82 19.16 C 3.4 19.55 1.9 18.93 1.16 17.66 C 0.43 16.39 0.64 14.78 1.68 13.74 C 2.72 12.71 4.33 12.5 5.6 13.24 L 5.6 4.8 C 5.57 4.56 5.66 4.32 5.85 4.17 C 6.03 4.01 6.28 3.96 6.51 4.02 L 19.01 0.02 C 19.06 0.01 19.11 0 19.17 0.01 C 19.18 0.01 19.19 0 19.2 0 C 19.21 0 19.21 0 19.22 0 C 19.53 0 19.81 0.19 19.93 0.48 C 19.93 0.48 19.94 0.49 19.94 0.49 C 19.94 0.51 19.96 0.53 19.97 0.55 C 19.98 0.59 19.97 0.63 19.98 0.68 C 19.99 0.72 20 0.76 20 0.8 L 20 16 C 20 17.77 18.57 19.2 16.8 19.2 L 16.8 19.2 Z M 16.8 14.4 C 15.92 14.4 15.2 15.12 15.2 16 C 15.2 16.88 15.92 17.6 16.8 17.6 C 17.68 17.6 18.4 16.88 18.4 16 C 18.4 15.12 17.68 14.4 16.8 14.4 L 16.8 14.4 Z M 4 14.4 C 3.12 14.4 2.4 15.12 2.4 16 C 2.4 16.88 3.12 17.6 4 17.6 C 4.88 17.6 5.6 16.88 5.6 16 C 5.6 15.12 4.88 14.4 4 14.4 L 4 14.4 Z M 4 14.4" />
</svg>