<?xml version="1.0" encoding="utf-8"?>
<!-- Generator: Adobe Illustrator 16.0.0, SVG Export Plug-In . SVG Version: 6.00 Build 0)  -->
<!DOCTYPE svg PUBLIC "-//W3C//DTD SVG 1.1//EN" "http://www.w3.org/Graphics/SVG/1.1/DTD/svg11.dtd">
<svg version="1.1" id="Layer_1" xmlns="http://www.w3.org/2000/svg" xmlns:xlink="http://www.w3.org/1999/xlink" x="0px" y="0px"
	 width="50.029px" height="41px" viewBox="0.485 0 50.029 41" enable-background="new 0.485 0 50.029 41" xml:space="preserve">
<path opacity="0.32" enable-background="new    " d="M47.714,0c1.54,0,2.801,1.27,2.801,2.81v35.379
	c0,1.561-1.261,2.811-2.801,2.811H3.305H3.184H2.965v-0.02h-0.07c-0.021,0-0.04,0-0.06-0.02c-0.021,0-0.041,0-0.061-0.021
	c-1.28-0.238-2.289-1.369-2.289-2.75V12.781c0-1.53,1.279-2.811,2.82-2.811h2.32v-7.16C5.625,1.271,6.904,0,8.434,0H47.714z
	 M47.714,1.121H8.445c-0.941,0-1.711,0.74-1.711,1.69v7.63c0.021,0.04,0.021,0.06,0,0.1v26.12c0,1.529-0.42,2.551-0.99,3.24h41.97
	c0.95,0,1.701-0.76,1.701-1.711V2.811C49.405,1.86,48.664,1.121,47.714,1.121L47.714,1.121z M36.195,4.831
	c0.279,0.04,0.49,0.29,0.49,0.57v9.36c0,0.3-0.251,0.55-0.551,0.55H20.004c-0.28,0-0.549-0.25-0.549-0.55V5.4
	c0-0.3,0.279-0.57,0.549-0.57h16.131H36.195L36.195,4.831z M35.584,5.951H20.573v8.27h15.011V5.951z M5.625,11.09h-2.32
	c-0.941,0-1.71,0.75-1.71,1.69v25.409c0,0.951,0.769,1.711,1.71,1.711h0.238c0.231-0.02,0.491-0.07,0.782-0.211
	c0.628-0.318,1.31-0.979,1.31-3.029V11.09H5.625z M36.096,20.15c0.298,0.01,0.528,0.31,0.509,0.6c-0.039,0.3-0.331,0.541-0.61,0.509
	h-15.85c-0.3,0-0.549-0.269-0.549-0.559c0-0.3,0.249-0.55,0.549-0.55h15.85h0.039H36.096L36.096,20.15z M44.993,24.99
	c0.282,0.041,0.512,0.34,0.501,0.609c-0.039,0.301-0.34,0.531-0.64,0.5h-13.6c-0.302,0.01-0.579-0.26-0.579-0.559
	c0-0.291,0.277-0.551,0.579-0.551h13.61h0.08H44.993L44.993,24.99z M25.005,24.99c0.298,0.041,0.539,0.34,0.5,0.619
	c-0.021,0.291-0.322,0.531-0.61,0.49H11.284c-0.299,0.021-0.58-0.26-0.58-0.549c0-0.301,0.281-0.551,0.58-0.551h13.601h0.079
	C24.984,24.99,24.984,24.99,25.005,24.99L25.005,24.99z M44.993,29.85c0.282,0.041,0.512,0.33,0.501,0.611
	c-0.039,0.289-0.34,0.529-0.64,0.49h-13.6c-0.302,0.02-0.579-0.262-0.579-0.551c0-0.301,0.277-0.551,0.579-0.551h13.61h0.08H44.993
	L44.993,29.85z M25.005,29.85c0.298,0.041,0.539,0.33,0.5,0.611c-0.021,0.289-0.322,0.529-0.61,0.49H11.284
	c-0.299,0.02-0.58-0.262-0.58-0.551c0-0.301,0.281-0.551,0.58-0.551h13.601h0.079H25.005L25.005,29.85z M44.993,34.701
	c0.282,0.039,0.512,0.309,0.501,0.6c-0.039,0.299-0.34,0.539-0.64,0.5h-13.6c-0.302,0.02-0.579-0.26-0.579-0.551
	c0-0.299,0.277-0.549,0.579-0.549h13.61h0.08H44.993L44.993,34.701z M25.005,34.701c0.298,0.039,0.539,0.309,0.5,0.6
	c-0.021,0.299-0.322,0.539-0.61,0.5H11.284c-0.299,0.02-0.58-0.26-0.58-0.551c0-0.299,0.281-0.549,0.58-0.549h13.601h0.079H25.005
	L25.005,34.701z"/>
</svg>
