<?xml version="1.0" encoding="utf-8"?>
<!-- Generator: Avocode 2.5.4 - http://avocode.com -->
<svg height="20" width="20" xmlns:xlink="http://www.w3.org/1999/xlink" xmlns="http://www.w3.org/2000/svg" viewBox="0 0 20 20">
    <path fill="#000000" fill-rule="evenodd" d="M 19.38 11.25 L 15.63 11.25 C 15.28 11.25 15 11.53 15 11.88 C 15 12.22 15.28 12.5 15.63 12.5 L 19.38 12.5 C 19.72 12.5 20 12.22 20 11.88 C 20 11.53 19.72 11.25 19.38 11.25 L 19.38 11.25 Z M 19.38 7.5 L 14.38 7.5 C 14.03 7.5 13.75 7.78 13.75 8.13 C 13.75 8.47 14.03 8.75 14.38 8.75 L 19.38 8.75 C 19.72 8.75 20 8.47 20 8.13 C 20 7.78 19.72 7.5 19.38 7.5 L 19.38 7.5 Z M 19.38 15 L 15.63 15 C 15.28 15 15 15.28 15 15.63 C 15 15.97 15.28 16.25 15.63 16.25 L 19.38 16.25 C 19.72 16.25 20 15.97 20 15.63 C 20 15.28 19.72 15 19.38 15 L 19.38 15 Z M 14.38 5 L 19.38 5 C 19.72 5 20 4.72 20 4.38 C 20 4.03 19.72 3.75 19.38 3.75 L 14.38 3.75 C 14.03 3.75 13.75 4.03 13.75 4.38 C 13.75 4.72 14.03 5 14.38 5 L 14.38 5 Z M 12.5 15.94 C 12.5 17.49 11.13 18.75 9.43 18.75 L 4.32 18.75 C 2.62 18.75 1.25 17.49 1.25 15.94 L 1.25 14.06 C 1.25 12.73 2.26 11.63 3.61 11.33 C 4.53 12.07 5.66 12.5 6.88 12.5 C 8.09 12.5 9.22 12.07 10.14 11.33 C 11.49 11.63 12.5 12.73 12.5 14.06 L 12.5 15.94 L 12.5 15.94 Z M 2.5 6.25 C 2.5 3.49 4.46 1.25 6.88 1.25 C 9.29 1.25 11.25 3.49 11.25 6.25 C 11.25 9.01 9.29 11.25 6.88 11.25 C 4.46 11.25 2.5 9.01 2.5 6.25 L 2.5 6.25 Z M 11.22 10.22 C 12.02 9.14 12.5 7.76 12.5 6.25 C 12.5 2.8 9.98 0 6.88 0 C 3.77 0 1.25 2.8 1.25 6.25 C 1.25 7.76 1.73 9.14 2.53 10.22 C 1.06 10.73 0 12.11 0 13.75 L 0 16.25 C 0 18.32 1.68 20 3.75 20 L 10 20 C 12.07 20 13.75 18.32 13.75 16.25 L 13.75 13.75 C 13.75 12.11 12.69 10.73 11.22 10.22 L 11.22 10.22 Z M 11.22 10.22" />
</svg>