<svg id="Layer_1" data-name="Layer 1" xmlns="http://www.w3.org/2000/svg" width="33" height="35.36" viewBox="0 0 33 35.36">
  <defs>
    <style>
      .cls-1 {
        fill: #c9c9c9;
      }
    </style>
  </defs>
  <title>pdf2</title>
  <g>
    <path class="cls-1" d="M31,14H29.55V10.46l0-2.32a1.18,1.18,0,0,0-.34-0.93L22.31,0.34a1.21,1.21,0,0,0-1-.34h-15A2.32,2.32,0,0,0,4,2.33V14H0V30H4v3a2.32,2.32,0,0,0,2.32,2.32h20.9A2.32,2.32,0,0,0,29.55,33V30H33V14H31ZM21.42,2.88l5.25,5.25H21.42V2.88ZM6.32,2.33H19.1v7a1.16,1.16,0,0,0,1.16,1.16h7V14H6.32V2.33ZM27.23,33H6.32V30h20.9v3ZM31,28H2V16H31V28Z" transform="translate(0 0)"/>
    <polygon class="cls-1" points="22.04 22.92 24.98 22.92 24.98 22.13 22.04 22.13 22.04 19.63 25.48 19.63 25.48 18.84 21.06 18.84 21.06 26 22.04 26 22.04 22.92"/>
    <path class="cls-1" d="M17.65,25.74A3.21,3.21,0,0,0,18.77,25a3.25,3.25,0,0,0,.72-1.13,4.34,4.34,0,0,0,0-2.93,3.27,3.27,0,0,0-.72-1.13,3.19,3.19,0,0,0-1.11-.73,3.88,3.88,0,0,0-1.44-.26H13.53V26h2.68A3.88,3.88,0,0,0,17.65,25.74Zm-3.15-6.12h1.71a2.77,2.77,0,0,1,1,.19,2.17,2.17,0,0,1,.8.55,2.49,2.49,0,0,1,.51.88,4,4,0,0,1,0,2.36,2.46,2.46,0,0,1-.51.88,2.19,2.19,0,0,1-.8.55,2.77,2.77,0,0,1-1,.19H14.51v-5.6Z" transform="translate(0 0)"/>
    <path class="cls-1" d="M8.49,23.32H9.64a3.6,3.6,0,0,0,1.14-.17,2.38,2.38,0,0,0,.84-0.47A2,2,0,0,0,12.13,22a2.33,2.33,0,0,0,.17-0.92,2.46,2.46,0,0,0-.16-0.91,1.8,1.8,0,0,0-.49-0.7A2.27,2.27,0,0,0,10.82,19a4,4,0,0,0-1.18-.16H7.52V26h1V23.32Zm0-3.72H9.64a1.84,1.84,0,0,1,1.28.39,1.37,1.37,0,0,1,.42,1.07,1.61,1.61,0,0,1-.11.61,1.28,1.28,0,0,1-.32.47,1.5,1.5,0,0,1-.53.31,2.23,2.23,0,0,1-.73.11H8.49V19.6Z" transform="translate(0 0)"/>
  </g>
</svg>
