<?xml version="1.0" encoding="utf-8"?>
<!-- Generator: Avocode 2.5.4 - http://avocode.com -->
<svg height="22" width="23" xmlns:xlink="http://www.w3.org/1999/xlink" xmlns="http://www.w3.org/2000/svg" viewBox="0 0 23 22">
    <path fill="#000000" fill-rule="evenodd" d="M 20.69 9.85 C 20.69 10.21 20.36 10.75 20 11.1 L 12.94 18.14 L 3.87 9.08 L 10.92 2.05 C 11.25 1.73 11.76 1.31 12.13 1.31 L 20.03 1.31 C 20.4 1.31 20.69 1.61 20.69 1.97 L 20.69 9.85 L 20.69 9.85 Z M 10.92 20.15 C 10.37 20.71 9.46 20.71 8.91 20.15 L 1.84 13.11 C 1.29 12.56 1.29 11.66 1.84 11.1 L 2.86 10.08 L 11.92 19.16 L 10.92 20.15 L 10.92 20.15 Z M 20.69 0 L 11.47 0 C 10.74 0 10.61 0.32 9.91 1.04 L 0.84 10.1 C -0.28 11.21 -0.28 13.01 0.84 14.12 L 7.9 21.16 C 9.01 22.27 10.82 22.27 11.93 21.16 L 21.01 12.11 C 21.6 11.52 22.01 11.23 22.01 10.51 L 22.01 1.31 C 22.01 0.59 21.42 0 20.69 0 L 20.69 0 Z M 16.47 7.58 C 15.91 8.14 15.01 8.14 14.45 7.58 C 13.9 7.03 13.9 6.12 14.45 5.57 C 15.01 5.01 15.91 5.01 16.47 5.57 C 17.03 6.12 17.03 7.03 16.47 7.58 L 16.47 7.58 Z M 13.45 4.56 C 12.33 5.67 12.33 7.47 13.45 8.59 C 14.56 9.7 16.37 9.7 17.48 8.59 C 18.59 7.47 18.59 5.67 17.48 4.56 C 16.37 3.45 14.56 3.45 13.45 4.56 L 13.45 4.56 Z M 13.45 4.56" />
</svg>