<?xml version="1.0" encoding="utf-8"?>
<!-- Generator: Adobe Illustrator 16.0.0, SVG Export Plug-In . SVG Version: 6.00 Build 0)  -->
<!DOCTYPE svg PUBLIC "-//W3C//DTD SVG 1.1//EN" "http://www.w3.org/Graphics/SVG/1.1/DTD/svg11.dtd">
<svg version="1.1" id="Layer_1" xmlns="http://www.w3.org/2000/svg" xmlns:xlink="http://www.w3.org/1999/xlink" x="0px" y="0px"
	 width="36px" height="36px" viewBox="-0.5 -0.5 36 36" enable-background="new -0.5 -0.5 36 36" xml:space="preserve">
<g>
	<g>
		<path fill="#1D1D1F" d="M17.5,35.5c-9.925,0-18-8.075-18-18c0-9.925,8.075-18,18-18c9.925,0,18,8.075,18,18
			C35.5,27.425,27.425,35.5,17.5,35.5z M17.5,0.5c-9.374,0-17,7.626-17,17s7.626,17,17,17s17-7.626,17-17S26.874,0.5,17.5,0.5z"/>
	</g>
	<path d="M22.029,11.73L14.08,22.01l-1.03,0.471l0.24-1.08l8-10.25l-0.81-0.63l-8,10.24L12,23.82l2.84-1.211l8.01-10.239
		L22.029,11.73z M22.859,9.11C22.46,8.79,21.46,9.28,21.46,9.28l-0.62,0.79l2.37,1.84l0.61-0.79c0,0,0.229-1.08-0.17-1.4
		L22.859,9.11z"/>
</g>
</svg>
