<svg id="SvgjsSvg1000" xmlns="http://www.w3.org/2000/svg" version="1.1" xmlns:xlink="http://www.w3.org/1999/xlink" xmlns:svgjs="http://svgjs.com/svgjs" width="39" height="39" viewBox="0 0 39 39"><title>picture</title><desc>Created with Avocode.</desc><defs id="SvgjsDefs1001"></defs><path id="SvgjsPath1007" d="M348.25 672C346.46 672 345 670.54 345 668.75L345 636.25C345 634.46 346.46 633 348.25 633L380.75 633C382.54 633 384 634.46 384 636.25L384 668.75C384 670.54 382.54 672 380.75 672ZM348.25 636.25L348.25 661.57L356.83 653.0200000000001C357.47999999999996 652.3800000000001 358.52 652.3800000000001 359.16999999999996 653.0200000000001L366.16999999999996 660.0100000000001L380.06999999999994 651.1100000000001C380.2799999999999 650.9900000000001 380.50999999999993 650.9200000000001 380.74999999999994 650.9100000000001L380.74999999999994 636.2500000000001ZM367.31 663.36C367.29 663.37 367.29 663.39 367.28000000000003 663.4C367.03000000000003 663.64 366.71000000000004 663.79 366.37 663.8299999999999C365.84000000000003 663.9699999999999 365.29 663.79 364.94 663.3699999999999L358 656.4699999999999L349.42 665.0299999999999C349.11 665.3399999999998 348.69 665.5099999999999 348.25 665.5099999999999L348.25 668.7499999999999L380.75 668.7499999999999L380.75 654.7599999999999ZM356.38 647.63C358.17 647.63 359.63 646.17 359.63 644.38C359.63 642.58 358.17 641.13 356.38 641.13C354.58 641.13 353.13 642.58 353.13 644.38C353.13 646.17 354.58 647.63 356.38 647.63Z " fill="#101010" fill-opacity="1" transform="matrix(1,0,0,1,-345,-633)"></path></svg>