<?xml version="1.0" encoding="utf-8"?>
<!-- Generator: Adobe Illustrator 16.0.0, SVG Export Plug-In . SVG Version: 6.00 Build 0)  -->
<!DOCTYPE svg PUBLIC "-//W3C//DTD SVG 1.1//EN" "http://www.w3.org/Graphics/SVG/1.1/DTD/svg11.dtd">
<svg version="1.1" id="Layer_1" xmlns="http://www.w3.org/2000/svg" xmlns:xlink="http://www.w3.org/1999/xlink" x="0px" y="0px"
	 width="20px" height="24px" viewBox="0 0 20 24" enable-background="new 0 0 20 24" xml:space="preserve">
<g>
	<path d="M10,22.295l-0.635-0.522C8.509,21.068,1,14.755,1,10c0-4.962,4.038-9,9-9c4.963,0,9,4.038,9,9
		c0,4.755-7.509,11.068-8.365,11.772L10,22.295z M10,3c-3.86,0-7,3.14-7,7c0,2.948,4.582,7.569,7,9.687c2.418-2.117,7-6.738,7-9.687
		C17,6.14,13.859,3,10,3z M10,14.62c-2.547,0-4.62-2.072-4.62-4.62c0-2.547,2.073-4.62,4.62-4.62c2.548,0,4.62,2.073,4.62,4.62
		C14.62,12.548,12.548,14.62,10,14.62z M10,7.38c-1.445,0-2.62,1.175-2.62,2.62s1.175,2.62,2.62,2.62c1.444,0,2.62-1.175,2.62-2.62
		S11.444,7.38,10,7.38z"/>
</g>
</svg>
