<?xml version="1.0" encoding="utf-8"?>
<!-- Generator: Adobe Illustrator 16.0.0, SVG Export Plug-In . SVG Version: 6.00 Build 0)  -->
<!DOCTYPE svg PUBLIC "-//W3C//DTD SVG 1.1//EN" "http://www.w3.org/Graphics/SVG/1.1/DTD/svg11.dtd">
<svg version="1.1" id="Layer_1" xmlns="http://www.w3.org/2000/svg" xmlns:xlink="http://www.w3.org/1999/xlink" x="0px" y="0px"
	 width="25px" height="25px" viewBox="0 0 25 25" enable-background="new 0 0 25 25" xml:space="preserve">
<g>
	<path fill="#D8D8D8" d="M12.5,25.5c-7.168,0-13-5.832-13-13c0-7.168,5.832-13,13-13c7.168,0,13,5.832,13,13
		C25.5,19.668,19.668,25.5,12.5,25.5z M12.5,0.5c-6.617,0-12,5.383-12,12c0,6.617,5.383,12,12,12c6.617,0,12-5.383,12-12
		C24.5,5.883,19.117,0.5,12.5,0.5z"/>
</g>
<path opacity="0.12" enable-background="new    " d="M12.5,10.44c-0.17,0-0.32,0.03-0.47,0.08c0.27,0.13,0.47,0.4,0.47,0.73
	c0,0.45-0.36,0.81-0.81,0.81c-0.33,0-0.61-0.19-0.74-0.47c-0.04,0.15-0.07,0.31-0.07,0.47c0,0.9,0.72,1.629,1.62,1.629
	c0.9,0,1.63-0.729,1.63-1.629C14.13,11.17,13.4,10.44,12.5,10.44L12.5,10.44z M12.5,8C8.44,8,6,12.06,6,12.06s2.44,4.07,6.5,4.07
	c4.061,0,6.5-4.07,6.5-4.07S16.561,8,12.5,8L12.5,8z M12.5,14.5c-1.35,0-2.44-1.09-2.44-2.44c0-1.34,1.09-2.43,2.44-2.43
	c1.35,0,2.439,1.09,2.439,2.43C14.939,13.41,13.85,14.5,12.5,14.5L12.5,14.5z"/>
</svg>
