<?xml version="1.0" encoding="utf-8"?>
<!-- Generator: Adobe Illustrator 16.0.0, SVG Export Plug-In . SVG Version: 6.00 Build 0)  -->
<!DOCTYPE svg PUBLIC "-//W3C//DTD SVG 1.1//EN" "http://www.w3.org/Graphics/SVG/1.1/DTD/svg11.dtd">
<svg version="1.1" id="Layer_1" xmlns="http://www.w3.org/2000/svg" xmlns:xlink="http://www.w3.org/1999/xlink" x="0px" y="0px"
	 width="17.502px" height="24.792px" viewBox="-0.002 0.209 17.502 24.792" enable-background="new -0.002 0.209 17.502 24.792"
	 xml:space="preserve">
<path opacity="0.2" enable-background="new    " d="M2.498,24.999l12.5,0.002c1.38,0,2.5-1.12,2.5-2.499L17.5,10.001
	c0.001-1.38-1.119-2.5-2.499-2.5h-1.88v1.25h1.88c0.69,0,1.249,0.56,1.249,1.25l-0.002,12.5c0,0.69-0.561,1.25-1.25,1.25
	l-12.5-0.002c-0.689-0.001-1.25-0.561-1.25-1.251L1.251,9.999c0-0.69,0.561-1.25,1.25-1.25h1.87v-1.25h-1.87
	c-1.38,0-2.5,1.119-2.5,2.499l-0.003,12.5C-0.002,23.879,1.118,24.998,2.498,24.999z M3.961,4.699l4.321-4.31
	C8.412,0.26,8.583,0.2,8.752,0.21c0.17-0.01,0.339,0.05,0.47,0.18l4.319,4.312c0.24,0.24,0.24,0.64,0,0.88
	c-0.25,0.25-0.64,0.25-0.89,0L9.382,2.31L9.379,15.8c0,0.341-0.28,0.62-0.63,0.62c-0.34,0-0.62-0.279-0.62-0.62L8.132,2.31
	l-3.281,3.27c-0.25,0.25-0.64,0.25-0.89,0C3.722,5.339,3.722,4.939,3.961,4.699z"/>
</svg>
