<?xml version="1.0" encoding="utf-8"?>
<!-- Generator: Adobe Illustrator 16.0.0, SVG Export Plug-In . SVG Version: 6.00 Build 0)  -->
<!DOCTYPE svg PUBLIC "-//W3C//DTD SVG 1.1//EN" "http://www.w3.org/Graphics/SVG/1.1/DTD/svg11.dtd">
<svg version="1.1" id="Layer_1" xmlns="http://www.w3.org/2000/svg" xmlns:xlink="http://www.w3.org/1999/xlink" x="0px" y="0px"
	 width="26px" height="26px" viewBox="-0.5 -0.5 26 26" enable-background="new -0.5 -0.5 26 26" xml:space="preserve">
<g>
	<g>
		<path fill="#D8D8D8" d="M12.5,25.5c-7.168,0-13-5.832-13-13c0-7.168,5.832-13,13-13c7.168,0,13,5.832,13,13
			C25.5,19.668,19.668,25.5,12.5,25.5z M12.5,0.5c-6.617,0-12,5.383-12,12c0,6.617,5.383,12,12,12c6.617,0,12-5.383,12-12
			C24.5,5.883,19.117,0.5,12.5,0.5z"/>
	</g>
	<g enable-background="new    ">
		<path fill="#D1D1D1" d="M12.227,15.532c-0.004-0.164-0.007-0.287-0.007-0.369c0-0.483,0.068-0.9,0.205-1.251
			c0.1-0.265,0.262-0.531,0.485-0.8c0.164-0.196,0.459-0.481,0.885-0.858c0.427-0.375,0.703-0.675,0.831-0.898
			s0.191-0.467,0.191-0.731c0-0.479-0.187-0.899-0.561-1.261C13.883,9,13.426,8.819,12.883,8.819c-0.524,0-0.961,0.164-1.313,0.492
			s-0.581,0.841-0.69,1.538l-1.265-0.15c0.114-0.935,0.452-1.649,1.015-2.146s1.307-0.745,2.232-0.745
			c0.979,0,1.761,0.267,2.345,0.8s0.875,1.178,0.875,1.935c0,0.438-0.103,0.841-0.308,1.21s-0.606,0.818-1.203,1.347
			c-0.401,0.355-0.663,0.617-0.786,0.786s-0.215,0.362-0.273,0.581s-0.094,0.574-0.103,1.066H12.227z M12.151,18v-1.401h1.401V18
			H12.151z"/>
	</g>
</g>
</svg>
