<?xml version="1.0" encoding="utf-8"?>
<!-- Generator: Avocode 2.5.4 - http://avocode.com -->
<svg height="24" width="32" xmlns:xlink="http://www.w3.org/1999/xlink" xmlns="http://www.w3.org/2000/svg" viewBox="0 0 32 24">
    <path fill="#000000" fill-rule="evenodd" d="M 31.54 12.07 L 27.75 14.64 C 27.72 14.67 27.7 14.71 27.67 14.74 C 27.65 14.82 27.64 14.91 27.62 15 L 25.55 15 C 25.62 14.76 25.68 14.51 25.72 14.26 L 22.48 12.07 C 22.01 11.72 21.87 11.08 22.13 10.55 C 22.23 10.31 22.43 10.12 22.68 10.04 C 22.94 9.96 23.21 10 23.43 10.15 L 26 11.88 C 25.96 7.84 23.48 4.23 19.74 2.72 C 15.99 1.22 11.7 2.12 8.87 5 L 6.28 5 C 9.31 0.78 14.7 -1.01 19.65 0.56 C 24.59 2.13 27.97 6.71 28 11.9 L 30.59 10.15 C 30.81 10.01 31.09 9.97 31.34 10.05 C 31.59 10.13 31.79 10.32 31.89 10.56 C 32.15 11.08 32.01 11.72 31.54 12.07 L 31.54 12.07 Z M 9.34 11.96 C 9.09 12.04 8.81 12 8.59 11.85 L 6.18 10.23 C 6.07 10.81 6.02 11.41 6.01 12 C 6.01 16.06 8.47 19.72 12.23 21.26 C 15.99 22.79 20.31 21.9 23.15 19 L 25.74 19 C 22.7 23.23 17.28 25.02 12.32 23.42 C 7.37 21.83 4.01 17.21 4.01 12 C 4.02 11.32 4.08 10.64 4.21 9.97 L 1.43 11.85 C 1.21 12 0.94 12.04 0.69 11.96 C 0.43 11.88 0.23 11.69 0.13 11.45 C -0.13 10.92 0.01 10.28 0.48 9.93 L 4.27 7.37 C 4.43 7.16 4.66 7.04 4.92 7.02 C 4.98 7.01 5.04 7.01 5.1 7.02 C 5.36 7.04 5.59 7.16 5.75 7.37 L 9.54 9.93 C 10.01 10.28 10.16 10.92 9.89 11.45 C 9.79 11.69 9.59 11.88 9.34 11.96 Z M 9.34 11.96" />
</svg>