<?xml version="1.0" encoding="utf-8"?>
<!-- Generator: Adobe Illustrator 16.0.0, SVG Export Plug-In . SVG Version: 6.00 Build 0)  -->
<!DOCTYPE svg PUBLIC "-//W3C//DTD SVG 1.1//EN" "http://www.w3.org/Graphics/SVG/1.1/DTD/svg11.dtd">
<svg version="1.1" id="Layer_1" xmlns="http://www.w3.org/2000/svg" xmlns:xlink="http://www.w3.org/1999/xlink" x="0px" y="0px"
	 width="26px" height="26px" viewBox="-0.5 -0.5 26 26" enable-background="new -0.5 -0.5 26 26" xml:space="preserve">
<g>
	<g>
		<path fill="#D8D8D8" d="M12.5,25.5c-7.168,0-13-5.832-13-13c0-7.168,5.832-13,13-13c7.168,0,13,5.832,13,13
			C25.5,19.668,19.668,25.5,12.5,25.5z M12.5,0.5c-6.617,0-12,5.383-12,12c0,6.617,5.383,12,12,12c6.617,0,12-5.383,12-12
			C24.5,5.883,19.117,0.5,12.5,0.5z"/>
	</g>
	<path opacity="0.2" enable-background="new    " d="M16.311,9.18c-0.24-0.24-0.641-0.24-0.891,0l-2.68,2.69l-2.65-2.65
		c-0.25-0.24-0.64-0.24-0.89,0c-0.24,0.24-0.24,0.64,0,0.89l2.65,2.64l-2.67,2.67c-0.24,0.25-0.24,0.65,0,0.9
		c0.25,0.24,0.65,0.24,0.9,0l2.66-2.67l2.65,2.649c0.25,0.24,0.639,0.24,0.889,0c0.24-0.25,0.24-0.649,0-0.89l-2.649-2.64
		l2.681-2.69C16.561,9.83,16.561,9.43,16.311,9.18L16.311,9.18z"/>
</g>
</svg>
