<?xml version="1.0" encoding="utf-8"?>
<!-- Generator: Avocode 2.5.4 - http://avocode.com -->
<svg height="20" width="20" xmlns:xlink="http://www.w3.org/1999/xlink" xmlns="http://www.w3.org/2000/svg" viewBox="0 0 20 20">
    <path fill="#000000" fill-rule="evenodd" d="M 4.8 17 L 1.2 17 C 1.09 17 1 16.91 1 16.8 L 1 9.2 C 1 9.09 1.09 9 1.2 9 L 4.8 9 C 4.91 9 5 9.09 5 9.2 L 5 16.8 C 5 16.91 4.91 17 4.8 17 L 4.8 17 Z M 4.8 17" />
    <path fill="#000000" fill-rule="evenodd" d="M 10.8 17 L 7.2 17 C 7.09 17 7 16.91 7 16.79 L 7 0.21 C 7 0.1 7.09 0 7.2 0 L 10.8 0 C 10.91 0 11 0.1 11 0.21 L 11 16.79 C 11 16.91 10.91 17 10.8 17 L 10.8 17 Z M 10.8 17" />
    <path fill="#000000" fill-rule="evenodd" d="M 17.8 17 L 14.2 17 C 14.09 17 14 16.91 14 16.8 L 14 5.2 C 14 5.09 14.09 5 14.2 5 L 17.8 5 C 17.91 5 18 5.09 18 5.2 L 18 16.8 C 18 16.91 17.91 17 17.8 17 L 17.8 17 Z M 17.8 17" />
    <path fill="#000000" fill-rule="evenodd" d="M 0 19.72 L 0 18.58 C 0 18.48 0.09 18.39 0.19 18.39 L 18.87 18.39 C 18.97 18.39 19.06 18.48 19.06 18.58 L 19.06 19.72 C 19.06 19.83 18.97 19.92 18.87 19.92 L 0.19 19.92 C 0.09 19.92 0 19.83 0 19.72 L 0 19.72 Z M 0 19.72" />
</svg>