<?xml version="1.0" encoding="UTF-8" standalone="no"?>
<svg width="20px" height="20px" viewBox="0 0 20 20" version="1.1" xmlns="http://www.w3.org/2000/svg" xmlns:xlink="http://www.w3.org/1999/xlink">
    <!-- Generator: Sketch 3.6.1 (26313) - http://www.bohemiancoding.com/sketch -->
    <title>Search</title>
    <desc>Created with Sketch.</desc>
    <defs></defs>
    <g id="Nav" stroke="none" stroke-width="1" fill="none" fill-rule="evenodd" opacity="0.352028918">
        <g id="Top-bars" transform="translate(-50.000000, -119.000000)" fill="#000000">
            <g id="Evo-Top-bar" transform="translate(0.000000, 91.000000)">
                <g id="Search" transform="translate(50.000000, 28.000000)">
                    <path d="M19.7697384,19.4009454 L12.7139982,12.3447372 C13.9369121,11.0319652 14.6918145,9.27785838 14.6918145,7.34684326 C14.6918145,3.29573642 11.3965461,0 7.34543923,0 C3.29480039,0 0,3.29573642 0,7.34684326 C0,11.3970141 3.29480039,14.6932185 7.34543923,14.6932185 C9.21280479,14.6932185 10.9140263,13.9869893 12.211822,12.8352132 L19.2736463,19.8975055 C19.3419759,19.9658352 19.4318341,20 19.5221603,20 C19.6115505,20 19.7009407,19.9658352 19.7697384,19.8975055 C19.9068657,19.7603782 19.9068657,19.5380727 19.7697384,19.4009454 L19.7697384,19.4009454 Z M7.34543923,13.9912014 C3.68184584,13.9912014 0.702017129,11.0099686 0.702017129,7.34684326 C0.702017129,3.68278186 3.68184584,0.702017129 7.34543923,0.702017129 C11.0090326,0.702017129 13.9897974,3.68278186 13.9897974,7.34684326 C13.9897974,11.0099686 11.0090326,13.9912014 7.34543923,13.9912014 L7.34543923,13.9912014 Z" transform="translate(9.936292, 10.000000) scale(-1, 1) translate(-9.936292, -10.000000) "></path>
                </g>
            </g>
        </g>
    </g>
</svg>