<?xml version="1.0" encoding="utf-8"?>
<!-- Generator: Avocode 2.5.4 - http://avocode.com -->
<svg height="20" width="20" xmlns:xlink="http://www.w3.org/1999/xlink" xmlns="http://www.w3.org/2000/svg" viewBox="0 0 20 20">
    <path fill="#000000" fill-rule="evenodd" d="M 16.01 6.4 C 15.01 6.4 14.06 5.93 13.46 5.12 L 6.39 9.35 C 6.4 9.44 6.41 9.51 6.41 9.6 C 6.41 9.71 6.39 9.8 6.38 9.9 L 13.42 14.14 C 14.34 12.87 16.05 12.46 17.45 13.18 C 18.85 13.89 19.52 15.52 19.03 17.01 C 18.55 18.5 17.04 19.41 15.49 19.16 C 13.94 18.91 12.81 17.57 12.81 16 C 12.81 15.88 12.84 15.77 12.85 15.65 L 5.79 11.48 C 4.98 12.6 3.55 13.07 2.23 12.65 C 0.92 12.23 0.02 11.02 0 9.64 C -0.02 8.26 0.85 7.03 2.16 6.58 C 3.46 6.12 4.9 6.56 5.74 7.66 L 12.85 3.51 C 12.84 3.4 12.81 3.3 12.81 3.2 C 12.81 1.91 13.59 0.74 14.79 0.24 C 15.99 -0.25 17.36 0.02 18.28 0.94 C 19.19 1.85 19.47 3.23 18.97 4.42 C 18.48 5.62 17.31 6.4 16.01 6.4 L 16.01 6.4 Z M 16.01 17.6 C 16.9 17.6 17.61 16.88 17.61 16 C 17.61 15.12 16.9 14.4 16.01 14.4 C 15.13 14.4 14.41 15.12 14.41 16 C 14.41 16.88 15.13 17.6 16.01 17.6 L 16.01 17.6 Z M 3.21 8 C 2.33 8 1.61 8.72 1.61 9.6 C 1.61 10.48 2.33 11.2 3.21 11.2 C 4.1 11.2 4.81 10.48 4.81 9.6 C 4.81 8.72 4.1 8 3.21 8 L 3.21 8 Z M 16.01 1.6 C 15.13 1.6 14.41 2.32 14.41 3.2 C 14.41 4.08 15.13 4.8 16.01 4.8 C 16.9 4.8 17.61 4.08 17.61 3.2 C 17.61 2.32 16.9 1.6 16.01 1.6 L 16.01 1.6 Z M 16.01 1.6" />
</svg>