<?xml version="1.0" encoding="utf-8"?>
<!-- Generator: Adobe Illustrator 16.0.0, SVG Export Plug-In . SVG Version: 6.00 Build 0)  -->
<!DOCTYPE svg PUBLIC "-//W3C//DTD SVG 1.1//EN" "http://www.w3.org/Graphics/SVG/1.1/DTD/svg11.dtd">
<svg version="1.1" id="Layer_1" xmlns="http://www.w3.org/2000/svg" xmlns:xlink="http://www.w3.org/1999/xlink" x="0px" y="0px"
	 width="34px" height="34px" viewBox="0 0 34 34" enable-background="new 0 0 34 34" xml:space="preserve">
<path d="M-0.008,17.001c0-9.388,7.61-16.999,17-17c9.391,0.001,17.002,7.611,17,17.001c0,9.391-7.609,17-16.999,16.999
	C7.603,33.992,0.003,26.393-0.008,17.001L-0.008,17.001z M31.172,17.002c-0.01-7.83-6.361-14.17-14.179-14.172
	C9.164,2.829,2.813,9.183,2.813,17.011c0.009,7.829,6.35,14.171,14.18,14.17C24.822,31.172,31.163,24.831,31.172,17.002
	L31.172,17.002z M13.813,15.041c1.422-1.409,10.261-5.119,10.261-5.119s-3.711,8.838-5.13,10.25c-1.42,1.381-3.69,1.369-5.09-0.03
	c-1.4-1.408-1.422-3.67-0.041-5.089L13.813,15.041z M17.904,18.021c0.748-1.23,1.389-2.519,1.918-3.85
	c-1.33,0.53-2.62,1.169-3.839,1.92c-0.37,0.342-0.52,0.851-0.401,1.34c0.121,0.48,0.501,0.86,0.981,0.981
	C17.053,18.541,17.562,18.393,17.904,18.021L17.904,18.021z"/>
</svg>
