<?xml version="1.0" encoding="utf-8"?>
<!-- Generator: Avocode 2.5.4 - http://avocode.com -->
<svg height="20" width="20" xmlns:xlink="http://www.w3.org/1999/xlink" xmlns="http://www.w3.org/2000/svg" viewBox="0 0 20 20">
    <path fill="#000000" fill-rule="evenodd" d="M 19.13 7.16 C 18.96 6.67 18.54 6.31 18.02 6.22 L 13.02 5.46 L 10.86 0.8 C 10.63 0.31 10.14 0 9.6 0 C 9.06 0 8.57 0.31 8.34 0.8 L 6.18 5.46 L 1.18 6.22 C 0.66 6.3 0.24 6.67 0.07 7.16 C -0.09 7.65 0.03 8.2 0.39 8.57 L 4.06 12.35 L 3.21 17.58 C 3.12 18.11 3.34 18.64 3.77 18.94 C 4.21 19.25 4.78 19.28 5.25 19.03 L 9.6 16.6 L 13.95 19.03 C 14.16 19.14 14.39 19.2 14.62 19.2 C 15.03 19.2 15.42 19.02 15.68 18.71 C 15.95 18.39 16.06 17.98 15.99 17.58 L 15.14 12.35 L 18.81 8.57 C 19.17 8.2 19.29 7.65 19.13 7.16 L 19.13 7.16 Z M 14.03 11.33 C 13.73 11.64 13.59 12.07 13.66 12.5 L 14.49 17.61 L 10.26 15.25 C 9.85 15.02 9.35 15.02 8.94 15.25 L 4.71 17.61 L 5.54 12.5 C 5.61 12.07 5.47 11.64 5.17 11.33 L 1.61 7.65 L 6.47 6.9 C 6.92 6.83 7.3 6.54 7.49 6.14 L 9.6 1.6 L 11.71 6.14 C 11.9 6.55 12.28 6.83 12.73 6.9 L 17.59 7.65 L 14.03 11.33 Z M 14.03 11.33" />
</svg>