<?xml version="1.0" encoding="utf-8"?>
<!-- Generator: Adobe Illustrator 16.0.0, SVG Export Plug-In . SVG Version: 6.00 Build 0)  -->
<!DOCTYPE svg PUBLIC "-//W3C//DTD SVG 1.1//EN" "http://www.w3.org/Graphics/SVG/1.1/DTD/svg11.dtd">
<svg version="1.1" id="Layer_1" xmlns="http://www.w3.org/2000/svg" xmlns:xlink="http://www.w3.org/1999/xlink" x="0px" y="0px"
	 width="72.01px" height="72px" viewBox="-1.005 -1 72.01 72" enable-background="new -1.005 -1 72.01 72" xml:space="preserve">
<g opacity="0.2" enable-background="new    ">
	<path d="M53.318,71h-0.01c-1.018-0.012-2.026-0.275-2.918-0.764L35,61.685l-15.384,8.549c-1.99,1.112-4.567,0.975-6.434-0.347
		c-1.92-1.366-2.865-3.651-2.467-5.967l3.008-18.574L0.713,31.947c-1.587-1.634-2.124-3.996-1.402-6.163
		c0.722-2.165,2.569-3.732,4.821-4.091l17.707-2.71l7.674-16.484C30.504,0.373,32.658-1,35-1s4.495,1.373,5.486,3.497l7.675,16.486
		l17.7,2.719c2.263,0.363,4.109,1.927,4.828,4.083c0.722,2.167,0.185,4.528-1.401,6.163L56.277,45.346l3.01,18.584
		c0.298,1.755-0.19,3.549-1.343,4.915c-1.143,1.357-2.826,2.144-4.617,2.155H53.318z M35,59.396l16.355,9.089
		c0.598,0.326,1.279,0.505,1.968,0.515c1.201-0.011,2.328-0.536,3.091-1.443c0.773-0.916,1.101-2.118,0.899-3.299l-3.171-19.584
		l13.71-14.121c1.064-1.096,1.424-2.681,0.938-4.137c-0.481-1.446-1.723-2.495-3.239-2.739L46.8,20.797L38.674,3.342
		C38.01,1.919,36.568,1,35,1c-1.568,0-3.01,0.919-3.674,2.343l-8.125,17.455L4.441,23.668c-1.507,0.241-2.748,1.294-3.233,2.748
		c-0.485,1.456-0.125,3.041,0.939,4.137l13.71,14.121l-3.17,19.576c-0.268,1.56,0.365,3.091,1.652,4.006
		c1.246,0.881,2.97,0.976,4.302,0.23L35,59.396z"/>
</g>
</svg>
