<?xml version="1.0" encoding="utf-8"?>
<!-- Generator: Adobe Illustrator 16.0.0, SVG Export Plug-In . SVG Version: 6.00 Build 0)  -->
<!DOCTYPE svg PUBLIC "-//W3C//DTD SVG 1.1//EN" "http://www.w3.org/Graphics/SVG/1.1/DTD/svg11.dtd">
<svg version="1.1" id="Layer_1" xmlns="http://www.w3.org/2000/svg" xmlns:xlink="http://www.w3.org/1999/xlink" x="0px" y="0px"
	 width="20px" height="20px" viewBox="0 0 20 20" enable-background="new 0 0 20 20" xml:space="preserve">
<title>Remove from favorites</title>
<desc>Created with Sketch.</desc>
<g id="Basics">
	<g id="Actions-Icons" transform="translate(-422.000000, -102.000000)">
		<g id="Remove-from-favorites" transform="translate(422.000000, 102.000000)">
			<path id="star" d="M19.925,7.457c-0.172-0.514-0.615-0.89-1.149-0.975l-5.209-0.798l-2.258-4.849C11.072,0.326,10.562,0,10,0
				C9.439,0,8.928,0.326,8.692,0.835L6.434,5.682L1.226,6.48C0.69,6.566,0.247,6.943,0.075,7.458
				C-0.097,7.972,0.032,8.54,0.409,8.93l3.816,3.93l-0.883,5.452c-0.094,0.548,0.135,1.101,0.588,1.422
				c0.453,0.321,1.051,0.354,1.536,0.084L10,17.296l4.533,2.521c0.215,0.117,0.455,0.18,0.7,0.182
				c0.425-0.001,0.829-0.188,1.103-0.514c0.275-0.325,0.393-0.755,0.322-1.174l-0.883-5.452l3.816-3.93
				C19.969,8.54,20.098,7.972,19.925,7.457L19.925,7.457z"/>
		</g>
	</g>
</g>
</svg>
