<?xml version="1.0" encoding="utf-8"?>
<!-- Generator: Adobe Illustrator 16.0.0, SVG Export Plug-In . SVG Version: 6.00 Build 0)  -->
<!DOCTYPE svg PUBLIC "-//W3C//DTD SVG 1.1//EN" "http://www.w3.org/Graphics/SVG/1.1/DTD/svg11.dtd">
<svg version="1.1" id="Layer_1" xmlns="http://www.w3.org/2000/svg" xmlns:xlink="http://www.w3.org/1999/xlink" x="0px" y="0px"
	 width="22px" height="24px" viewBox="0 0 22 24" enable-background="new 0 0 22 24" xml:space="preserve">
<path fill="#101010" d="M-0.045,22.957c-0.002,0.549,0.445,1,0.996,1.004l1.008-1.996l0.084-21c0.002-0.551-0.445-1.002-0.996-1.004
	C0.498-0.042,0.045,0.407,0.045,0.957L-0.045,22.957z M3.975,17.973c0.002-0.549,0.455-0.998,1.004-0.994l11,0.043
	c0.551,0.002,0.998,0.453,0.996,1.004c-0.002,0.549-0.455,0.998-1.004,0.996l-11-0.043C4.422,18.975,3.973,18.523,3.975,17.973
	L3.975,17.973z M3.99,13.973L3.99,13.973c0.002-0.549,0.455-0.998,1.004-0.994l7,0.027c0.551,0.002,0.998,0.453,0.998,1.002l0,0
	c-0.004,0.551-0.455,1-1.006,0.998l-6.998-0.027C4.438,14.975,3.988,14.523,3.99,13.973L3.99,13.973z M4.008,9.973
	c0-0.55,0.453-0.998,1.004-0.996l16,0.064c0.549,0.002,0.998,0.454,0.994,1.004c-0.002,0.551-0.453,0.998-1.004,0.996L5.004,10.977
	C4.453,10.975,4.004,10.521,4.008,9.973L4.008,9.973z M4.023,5.973c0.002-0.55,0.455-0.998,1.004-0.996l10,0.04
	c0.549,0.003,0.998,0.454,0.996,1.004c-0.002,0.551-0.455,0.999-1.004,0.996l-10-0.04C4.469,6.975,4.021,6.522,4.023,5.973
	L4.023,5.973z"/>
</svg>
