<?xml version="1.0" encoding="utf-8"?>
<!-- Generator: Avocode 2.5.4 - http://avocode.com -->
<svg height="20" width="20" xmlns:xlink="http://www.w3.org/1999/xlink" xmlns="http://www.w3.org/2000/svg" viewBox="0 0 20 20">
    <path fill="#000000" fill-rule="evenodd" d="M 19.17 20 L 0.83 20 C 0.37 20 0 19.63 0 19.17 L 0 0.83 C 0 0.37 0.37 0 0.83 0 C 1.29 0 1.67 0.37 1.67 0.83 L 1.67 18.33 L 19.17 18.33 C 19.63 18.33 20 18.71 20 19.17 C 20 19.63 19.63 20 19.17 20 L 19.17 20 Z M 15 16.67 C 14.54 16.67 14.17 16.29 14.17 15.83 L 14.17 6.67 C 14.17 6.21 14.54 5.83 15 5.83 C 15.46 5.83 15.83 6.21 15.83 6.67 L 15.83 15.83 C 15.83 16.29 15.46 16.67 15 16.67 L 15 16.67 Z M 11.67 16.67 L 11.67 16.67 C 11.21 16.67 10.83 16.29 10.83 15.83 L 10.83 10 C 10.83 9.54 11.21 9.17 11.67 9.17 L 11.67 9.17 C 12.13 9.17 12.5 9.54 12.5 10 L 12.5 15.83 C 12.5 16.29 12.13 16.67 11.67 16.67 L 11.67 16.67 Z M 8.33 16.67 C 7.87 16.67 7.5 16.29 7.5 15.83 L 7.5 2.5 C 7.5 2.04 7.87 1.67 8.33 1.67 C 8.79 1.67 9.17 2.04 9.17 2.5 L 9.17 15.83 C 9.17 16.29 8.79 16.67 8.33 16.67 L 8.33 16.67 Z M 5 16.67 C 4.54 16.67 4.17 16.29 4.17 15.83 L 4.17 7.5 C 4.17 7.04 4.54 6.67 5 6.67 C 5.46 6.67 5.83 7.04 5.83 7.5 L 5.83 15.83 C 5.83 16.29 5.46 16.67 5 16.67 L 5 16.67 Z M 5 16.67" />
</svg>