<?xml version="1.0" encoding="utf-8"?>
<!-- Generator: Avocode 2.5.4 - http://avocode.com -->
<svg height="20" width="20" xmlns:xlink="http://www.w3.org/1999/xlink" xmlns="http://www.w3.org/2000/svg" viewBox="0 0 20 20">
    <path fill="#ffffff" fill-rule="evenodd" d="M 17.5 5 L 17.5 17.5 C 17.5 18.88 16.38 20 15 20 L 5 20 C 3.62 20 2.5 18.88 2.5 17.5 L 2.5 5 L 0 5 C 0 4.08 0.75 3.33 1.67 3.33 L 5.83 3.33 L 5.83 1.67 C 5.83 0.75 6.58 0 7.5 0 L 12.5 0 C 13.42 0 14.17 0.75 14.17 1.67 L 14.17 3.33 L 18.33 3.33 C 19.25 3.33 20 4.08 20 5 L 17.5 5 L 17.5 5 Z M 12.5 1.67 L 7.5 1.67 L 7.5 3.33 L 12.5 3.33 L 12.5 1.67 L 12.5 1.67 Z M 5.83 5 L 4.17 5 L 4.17 18.33 L 15.83 18.33 L 15.83 5 L 5.83 5 L 5.83 5 Z M 5.83 5" />
</svg>