<?xml version="1.0" encoding="utf-8"?>
<!-- Generator: Avocode 2.5.4 - http://avocode.com -->
<svg height="16" width="20" xmlns:xlink="http://www.w3.org/1999/xlink" xmlns="http://www.w3.org/2000/svg" viewBox="0 0 20 16">
    <path fill="#000000" fill-rule="evenodd" d="M 15.36 9.03 C 13.58 9.03 12.14 7.59 12.14 5.81 C 12.14 4.02 13.58 2.58 15.36 2.58 C 17.14 2.58 18.59 4.02 18.59 5.81 C 18.59 7.59 17.14 9.03 15.36 9.03 L 15.36 9.03 Z M 15.36 3.87 C 14.29 3.87 13.43 4.74 13.43 5.81 C 13.43 6.88 14.29 7.74 15.36 7.74 C 16.43 7.74 17.3 6.88 17.3 5.81 C 17.3 4.74 16.43 3.87 15.36 3.87 L 15.36 3.87 Z M 9.87 12.46 C 9.22 11.11 7.83 10.27 6.33 10.32 C 3.42 10.32 2.25 12.68 1.92 15.48 L 0.64 15.48 C 1.06 11.98 2.71 9.03 6.33 9.03 C 8.1 8.97 9.76 9.87 10.68 11.39 C 10.36 11.7 10.09 12.07 9.87 12.46 L 9.87 12.46 Z M 6.33 7.74 C 4.19 7.74 2.46 6.01 2.46 3.87 C 2.46 1.73 4.19 0 6.33 0 C 8.47 0 10.2 1.73 10.2 3.87 C 10.2 6.01 8.47 7.74 6.33 7.74 L 6.33 7.74 Z M 6.33 1.29 C 4.9 1.29 3.75 2.45 3.75 3.87 C 3.75 5.3 4.9 6.45 6.33 6.45 C 7.75 6.45 8.91 5.3 8.91 3.87 C 8.91 2.45 7.75 1.29 6.33 1.29 L 6.33 1.29 Z M 15.36 10.32 C 18.2 10.32 19.48 12.69 19.79 15.48 L 18.52 15.48 C 18.28 13.38 17.45 11.61 15.36 11.61 C 13.28 11.61 12.44 13.38 12.21 15.48 L 10.93 15.48 C 11.25 12.69 12.52 10.32 15.36 10.32 L 15.36 10.32 Z M 15.36 10.32" />
</svg>