<?xml version="1.0" encoding="utf-8"?>
<!-- Generator: Avocode 2.5.4 - http://avocode.com -->
<svg height="20" width="15" xmlns:xlink="http://www.w3.org/1999/xlink" xmlns="http://www.w3.org/2000/svg" viewBox="0 0 15 20">
    <path fill="#000000" fill-rule="evenodd" d="M 13.04 20 C 12.62 16.38 11.11 13.33 7.35 13.33 C 3.59 13.33 2.08 16.38 1.66 20 L 0 20 C 0.54 15.48 2.68 11.67 7.35 11.67 C 12.02 11.67 14.16 15.48 14.7 20 L 13.04 20 L 13.04 20 Z M 7.35 10 C 4.59 10 2.35 7.76 2.35 5 C 2.35 2.24 4.59 0 7.35 0 C 10.11 0 12.35 2.24 12.35 5 C 12.35 7.76 10.11 10 7.35 10 L 7.35 10 Z M 7.35 1.67 C 5.51 1.67 4.02 3.16 4.02 5 C 4.02 6.84 5.51 8.33 7.35 8.33 C 9.19 8.33 10.68 6.84 10.68 5 C 10.68 3.16 9.19 1.67 7.35 1.67 L 7.35 1.67 Z M 7.35 1.67" />
</svg>