<?xml version="1.0" encoding="utf-8"?>
<!-- Generator: Avocode 2.5.4 - http://avocode.com -->
<svg height="70" width="70" xmlns:xlink="http://www.w3.org/1999/xlink" xmlns="http://www.w3.org/2000/svg" viewBox="0 0 70 70">
    <path fill="#000000" fill-rule="evenodd" d="M 44.4 48.73 C 42.82 48.03 42.44 47.85 41.94 47.44 C 41.81 47.3 41.71 47.17 41.57 47.05 C 40.91 46.41 40.39 46.02 40.39 44.89 L 40.39 40.56 C 41.15 39.22 42.28 37.35 42.99 34.99 C 43.9 34.73 44.86 33.55 45.16 32.2 C 45.49 30.73 45.31 29.53 44.74 28.95 C 46.35 22.94 46.1 17.84 44.06 15.26 C 43.04 13.97 41.58 13.31 39.82 13.33 C 39.58 13.15 39.44 12.96 39.28 12.74 C 38.56 11.76 37.83 11.12 34.3 11.16 C 30.37 11.16 27.39 12.34 25.46 14.66 C 22.95 17.67 22.25 22.51 23.38 29.05 C 22.89 29.66 22.74 30.78 22.99 32.14 C 23.23 33.4 24.05 34.54 24.9 34.92 C 25.8 37.54 26.72 39.33 27.79 40.51 C 27.84 42.16 27.88 44.68 27.79 45.19 C 27.67 45.85 27.32 46.44 26.7 47.07 C 26.06 47.71 25.17 48.14 23.75 48.7 C 19.58 49.85 16.26 51.71 14.38 53.94 C 14.11 54.26 14.15 54.74 14.47 55.01 C 14.62 55.13 14.79 55.19 14.96 55.19 C 15.18 55.19 15.4 55.1 15.55 54.92 C 17.23 52.92 20.3 51.23 24.19 50.16 C 24.22 50.15 24.24 50.14 24.27 50.13 C 25.9 49.49 26.94 48.98 27.78 48.15 C 28.63 47.29 29.11 46.45 29.29 45.47 C 29.44 44.61 29.33 40.9 29.3 40.17 C 29.29 39.98 29.21 39.8 29.08 39.66 C 28.05 38.62 27.13 36.84 26.22 34.06 C 26.11 33.74 25.87 33.54 25.54 33.55 C 25.35 33.49 24.68 32.87 24.49 31.86 C 24.3 30.83 24.45 30.21 24.55 30.04 C 24.85 29.89 25.02 29.56 24.96 29.22 C 23.8 22.92 24.37 18.35 26.63 15.64 C 28.26 13.68 30.84 12.69 34.31 12.69 C 37.33 12.64 37.66 13.11 38.05 13.64 C 38.29 13.97 38.6 14.38 39.22 14.75 C 39.35 14.83 39.49 14.86 39.64 14.86 C 41.04 14.79 42.1 15.24 42.87 16.21 C 44.65 18.46 44.74 23.4 43.11 29.12 C 43 29.51 43.22 29.93 43.61 30.05 C 43.62 30.05 43.65 30.06 43.67 30.07 C 43.76 30.26 43.88 30.88 43.66 31.88 C 43.46 32.77 42.89 33.34 42.63 33.5 C 42.48 33.45 42.32 33.45 42.16 33.5 C 41.92 33.58 41.74 33.77 41.67 34.01 C 40.93 36.56 40.22 38.51 39.05 39.73 C 38.91 39.88 38.86 40.06 38.86 40.26 L 38.86 44.93 C 38.86 44.96 38.84 45 38.84 45.03 C 39.05 46.72 39.75 47.41 40.5 48.15 C 40.63 48.27 40.75 48.4 40.89 48.54 C 40.91 48.56 40.93 48.58 40.95 48.6 C 41.64 49.17 42.19 49.42 43.83 50.14 C 43.87 50.16 43.9 50.17 43.94 50.18 C 47.79 51.25 50.83 52.94 52.5 54.92 C 52.77 55.24 53.25 55.28 53.57 55.01 C 53.89 54.74 53.93 54.26 53.67 53.94 C 51.81 51.73 48.52 49.88 44.4 48.73 L 44.4 48.73 Z M 44.4 48.73" />
    <path fill="#000000" fill-rule="evenodd" d="M 34.52 0 C 15.49 0 0 15.49 0 34.52 C 0 53.56 15.49 69.05 34.52 69.05 C 53.56 69.05 69.05 53.56 69.05 34.52 C 69.05 15.49 53.56 0 34.52 0 L 34.52 0 Z M 34.52 67.53 C 16.33 67.53 1.52 52.72 1.52 34.52 C 1.52 16.33 16.33 1.52 34.52 1.52 C 52.72 1.52 67.53 16.33 67.53 34.52 C 67.53 52.72 52.72 67.53 34.52 67.53 L 34.52 67.53 Z M 34.52 67.53" />
</svg>