<?xml version="1.0" encoding="utf-8"?>
<!-- Generator: Avocode 2.5.4 - http://avocode.com -->
<svg height="19" width="20" xmlns:xlink="http://www.w3.org/1999/xlink" xmlns="http://www.w3.org/2000/svg" viewBox="0 0 20 19">
    <path fill="#000000" fill-rule="evenodd" d="M 18.33 18.33 L 1.67 18.33 C 0.75 18.33 0 17.59 0 16.67 L 0 1.67 C 0 0.75 0.75 0 1.67 0 L 15 0 C 15.92 0 16.67 0.75 16.67 1.67 L 16.67 3.33 L 18.33 3.33 C 19.25 3.33 20 4.08 20 5 L 20 16.67 C 20 17.59 19.25 18.33 18.33 18.33 L 18.33 18.33 Z M 15 1.67 L 1.67 1.67 L 1.67 3.33 L 15 3.33 L 15 1.67 L 15 1.67 Z M 18.33 5 L 1.67 5 L 1.67 16.67 L 18.33 16.67 L 18.33 5 L 18.33 5 Z M 14.17 8.33 C 15.55 8.33 16.67 9.45 16.67 10.83 C 16.67 12.21 15.55 13.33 14.17 13.33 C 12.79 13.33 11.67 12.21 11.67 10.83 C 11.67 9.45 12.79 8.33 14.17 8.33 L 14.17 8.33 Z M 14.17 11.67 C 14.63 11.67 15 11.29 15 10.83 C 15 10.37 14.63 10 14.17 10 C 13.71 10 13.33 10.37 13.33 10.83 C 13.33 11.29 13.71 11.67 14.17 11.67 L 14.17 11.67 Z M 14.17 11.67" />
</svg>