<?xml version="1.0" encoding="utf-8"?>
<!-- Generator: Avocode 2.5.4 - http://avocode.com -->
<svg height="97" width="105" xmlns:xlink="http://www.w3.org/1999/xlink" xmlns="http://www.w3.org/2000/svg" viewBox="0 0 105 97">
    <path fill="#ffffff" fill-rule="evenodd" d="M 66.42 75.05 C 74.5 65.17 88.26 62.27 100.41 64.17 L 102.94 64.57 L 101.4 66.62 C 93.66 76.84 79.4 80.01 67.3 77.52 L 64.82 77.02 L 66.42 75.05 Z M 66.42 75.05" />
    <path fill="#ffffff" fill-rule="evenodd" d="M 69.57 2.32 C 78.08 9.17 83.17 20.52 81.06 31.44 L 80.59 33.84 L 78.64 32.39 C 69.91 25.93 64.01 13.94 67.12 3.1 L 67.76 0.88 L 69.57 2.32 Z M 69.57 2.32" />
    <path fill="#ffffff" fill-rule="evenodd" d="M 104.66 37.46 C 102.99 49.34 94.46 61.39 82.29 64.08 L 80.04 64.57 L 80.45 62.3 C 82.62 50.38 90.92 39.5 102.68 35.78 L 105 35.05 L 104.66 37.46 Z M 104.66 37.46" />
    <path fill="#ffffff" fill-rule="evenodd" d="M 91.98 11.36 C 96.49 21.77 95.12 34.35 88.17 43.35 L 86.54 45.46 L 85.53 42.99 C 81.28 32.55 82.34 20.02 89.36 11.03 L 90.95 8.99 L 91.98 11.36 Z M 91.98 11.36" />
    <path fill="#ffffff" fill-rule="evenodd" d="M 15.64 11.04 C 22.66 20.03 23.72 32.56 19.47 43 L 18.47 45.47 L 16.83 43.36 C 9.88 34.35 8.51 21.77 13.02 11.36 L 14.05 8.99 L 15.64 11.04 Z M 15.64 11.04" />
    <path fill="#ffffff" fill-rule="evenodd" d="M 37.7 77.52 C 25.61 80.01 11.34 76.84 3.61 66.62 L 2.06 64.57 L 4.59 64.17 C 16.74 62.27 30.49 65.16 38.58 75.05 L 40.19 77.02 L 37.7 77.52 Z M 37.7 77.52" />
    <path fill="#ffffff" fill-rule="evenodd" d="M 37.87 3.1 C 40.99 13.93 35.1 25.92 26.36 32.38 L 24.4 33.83 L 23.94 31.43 C 21.83 20.52 26.92 9.17 35.43 2.32 L 37.23 0.87 L 37.87 3.1 Z M 37.87 3.1" />
    <path fill="#ffffff" fill-rule="evenodd" d="M 2.32 35.78 C 14.08 39.5 22.39 50.38 24.55 62.3 L 24.96 64.57 L 22.71 64.08 C 10.54 61.39 2.01 49.34 0.34 37.46 L 0 35.05 L 2.32 35.78 Z M 2.32 35.78" />
    <path fill="#ffffff" fill-rule="evenodd" d="M 61.03 86.07 C 63.01 88.18 65.07 90.2 67.44 91.8 L 69.08 92.9 L 67.61 94.22 C 67 94.76 66.41 95.31 65.81 95.87 L 65.08 96.55 L 64.15 96.15 C 58.5 93.71 56.89 87.63 52.5 84.77 C 48.11 87.64 46.5 93.71 40.85 96.16 L 39.92 96.56 L 39.19 95.87 C 38.59 95.32 38 94.77 37.39 94.23 L 35.92 92.91 L 37.56 91.81 C 39.93 90.21 41.99 88.18 43.97 86.08 C 41.26 87.42 38.57 88.97 35.48 89.55 C 29.97 90.47 24.07 90.8 18.83 88.52 L 16.3 87.41 L 18.57 85.84 C 23.76 82.27 29.32 78.94 35.76 78.43 C 40.84 78.15 45.98 78.27 50.95 79.42 L 51.01 79.43 L 51.08 79.46 C 52.02 79.76 53 79.76 53.93 79.46 L 54 79.43 L 54.06 79.42 C 59.04 78.27 64.18 78.15 69.27 78.43 C 75.7 78.94 81.26 82.27 86.44 85.84 L 88.71 87.41 L 86.18 88.52 C 80.94 90.8 75.04 90.47 69.51 89.55 C 66.43 88.96 63.74 87.42 61.03 86.07 L 61.03 86.07 Z M 61.03 86.07" />
    <text font-weight="300" font-size="30" font-family="Bodoni 72" fill="#ffffff" y="56" x="40">
        <tspan>W</tspan>
    </text>
</svg>