<svg id="Layer_1" data-name="Layer 1" xmlns="http://www.w3.org/2000/svg" width="33" height="35.36" viewBox="0 0 33 35.36">
  <defs>
    <style>
      .cls-1 {
        fill: #c9c9c9;
      }
    </style>
  </defs>
  <title>xls2</title>
  <g>
    <path class="cls-1" d="M31,14H29.55V10.46l0-2.32a1.18,1.18,0,0,0-.34-0.93L22.31,0.34a1.21,1.21,0,0,0-1-.34h-15A2.32,2.32,0,0,0,4,2.33V14H0V30H4v3a2.32,2.32,0,0,0,2.32,2.32h20.9A2.32,2.32,0,0,0,29.55,33V30H33V14H31ZM21.42,2.88l5.25,5.25H21.42V2.88ZM6.32,2.33H19.1v7a1.16,1.16,0,0,0,1.16,1.16h7V14H6.32V2.33ZM27.23,33H6.32V30h20.9v3ZM31,28H2V16H31V28Z" transform="translate(0 0)"/>
    <path class="cls-1" d="M9,26a0.22,0.22,0,0,0,.16-0.06l0.1-.13L11.1,23a1.08,1.08,0,0,0,.09-0.2l1.92,3a0.53,0.53,0,0,0,.1.13,0.24,0.24,0,0,0,.17.06h1L11.9,22.28l2.38-3.44H13.34a0.2,0.2,0,0,0-.13,0,0.47,0.47,0,0,0-.1.11l-1.77,2.62a1.36,1.36,0,0,0-.1.23L9.38,19a0.33,0.33,0,0,0-.09-0.1,0.27,0.27,0,0,0-.15,0h-1l2.36,3.48L8.07,26H9Z" transform="translate(0 0)"/>
    <polygon class="cls-1" points="19.37 25.18 16.27 25.18 16.27 18.84 15.3 18.84 15.3 26 19.37 26 19.37 25.18"/>
    <path class="cls-1" d="M22.1,26.08a2.78,2.78,0,0,0,1-.17,2.19,2.19,0,0,0,.76-0.48,2,2,0,0,0,.47-0.72,2.42,2.42,0,0,0,.16-0.88,1.71,1.71,0,0,0-.15-0.75A1.58,1.58,0,0,0,24,22.56a2.21,2.21,0,0,0-.55-0.35q-0.31-.14-0.63-0.25l-0.63-.21a3,3,0,0,1-.55-0.24,1.27,1.27,0,0,1-.39-0.34,0.81,0.81,0,0,1-.15-0.5,1.12,1.12,0,0,1,.09-0.44,1,1,0,0,1,.25-0.35,1.22,1.22,0,0,1,.42-0.24,1.74,1.74,0,0,1,.58-0.09,1.78,1.78,0,0,1,.59.09,2.31,2.31,0,0,1,.42.19L23.69,20a0.35,0.35,0,0,0,.2.08,0.21,0.21,0,0,0,.13,0A0.39,0.39,0,0,0,24.11,20l0.23-.46a2.52,2.52,0,0,0-.86-0.55,3,3,0,0,0-1.09-.19,2.54,2.54,0,0,0-.95.16,2.07,2.07,0,0,0-.69.44,1.91,1.91,0,0,0-.58,1.36,1.91,1.91,0,0,0,.15.8,1.61,1.61,0,0,0,.39.54,2,2,0,0,0,.55.35,6.35,6.35,0,0,0,.63.24l0.63,0.2a2.7,2.7,0,0,1,.55.24,1.22,1.22,0,0,1,.39.35,0.9,0.9,0,0,1,.15.53,1.38,1.38,0,0,1-.1.53,1.16,1.16,0,0,1-.29.41,1.31,1.31,0,0,1-.46.27,1.85,1.85,0,0,1-.61.1,1.93,1.93,0,0,1-.7-0.11,2.57,2.57,0,0,1-.49-0.25l-0.34-.25a0.4,0.4,0,0,0-.24-0.11,0.23,0.23,0,0,0-.13,0,0.37,0.37,0,0,0-.1.09l-0.28.46a3,3,0,0,0,1,.68A3.11,3.11,0,0,0,22.1,26.08Z" transform="translate(0 0)"/>
  </g>
</svg>
